<?xml version="1.0" standalone="no"?>
<!DOCTYPE svg PUBLIC "-//W3C//DTD SVG 20010904//EN"
 "http://www.w3.org/TR/2001/REC-SVG-20010904/DTD/svg10.dtd">
<svg version="1.0" xmlns="http://www.w3.org/2000/svg"
 width="1194.000000pt" height="975.000000pt" viewBox="0 0 1194.000000 975.000000"
 preserveAspectRatio="xMidYMid meet">
<metadata>
Created by potrace 1.16, written by Peter Selinger 2001-2019
</metadata>
<g transform="translate(0.000000,975.000000) scale(0.100000,-0.100000)"
fill="#000000" stroke="none">
<path d="M11780 9719 c-311 -63 -731 -145 -1430 -279 -146 -28 -400 -78 -565
-110 -165 -32 -464 -91 -665 -130 -804 -156 -791 -153 -783 -179 3 -12 1 -11
-11 3 -15 19 -16 18 -25 -5 -8 -19 -10 -20 -10 -5 -1 23 -25 20 -249 -24 -81
-16 -406 -79 -722 -140 -316 -61 -642 -124 -725 -140 -185 -37 -262 -52 -690
-135 -187 -36 -419 -82 -515 -101 -96 -19 -254 -50 -350 -69 -96 -18 -256 -49
-355 -68 -99 -20 -369 -72 -600 -117 -231 -45 -575 -112 -765 -149 -190 -38
-399 -79 -465 -91 -66 -13 -174 -33 -240 -47 -66 -13 -235 -46 -375 -73 -140
-27 -347 -67 -460 -89 -113 -22 -346 -67 -518 -101 -172 -33 -324 -65 -338
-71 -14 -5 -28 -18 -31 -28 -5 -21 -53 -47 -62 -34 -3 5 -24 13 -46 19 -44 10
-117 0 -390 -54 -82 -17 -205 -41 -272 -53 l-123 -24 0 -3712 0 -3713 454 0
454 0 6 68 c8 81 21 132 75 282 23 63 51 144 63 180 11 36 26 79 33 95 7 17
23 62 35 100 12 39 35 99 51 134 19 45 25 69 19 81 -5 10 -7 34 -3 53 5 32 9
36 28 31 18 -4 25 1 35 25 6 17 18 35 25 41 8 6 12 17 9 24 -3 8 4 30 16 51
12 21 17 41 12 44 -4 3 -11 14 -15 24 -4 10 -11 16 -16 12 -15 -9 -32 32 -25
59 4 16 15 26 35 30 17 3 29 12 29 21 0 8 4 15 9 15 5 0 11 8 15 18 3 9 8 22
11 28 4 8 -9 11 -42 8 -26 -1 -38 -1 -25 2 27 7 29 30 2 37 -16 4 -18 10 -11
34 7 24 5 32 -12 42 -11 7 -22 9 -26 4 -3 -4 -15 -13 -26 -19 -11 -6 -26 -22
-32 -35 -7 -13 -13 -20 -13 -14 0 5 -5 4 -12 -3 -24 -24 -27 -11 -5 32 12 24
32 49 45 55 13 6 21 15 18 20 -3 4 8 20 23 35 16 15 31 40 35 54 5 27 68 68
86 57 5 -3 21 10 37 30 16 20 37 35 49 35 12 0 27 7 34 15 7 8 16 15 21 15 5
0 26 11 47 25 39 26 88 33 136 20 22 -6 27 -5 22 4 -5 7 0 21 9 31 17 18 16
20 -8 31 -14 6 -28 20 -30 30 -3 11 -22 26 -42 34 -20 9 -39 25 -44 37 l-8 22
-19 -22 c-10 -12 -29 -22 -41 -22 -13 0 -32 -9 -43 -20 -11 -11 -27 -20 -35
-20 -8 0 -24 -5 -35 -12 -10 -7 -22 -10 -25 -7 -10 11 6 36 31 49 13 7 24 19
24 26 0 13 46 28 61 19 5 -4 16 1 25 9 14 15 14 16 -3 16 -10 0 5 12 32 25 28
14 56 23 64 20 8 -3 18 0 22 7 6 9 14 7 32 -10 28 -26 57 -29 57 -4 0 14 7 17
43 14 36 -3 45 -8 56 -33 16 -37 26 -29 26 19 0 30 4 37 20 37 12 0 25 -11 33
-27 11 -23 20 -28 48 -28 27 0 37 -5 41 -20 4 -14 14 -20 34 -20 17 0 33 -7
40 -18 11 -17 15 -15 56 26 25 24 49 59 54 77 8 29 6 37 -16 61 -14 15 -25 31
-25 36 0 17 31 20 48 6 19 -17 42 -13 55 8 4 8 14 14 21 14 15 0 29 -27 21
-40 -3 -5 0 -21 5 -36 6 -15 8 -47 4 -71 -6 -41 -9 -44 -30 -39 -19 5 -24 2
-24 -12 0 -27 -52 -72 -82 -72 -26 0 -45 -24 -28 -35 11 -7 115 -16 205 -18
53 -2 60 0 58 16 -1 16 4 18 33 12 19 -3 34 -2 34 3 0 15 -24 32 -47 32 -22 0
-23 3 -17 43 8 50 18 59 60 51 25 -5 35 -1 48 17 9 13 16 31 16 40 0 31 52 39
81 13 16 -15 16 -17 -3 -50 -16 -27 -24 -33 -43 -28 -17 4 -26 0 -35 -16 -6
-12 -9 -24 -6 -28 3 -3 6 0 6 6 0 7 14 12 30 12 38 0 40 -22 3 -39 l-27 -12
30 -24 c16 -13 33 -24 38 -25 5 0 4 -6 -2 -13 -22 -26 8 -91 38 -82 9 3 23 -1
30 -10 7 -8 18 -15 25 -15 7 0 15 -8 17 -18 4 -14 18 -21 51 -25 29 -4 54 -15
71 -32 14 -14 32 -25 40 -25 8 0 16 -5 18 -12 3 -8 14 -5 34 9 39 28 84 35 84
12 0 -7 -10 -9 -26 -5 -17 5 -23 3 -19 -4 3 -6 -3 -10 -14 -10 -12 0 -21 -4
-21 -10 0 -13 22 -13 56 0 31 12 42 6 26 -13 -7 -9 -8 -17 -2 -23 11 -11 -33
-64 -52 -64 -9 0 -8 -4 1 -13 10 -10 15 -9 25 6 15 20 37 22 54 5 10 -10 18
-7 37 15 26 27 69 32 71 9 3 -25 5 -26 19 -8 8 11 15 29 15 41 0 18 6 22 40
23 32 2 38 -1 33 -14 -4 -10 -14 -14 -29 -11 -20 3 -24 0 -24 -18 0 -36 40
-40 67 -8 13 14 20 31 16 37 -4 7 -1 7 7 -1 10 -9 10 -21 2 -52 -7 -30 -7 -41
2 -41 6 0 22 -13 36 -30 15 -18 34 -30 48 -30 15 0 26 -7 29 -20 3 -11 9 -17
14 -14 5 3 14 -7 20 -23 8 -22 7 -30 -5 -39 -20 -14 -20 -24 -1 -24 9 0 18 12
22 30 3 17 8 30 11 30 12 0 62 -65 62 -81 0 -9 6 -19 14 -22 7 -3 16 -15 19
-27 4 -17 2 -21 -16 -18 -14 2 -21 10 -21 21 1 9 -4 17 -12 17 -8 0 -14 -4
-14 -9 0 -5 -3 -16 -6 -25 -4 -11 -1 -16 11 -16 9 0 13 -5 10 -11 -4 -6 -13
-8 -21 -5 -21 8 -44 -4 -44 -22 0 -12 3 -13 12 -4 7 7 22 12 35 12 12 0 34 5
48 12 20 9 31 8 50 -2 34 -18 31 -34 -5 -26 -26 5 -30 3 -30 -16 0 -20 -1 -20
-18 -5 -25 23 -62 22 -62 -1 0 -28 -52 -23 -65 6 -10 23 -32 24 -28 1 8 -47
18 -75 32 -86 13 -9 9 -10 -19 -8 -36 3 -64 -11 -54 -26 3 -5 16 -9 28 -9 16
0 26 -7 29 -21 3 -12 10 -18 17 -14 7 4 6 -1 -2 -15 -11 -18 -11 -22 5 -31 9
-6 15 -14 12 -20 -9 -14 -25 -11 -25 6 0 15 -10 19 -41 16 -10 -1 -19 8 -23
24 -4 14 -12 25 -20 25 -8 0 -16 16 -20 40 -3 22 -11 40 -16 40 -16 0 -11 22
8 36 10 8 12 13 5 14 -7 0 -13 9 -13 20 0 17 -5 19 -25 14 -27 -7 -35 12 -13
34 6 6 8 15 4 19 -4 4 -11 1 -16 -7 -8 -12 -10 -12 -16 3 -3 9 -10 14 -15 11
-5 -3 -12 1 -15 10 -5 13 -58 33 -77 28 -4 -1 -7 2 -7 8 0 5 5 10 10 10 6 0
10 6 10 14 0 17 -63 42 -68 27 -4 -11 -62 44 -62 58 0 4 12 13 26 20 30 13 30
48 0 43 -13 -3 -17 1 -13 12 9 22 -14 32 -28 12 -8 -11 -27 -16 -56 -16 -24 0
-57 -1 -74 -3 -21 -1 -30 2 -30 13 0 10 8 14 22 12 33 -5 48 31 27 63 -18 28
-52 50 -61 41 -4 -3 1 -14 10 -24 19 -21 6 -42 -24 -42 -10 0 -24 -6 -32 -14
-18 -19 -79 -25 -84 -8 -3 6 2 12 11 12 18 0 22 35 6 45 -10 6 -14 45 -4 45 3
0 12 -7 21 -15 17 -18 35 -10 31 13 -2 13 -14 16 -56 13 -39 -2 -59 2 -72 14
-24 22 -40 12 -40 -25 0 -15 -5 -30 -11 -32 -7 -2 -5 -13 4 -32 14 -25 16 -26
21 -8 4 10 4 27 0 36 -8 20 0 21 21 0 15 -15 15 -18 0 -34 -14 -16 -14 -18 0
-23 8 -4 21 -4 29 -1 8 3 17 1 20 -5 12 -19 15 -125 4 -144 -8 -16 -7 -23 7
-33 23 -17 11 -50 -26 -66 -27 -12 -48 -43 -36 -54 2 -3 16 0 31 5 27 11 56 5
56 -10 0 -5 7 -9 15 -9 9 0 19 -8 22 -17 4 -10 16 -26 28 -35 18 -16 19 -17 2
-18 -13 0 -17 -6 -15 -22 2 -17 9 -22 23 -20 11 2 22 8 23 13 2 5 9 9 15 9 10
0 76 28 129 55 20 10 28 10 31 2 8 -25 -6 -47 -39 -59 -26 -9 -31 -15 -22 -25
8 -10 7 -13 -5 -13 -8 0 -17 4 -19 9 -1 5 -12 11 -22 13 -14 2 -19 -3 -21 -19
-1 -18 4 -23 20 -23 17 0 26 -11 39 -45 14 -34 24 -46 44 -51 47 -10 52 -13
46 -29 -4 -10 0 -15 14 -15 12 0 24 -5 27 -10 7 -11 -9 -13 -43 -4 -12 4 -22
12 -22 19 0 11 -28 24 -52 25 -3 0 -16 -16 -28 -35 -15 -24 -29 -35 -45 -35
-33 0 -40 17 -10 24 48 12 79 126 34 126 -10 0 -19 6 -19 13 0 8 -3 8 -9 -2
-5 -8 -23 -14 -40 -13 -22 0 -31 -4 -31 -15 0 -11 6 -14 26 -9 19 5 30 1 44
-16 23 -28 25 -38 6 -38 -8 0 -21 -9 -30 -21 l-14 -21 -51 28 c-28 16 -51 36
-51 45 0 24 -26 54 -34 41 -4 -7 -4 -18 1 -24 4 -7 9 -21 10 -32 5 -29 35 -73
59 -86 27 -15 44 -51 44 -96 0 -28 -5 -36 -25 -44 -24 -9 -36 -40 -15 -40 6 0
10 -7 10 -15 0 -8 -7 -15 -15 -15 -8 0 -15 5 -15 10 0 14 -89 5 -104 -10 -8
-10 -5 -11 14 -7 38 9 53 -5 45 -42 -4 -17 -10 -31 -15 -31 -5 0 -12 -9 -15
-21 -5 -15 -10 -17 -20 -9 -7 6 -20 8 -29 4 -9 -3 -16 -1 -16 5 0 6 6 11 14
11 9 0 12 7 9 20 -3 11 0 20 6 20 6 0 11 7 11 15 0 9 -9 14 -22 14 -13 0 -32
2 -44 6 -13 4 -27 1 -37 -9 -28 -28 10 -92 124 -205 10 -9 27 -36 40 -61 12
-25 38 -60 56 -78 18 -18 33 -41 33 -50 0 -10 7 -27 15 -39 8 -11 17 -39 21
-62 10 -64 -16 -52 -70 32 -26 39 -67 88 -90 107 -42 35 -82 83 -121 144 -11
18 -41 52 -66 77 -25 25 -48 51 -50 57 -2 7 -24 15 -47 16 -27 2 -51 11 -66
25 -31 29 -96 30 -96 1 0 -13 7 -20 18 -20 20 0 72 -49 72 -68 0 -20 -58 7
-85 40 -14 17 -28 28 -32 25 -3 -4 -15 -1 -26 5 -21 11 -21 11 3 20 23 8 23 9
4 22 -10 7 -37 19 -59 26 -22 7 -44 15 -50 19 -5 3 -28 7 -50 8 -22 1 -61 5
-86 8 -36 5 -58 2 -93 -14 -43 -19 -46 -22 -46 -59 0 -32 -4 -41 -26 -51 -32
-14 -53 -2 -121 65 -39 40 -48 44 -91 44 -40 0 -58 -8 -129 -56 -74 -49 -83
-59 -83 -86 0 -16 7 -45 16 -63 20 -43 15 -77 -14 -91 -12 -6 -28 -19 -35 -28
-7 -9 -24 -22 -37 -29 -20 -10 -25 -21 -26 -55 -2 -49 -8 -59 -27 -44 -7 6
-18 7 -26 2 -8 -4 -28 -6 -45 -3 -40 6 -75 -29 -88 -89 -13 -60 -25 -171 -20
-185 3 -9 31 -13 92 -13 l88 0 8 32 c4 18 7 39 5 46 -1 7 7 24 18 39 22 27 27
53 11 53 -16 0 -11 43 9 69 14 18 20 21 26 10 5 -7 4 -14 -3 -17 -7 -2 -12
-16 -12 -30 l1 -27 19 25 c11 14 29 36 40 50 11 14 20 31 20 38 0 15 -26 16
-35 1 -5 -7 -13 -5 -25 6 -16 15 -18 15 -24 0 -3 -9 -10 -13 -16 -10 -14 9
-12 25 3 25 8 0 28 18 46 40 34 43 100 90 125 90 8 0 19 6 23 13 9 14 38 28
108 52 28 10 80 30 117 46 74 32 222 48 281 30 17 -5 83 -16 145 -24 98 -13
119 -19 157 -46 24 -17 50 -31 59 -31 8 0 44 -27 79 -60 52 -49 63 -64 60 -84
-4 -17 -9 -22 -17 -16 -45 37 -75 57 -99 68 -23 10 -29 9 -33 -3 -4 -9 14 -34
47 -68 91 -89 159 -165 159 -176 0 -15 -41 -51 -59 -51 -9 0 -25 -7 -35 -15
-11 -8 -26 -15 -34 -15 -8 0 -25 -9 -39 -20 -19 -15 -41 -20 -84 -20 -32 0
-61 -5 -64 -10 -4 -7 548 -10 1649 -10 911 0 1656 3 1656 7 0 4 -9 17 -21 29
-19 20 -19 24 -6 49 8 16 29 33 50 40 43 15 53 9 30 -17 -15 -17 -15 -20 -3
-28 23 -15 67 -12 74 5 3 9 0 25 -6 35 -17 27 -1 41 56 47 61 7 66 -9 25 -76
-32 -51 -32 -52 -13 -71 17 -16 24 -17 60 -8 25 7 44 19 50 32 7 17 18 21 63
22 56 1 91 -19 91 -51 0 -9 9 -15 25 -15 14 0 25 4 25 9 0 5 17 15 38 22 20 6
55 22 78 34 62 35 75 41 132 66 37 16 49 25 40 31 -8 6 3 7 28 3 39 -6 43 -4
75 34 28 31 38 37 52 30 12 -7 24 -6 39 5 12 9 31 16 41 16 23 0 89 34 106 54
8 9 21 16 30 16 9 0 22 9 28 19 10 16 9 21 -5 27 -9 4 -23 6 -29 5 -7 -1 -13
6 -13 15 0 11 -5 14 -16 10 -25 -10 -62 4 -67 25 -3 12 -14 19 -30 19 -16 0
-37 13 -59 36 -18 20 -45 48 -60 62 -22 20 -26 31 -21 51 3 14 12 31 20 36 10
8 8 10 -11 11 -21 2 -24 -2 -21 -27 5 -34 -5 -37 -23 -9 -9 15 -9 20 0 20 9 0
9 3 0 12 -20 20 -14 36 28 82 22 24 40 46 40 49 0 4 -13 27 -29 52 -19 29 -27
54 -24 68 7 29 69 87 93 87 13 0 17 5 13 19 -4 16 -1 19 16 14 11 -3 19 -9 16
-13 -3 -4 3 -14 12 -21 15 -12 16 -12 10 4 -8 22 12 57 30 50 18 -7 16 17 -2
38 -15 15 -13 17 15 21 23 3 34 0 38 -11 4 -9 10 13 13 49 3 36 9 72 13 81 5
12 -3 28 -24 53 -29 32 -31 40 -25 78 4 24 4 40 0 36 -4 -4 -16 -3 -27 3 -10
6 -29 11 -41 13 -34 4 -57 17 -57 31 0 17 31 28 44 15 5 -5 23 -10 40 -10 16
0 37 -7 46 -15 15 -14 19 -13 34 4 14 15 15 24 7 40 -16 29 2 54 75 101 46 29
63 47 67 68 6 28 13 33 140 99 15 8 27 19 27 24 0 14 279 139 311 139 5 0 43
16 83 35 41 19 79 35 85 35 10 0 93 30 192 71 26 10 82 23 125 29 44 5 102 15
129 21 28 7 64 11 81 11 29 -2 34 4 68 69 21 40 46 101 56 138 22 79 56 177
72 208 16 32 4 39 -21 14 -12 -12 -16 -21 -11 -21 6 0 10 -4 10 -9 0 -18 -51
5 -63 29 -7 13 -37 36 -67 51 -45 23 -68 28 -130 28 -41 0 -93 -4 -115 -10
-22 -6 -53 -13 -68 -16 -16 -3 -31 -13 -35 -22 -10 -26 -76 -108 -70 -86 4 11
18 54 33 95 17 48 23 76 16 78 -6 2 -11 13 -11 24 0 14 5 18 15 14 9 -3 15 0
15 9 0 8 -6 15 -14 15 -9 0 -12 7 -9 20 4 15 11 19 27 15 19 -6 20 -5 4 8 -20
16 -25 58 -6 55 6 -2 14 12 18 30 6 24 4 32 -6 32 -8 0 -14 4 -14 10 0 5 7 6
17 3 10 -4 14 -2 10 4 -4 6 -4 19 0 30 6 16 8 15 15 -7 7 -22 7 -22 4 5 -3 17
-8 38 -11 47 -4 10 1 24 13 36 16 16 19 27 12 55 -4 19 -10 40 -14 46 -4 6 -1
11 8 11 9 0 16 9 16 20 0 11 5 20 10 20 6 0 9 18 6 43 -2 24 2 54 9 67 10 18
10 28 -1 49 -17 31 -18 55 -3 45 8 -4 9 3 5 22 -18 95 -18 122 1 132 17 10 17
12 -4 32 -26 23 -29 36 -10 43 8 3 7 10 -7 26 -11 11 -16 24 -12 28 4 4 11 1
16 -7 7 -11 10 -7 10 15 1 29 1 29 16 10 8 -11 20 -19 25 -17 5 1 9 -12 8 -30
0 -18 2 -54 6 -80 7 -40 5 -47 -11 -51 -16 -4 -16 -5 -2 -6 22 -1 33 -38 18
-56 -7 -8 -9 -15 -4 -15 11 0 12 -121 1 -137 -4 -7 -6 -23 -3 -37 3 -14 0 -54
-6 -88 -5 -35 -11 -77 -13 -95 -2 -17 -6 -55 -10 -85 -4 -29 -5 -51 -2 -48 11
11 45 199 58 319 l12 124 24 -29 c12 -16 23 -34 23 -40 0 -6 11 -27 25 -47 14
-21 20 -39 14 -42 -5 -4 1 -15 13 -25 19 -16 20 -19 6 -20 -10 0 -15 -7 -14
-17 2 -13 10 -17 29 -15 15 2 27 -1 27 -7 0 -10 -14 -15 -34 -12 -5 1 -5 -6
-1 -16 4 -10 10 -26 12 -35 3 -10 9 -18 14 -18 5 0 9 -7 9 -15 0 -9 6 -12 15
-9 11 5 15 -1 15 -20 0 -25 -20 -38 -20 -13 -1 6 -10 1 -21 -13 -19 -22 -19
-25 -5 -28 9 -2 24 2 33 10 12 9 15 9 9 0 -5 -8 2 -12 26 -13 l33 -1 -28 -10
c-35 -13 -32 -40 6 -45 19 -3 27 1 27 12 0 8 7 15 15 15 21 0 19 18 -2 23 -15
4 -14 5 3 6 11 0 29 -8 39 -19 16 -18 17 -20 2 -14 -9 3 -23 -1 -32 -9 -19
-20 -19 -27 0 -27 8 0 15 -8 16 -17 0 -11 3 -13 6 -5 8 20 30 14 37 -10 16
-51 13 -87 -6 -93 -10 -4 -18 -14 -18 -23 0 -15 2 -15 10 -2 13 20 13 4 -1
-21 -8 -16 -13 -18 -25 -8 -11 9 -14 8 -14 -4 0 -9 -7 -22 -15 -31 -11 -11
-12 -17 -3 -22 6 -4 14 -2 16 4 2 7 9 9 15 5 6 -4 8 0 4 10 -8 20 4 22 21 5
19 -19 34 9 28 49 -4 25 -1 31 10 26 9 -3 14 2 14 16 0 12 7 24 16 28 8 3 20
17 26 32 20 54 80 360 72 373 -3 5 -1 14 4 21 14 17 25 169 13 186 -6 10 -2
27 12 54 19 37 20 47 10 211 -6 108 -6 176 0 183 6 9 4 21 -5 35 -8 13 -18 40
-21 60 -5 33 -3 38 14 38 12 0 17 -4 13 -11 -3 -6 -2 -14 3 -18 6 -3 14 -31
18 -61 3 -30 8 -66 11 -80 12 -70 14 -340 4 -469 -25 -326 -135 -769 -256
-1036 -53 -118 -74 -168 -74 -178 0 -17 92 -1 107 19 19 26 17 45 -4 37 -17
-7 -17 -5 -2 17 15 23 42 96 122 322 18 51 36 88 44 88 7 0 13 8 13 18 0 14
-2 15 -10 2 -14 -22 -12 2 4 52 8 24 26 93 41 153 15 61 29 117 32 125 4 8 7
30 9 47 2 18 12 43 24 55 12 13 19 31 16 41 -2 11 0 30 7 44 9 19 8 26 -3 33
-20 12 -13 87 10 120 17 25 24 71 36 259 6 95 0 131 -21 131 -9 0 -16 10 -16
25 -5 69 -3 80 9 78 14 -3 16 23 2 32 -5 3 -10 11 -10 16 0 6 5 7 10 4 15 -9
23 21 11 42 -10 17 -10 17 -11 1 0 -17 -20 -27 -20 -10 0 4 -5 36 -10 72 -7
48 -6 66 3 72 9 6 9 10 0 16 -20 13 -36 64 -22 72 8 6 8 9 0 11 -6 2 -13 23
-15 46 -3 24 -8 48 -12 54 -4 7 -1 10 7 7 8 -3 15 -11 16 -19 8 -60 15 -89 23
-89 10 0 8 41 -3 70 -3 8 -8 27 -11 42 -5 21 -12 28 -31 28 -16 0 -25 6 -25
15 0 9 10 15 26 15 19 0 25 4 22 18 -2 10 -11 16 -21 14 -11 -2 -17 4 -17 18
0 11 -4 20 -10 20 -18 0 -11 27 8 32 18 5 22 -1 51 -77 19 -53 42 -156 68
-305 45 -253 36 -613 -23 -955 -1 -11 -5 -36 -8 -55 -5 -32 -54 -230 -90 -360
-8 -31 -22 -76 -31 -100 -9 -25 -25 -70 -35 -101 -23 -70 -110 -280 -122 -296
-6 -7 -6 -17 -2 -24 9 -15 43 28 44 54 0 9 4 17 9 17 5 0 11 8 14 18 3 9 17
49 32 87 87 232 125 354 166 535 17 74 34 140 37 145 8 12 7 11 16 100 4 39
14 109 22 158 8 48 17 120 20 160 9 117 10 428 1 434 -5 3 -6 12 -3 20 4 8 -3
72 -14 142 -11 69 -22 140 -25 156 -2 17 -11 53 -19 80 -8 28 -20 68 -26 90
-6 22 -15 49 -20 60 -17 41 -18 67 -2 85 15 18 17 17 35 -33 50 -138 89 -319
107 -497 11 -115 15 -476 5 -534 -3 -17 -9 -78 -15 -136 -12 -140 -80 -471
-120 -595 -6 -16 -28 -86 -51 -155 -48 -148 -90 -260 -136 -354 -34 -70 -41
-106 -23 -106 6 0 13 8 17 18 3 9 14 35 23 57 74 172 200 536 225 650 7 33 21
89 30 125 26 106 67 380 80 535 11 133 5 451 -9 473 -3 5 -7 49 -7 96 -1 47
-5 86 -9 86 -7 0 -16 44 -26 130 -3 25 -10 49 -15 55 -5 5 -9 21 -9 36 0 15
-5 31 -10 34 -6 4 -10 23 -10 43 2 67 -6 109 -24 136 -17 27 -17 28 4 33 11 3
27 18 35 33 13 26 13 28 -5 33 -11 3 -18 13 -17 25 1 20 2 20 27 2 l26 -18 37
55 c21 31 36 61 34 67 -3 8 5 11 27 9 28 -4 29 -3 14 10 -10 8 -18 24 -18 36
0 26 -16 28 -23 2 -6 -24 -88 -53 -95 -33 -5 17 -61 45 -76 39 -8 -3 -11 -17
-8 -36 3 -26 1 -30 -17 -28 -24 1 -30 40 -8 54 16 11 75 131 83 171 4 21 6 21
47 7 56 -19 149 -100 386 -336 133 -133 181 -187 181 -204 0 -8 4 -15 10 -15
5 0 7 -7 3 -16 -5 -13 -2 -15 18 -9 21 7 22 6 11 -7 -7 -9 -9 -24 -6 -34 10
-26 -38 19 -102 96 -27 33 -57 60 -66 60 -10 0 -18 7 -18 15 0 8 -5 15 -12 15
-7 0 -22 10 -33 23 -11 13 -68 67 -127 121 -131 119 -146 103 -20 -22 48 -48
121 -124 162 -169 66 -73 73 -86 44 -82 -4 0 -10 -5 -15 -12 -6 -10 -13 -6
-29 14 -13 16 -31 27 -46 27 -13 0 -24 4 -24 9 0 5 -20 25 -44 44 -41 35 -43
35 -38 11 3 -17 0 -24 -11 -24 -8 0 -27 -17 -43 -37 -29 -40 -91 -103 -99
-103 -12 0 -3 29 15 52 10 14 17 28 14 31 -3 3 4 8 15 12 12 3 21 10 21 14 0
13 -112 -16 -121 -31 -6 -9 -9 -4 -9 14 0 29 12 36 73 40 20 1 37 6 37 11 0 4
8 7 18 6 9 -1 28 2 40 8 21 8 22 11 9 21 -8 7 -19 12 -23 11 -19 -3 -34 2 -34
11 0 6 7 10 16 10 8 0 13 4 10 8 -3 5 -18 7 -34 4 -38 -5 -94 39 -74 59 6 7
12 17 12 23 0 21 -69 -71 -70 -92 0 -15 -7 -26 -20 -29 -23 -6 -20 -28 11
-100 10 -24 21 -64 25 -90 3 -27 10 -52 14 -58 4 -5 17 -59 29 -120 12 -60 24
-111 26 -114 8 -8 17 29 12 49 -3 11 -1 23 4 26 5 3 9 0 9 -7 0 -8 4 -8 15 1
18 15 20 33 3 27 -25 -8 -48 13 -48 44 0 19 6 32 18 35 9 3 27 11 39 17 13 5
39 10 58 10 19 0 35 4 35 8 0 16 43 17 61 1 22 -19 26 -52 6 -52 -7 0 -28 -15
-47 -32 -20 -18 -56 -50 -83 -72 -26 -21 -47 -46 -47 -56 0 -9 -7 -31 -16 -49
-13 -27 -15 -48 -9 -119 5 -48 8 -100 7 -117 -1 -16 1 -23 5 -15 3 8 11 18 17
22 5 4 10 23 9 42 -1 37 23 69 36 48 11 -18 48 -3 46 19 -1 10 -4 22 -8 25 -4
4 -1 14 5 22 10 11 8 13 -12 10 -17 -2 -24 -8 -22 -21 3 -19 -24 -35 -38 -21
-14 14 0 56 16 50 7 -3 16 -1 19 4 3 5 13 8 23 8 9 -1 33 2 53 5 51 10 89 -6
89 -38 0 -18 -5 -25 -20 -25 -10 0 -29 -11 -42 -24 -13 -13 -49 -42 -80 -66
-32 -23 -58 -49 -58 -56 0 -8 -8 -22 -18 -32 -15 -15 -18 -38 -19 -151 -1
-119 0 -131 13 -113 9 13 12 31 8 46 -3 14 -3 29 0 34 6 10 56 4 54 -7 -2 -20
6 -19 37 4 30 23 33 31 28 58 -7 40 -12 45 -22 28 -10 -16 -31 -6 -31 15 0 24
115 13 141 -13 23 -22 16 -53 -11 -53 -10 0 -41 -16 -70 -35 -29 -19 -67 -42
-84 -50 -21 -10 -37 -28 -45 -50 -7 -20 -16 -33 -20 -31 -4 3 -8 -11 -9 -30
-1 -20 -7 -64 -13 -97 -6 -34 -12 -89 -14 -122 -3 -56 -27 -173 -61 -293 -8
-29 -12 -56 -9 -62 3 -5 1 -17 -4 -27 -5 -10 -17 -45 -26 -78 -20 -70 -64
-213 -73 -235 -3 -8 -6 -19 -7 -25 0 -5 -10 -31 -23 -57 -12 -26 -22 -54 -22
-61 0 -7 -6 -21 -13 -32 -7 -11 -22 -47 -32 -80 -11 -33 -28 -73 -37 -90 -29
-49 -24 -54 49 -57 42 -2 68 -8 71 -15 2 -8 -5 -13 -17 -13 -36 0 -23 -25 24
-48 38 -18 56 -21 125 -16 56 4 86 2 96 -7 18 -15 18 -39 -1 -39 -9 0 -12 -6
-9 -15 4 -8 2 -15 -4 -15 -6 0 -12 5 -14 11 -3 8 -10 8 -26 -2 -19 -12 -24
-12 -31 -1 -7 12 -14 11 -41 -3 -17 -9 -30 -19 -27 -21 3 -3 45 -9 93 -14 235
-24 310 -33 319 -40 8 -7 11 -43 6 -79 0 -5 -19 -11 -41 -15 -46 -7 -45 -26 1
-26 16 0 40 -7 54 -16 13 -8 61 -22 107 -30 53 -9 87 -20 96 -31 19 -27 9 -38
-34 -36 -21 1 -92 5 -157 7 -82 4 -125 10 -140 21 -12 8 -25 15 -28 15 -11 0
-40 -61 -34 -70 6 -10 65 -25 84 -21 8 1 44 -4 80 -13 36 -8 89 -20 116 -26
28 -6 66 -15 85 -19 19 -4 44 -12 55 -18 11 -6 49 -16 85 -23 81 -15 130 -35
130 -53 0 -7 -11 -24 -25 -37 -24 -23 -40 -21 -40 3 0 23 -54 19 -98 -7 -24
-14 -47 -26 -51 -26 -5 0 -5 16 -2 36 7 34 6 35 -15 24 -18 -10 -28 -8 -60 10
-22 12 -39 18 -39 14 0 -5 -5 -3 -12 4 -7 7 -32 12 -55 12 -24 0 -54 6 -66 14
-12 8 -47 15 -77 16 -72 3 -72 3 -60 -20 13 -24 7 -25 -25 -4 -14 9 -25 13
-25 9 0 -4 -7 -1 -16 6 -13 11 -17 10 -25 -4 -6 -9 -20 -17 -32 -18 -21 0 -21
-1 3 -11 39 -16 199 -54 255 -61 28 -3 79 -17 114 -31 36 -15 76 -26 90 -26
14 0 62 -11 106 -25 44 -14 91 -25 105 -25 14 0 33 -9 42 -19 11 -12 36 -21
76 -26 97 -11 151 -59 107 -95 -8 -7 -15 -21 -15 -31 0 -23 -22 -24 -58 -5
-23 13 -56 26 -72 31 -37 10 -62 22 -95 49 -32 25 -49 31 -90 31 -29 1 -65 9
-85 20 -19 10 -55 22 -80 26 -25 4 -69 13 -99 19 -60 13 -75 7 -42 -16 17 -13
20 -19 10 -30 -6 -8 -20 -14 -30 -14 -11 0 -19 -4 -19 -10 0 -9 14 -14 175
-56 291 -75 434 -120 459 -143 27 -24 73 -47 113 -56 18 -3 35 -11 38 -16 4
-5 17 -9 29 -9 30 0 48 -22 44 -52 -5 -37 -51 -38 -123 -4 -33 16 -73 31 -90
33 -16 3 -41 11 -55 18 -56 31 -100 46 -110 40 -6 -4 -28 3 -50 14 -22 11 -66
25 -98 30 -32 5 -76 16 -97 25 -40 17 -95 21 -95 8 0 -12 -76 -53 -83 -46 -9
9 -59 -5 -53 -15 3 -4 31 -11 63 -15 64 -7 363 -100 488 -151 44 -19 93 -37
110 -41 16 -4 63 -24 105 -45 41 -20 93 -42 115 -48 45 -12 108 -14 118 -4 4
3 36 8 72 11 95 6 162 -17 232 -79 32 -28 79 -62 105 -75 32 -16 57 -39 74
-67 36 -58 119 -143 179 -181 28 -18 88 -71 134 -119 l84 -86 199 -1 200 0 20
25 c13 17 24 23 32 17 10 -8 46 18 46 33 0 3 0 9 0 14 0 6 14 11 32 13 41 4
46 21 11 34 l-28 10 34 18 c27 14 35 15 42 5 4 -7 5 -17 2 -22 -3 -4 3 -14 13
-21 12 -9 15 -19 9 -32 -4 -10 -7 -23 -6 -27 1 -5 -3 -6 -8 -3 -5 4 -18 -5
-29 -19 -15 -19 -28 -25 -52 -23 -19 2 -35 -2 -37 -9 -4 -10 72 -13 356 -13
l361 0 0 535 0 536 -41 -4 c-22 -2 -45 -9 -52 -16 -6 -6 -29 -11 -52 -11 -35
-1 -38 -2 -22 -14 15 -12 15 -15 2 -26 -20 -17 -9 -31 20 -24 34 8 39 -11 9
-35 -22 -17 -23 -21 -9 -21 31 0 11 -9 -30 -15 -21 -2 -46 -12 -54 -21 -15
-15 -12 -16 27 -12 52 4 54 -5 5 -20 -23 -7 -42 -8 -54 -2 -23 13 -29 12 -29
-1 0 -6 -7 -17 -15 -25 -19 -20 -19 -34 1 -34 8 0 13 -4 9 -10 -3 -5 -15 -6
-27 -1 -17 6 -27 3 -40 -13 -13 -16 -17 -18 -18 -5 0 22 23 69 35 69 11 0 75
54 75 64 0 3 -7 6 -15 6 -19 0 -19 21 0 46 19 25 19 32 -2 37 -11 3 -7 5 10 6
17 1 27 7 27 16 0 8 6 15 14 15 7 0 16 9 19 20 3 11 14 20 25 20 21 0 37 37
19 43 -6 2 -7 9 -3 16 6 9 20 11 42 6 34 -6 39 -1 34 34 -1 9 4 12 14 8 9 -4
19 1 24 10 6 10 17 14 31 10 l21 -5 0 299 c0 177 -4 299 -9 299 -5 0 -16 -7
-25 -15 -17 -17 -26 -19 -26 -6 0 5 14 14 30 21 l30 12 0 671 0 670 -21 -19
c-12 -10 -39 -45 -60 -76 -22 -32 -49 -63 -60 -69 -22 -11 -28 -7 -76 56 -73
94 -279 308 -346 359 -53 40 -62 61 -42 92 8 13 23 24 33 24 28 0 119 47 125
65 4 9 12 15 19 13 17 -6 50 31 80 90 20 39 77 47 203 28 61 -10 118 -19 128
-22 16 -5 17 64 17 1350 0 746 -4 1356 -8 1356 -4 0 -30 -14 -58 -31 -27 -18
-62 -36 -79 -42 -16 -6 -176 -83 -355 -173 -179 -89 -340 -167 -359 -173 -19
-6 -58 -29 -87 -51 -29 -22 -59 -40 -67 -40 -32 0 -65 68 -52 109 3 11 22 25
43 32 20 6 39 15 42 19 6 8 139 71 160 75 8 2 65 31 125 66 114 64 185 102
269 140 43 20 121 62 354 192 l72 41 0 272 0 273 -35 7 c-29 5 -37 12 -43 38
-12 46 4 69 46 62 l32 -5 0 79 0 79 -33 -6 c-36 -5 -101 21 -126 51 -7 9 -32
21 -55 27 -22 6 -55 22 -73 35 -17 13 -36 24 -41 24 -23 0 -39 78 -18 86 21 8
135 -22 156 -41 10 -9 48 -23 86 -30 37 -8 75 -22 85 -31 18 -17 19 14 19
1134 0 634 -3 1152 -7 1151 -5 0 -73 -13 -153 -30z m-6727 -1677 c10 -10 18
-32 19 -48 1 -16 6 -34 10 -41 5 -6 5 -14 -2 -18 -5 -3 -10 -24 -10 -45 0 -21
-4 -42 -10 -45 -5 -3 -10 -15 -10 -26 0 -13 -4 -18 -11 -13 -9 5 -10 -3 -5
-30 4 -23 3 -36 -4 -36 -21 0 -10 -41 14 -50 23 -8 42 -52 31 -71 -4 -5 1 -23
9 -40 9 -17 13 -35 11 -40 -3 -4 -1 -10 5 -14 16 -10 12 -25 -7 -25 -15 0 -16
-2 -3 -10 12 -8 12 -11 -3 -28 -9 -10 -17 -24 -17 -31 0 -6 -12 -16 -26 -21
-14 -6 -22 -14 -19 -20 4 -6 -8 -10 -29 -10 -27 0 -36 4 -37 18 0 15 -1 14 -8
-3 -8 -19 -8 -19 -19 0 -10 18 -11 18 -12 3 0 -22 -16 -23 -24 -2 -4 11 -13
14 -30 10 -16 -4 -26 -1 -30 9 -3 8 0 15 7 16 9 0 9 2 0 6 -22 8 -14 40 22 83
19 23 36 46 36 51 1 5 3 14 4 19 1 6 3 14 4 19 0 5 13 12 29 16 15 4 21 10 15
12 -7 3 -13 13 -13 24 0 12 -7 19 -20 19 -11 0 -19 -3 -17 -7 1 -5 -2 -9 -7
-10 -5 -1 -12 -7 -16 -13 -12 -19 -77 -17 -149 6 -10 3 -11 7 -1 19 6 8 9 19
5 25 -4 7 2 9 19 4 20 -5 27 -2 33 14 5 12 10 21 13 20 3 0 17 6 32 13 22 9
30 9 43 -1 10 -8 15 -9 15 -1 0 21 20 11 30 -14 21 -57 41 -12 46 105 3 73 7
98 25 170 14 54 33 64 62 32z m6209 -139 c35 -37 48 -45 48 -28 0 22 18 19 25
-5 9 -28 -4 -63 -21 -56 -8 3 -14 0 -14 -7 0 -13 -54 -37 -84 -37 -9 0 -28 -7
-41 -16 -14 -9 -42 -16 -62 -16 -21 0 -55 -8 -77 -19 -28 -13 -50 -17 -82 -12
-39 5 -46 10 -69 51 -31 55 -26 76 26 103 43 21 53 23 174 17 71 -3 82 -1 105
19 30 27 50 29 72 6z m-3040 -16 c11 -18 2 -24 -46 -30 -57 -8 -123 -44 -181
-98 -26 -24 -52 -46 -58 -48 -6 -2 -25 -17 -42 -33 -58 -55 -135 -58 -154 -6
-11 31 -4 45 25 52 13 4 34 16 45 27 22 22 105 69 122 69 5 0 35 17 66 37 59
39 119 55 181 46 19 -3 38 -10 42 -16z m2113 -2 c30 -29 34 -80 8 -93 -28 -15
-112 -8 -130 10 -24 24 -21 60 6 86 33 30 84 29 116 -3z m-5698 -237 c6 -15
12 -18 17 -10 4 7 2 12 -3 12 -6 0 -11 5 -11 10 0 14 42 12 62 -3 15 -12 14
-15 -14 -38 -46 -36 -87 -81 -85 -93 1 -6 -6 -10 -15 -8 -9 1 -19 -6 -23 -17
-3 -11 -14 -22 -23 -24 -9 -2 -5 -4 10 -3 21 2 29 -5 42 -31 31 -66 17 -113
-35 -113 -31 0 -44 -13 -35 -37 5 -12 9 -14 18 -5 17 17 38 15 38 -4 0 -9 -6
-14 -13 -11 -8 3 -20 1 -28 -4 -11 -7 -11 -9 4 -9 18 0 20 -4 11 -37 -3 -12
-17 -24 -31 -28 -16 -4 -23 -11 -20 -20 9 -21 -27 -55 -57 -55 -21 0 -26 -5
-26 -25 0 -26 -14 -34 -24 -12 -3 6 -3 2 0 -10 4 -19 1 -23 -20 -23 -14 0 -26
-4 -26 -10 0 -5 5 -10 11 -10 7 0 9 -10 4 -27 -9 -38 -14 -41 -31 -19 -18 26
-27 15 -15 -17 8 -20 7 -30 -5 -42 -14 -13 -13 -15 5 -15 12 0 21 -6 21 -15 0
-8 -3 -14 -7 -14 -5 1 -17 1 -28 0 -19 -2 -19 -2 -2 -15 9 -7 17 -25 17 -40 0
-22 -4 -26 -31 -26 -22 0 -32 5 -36 20 -3 11 -12 20 -20 20 -24 0 -81 30 -87
47 -3 8 1 21 9 29 8 9 16 20 16 25 3 18 6 24 25 56 10 18 24 33 30 33 7 0 15
20 18 44 4 24 22 69 41 101 19 32 35 63 35 69 0 6 11 28 25 48 14 20 25 42 25
47 0 6 4 11 10 11 5 0 7 7 4 15 -4 8 -1 15 5 15 6 0 11 5 11 12 0 9 -3 9 -11
1 -9 -9 -16 -9 -30 0 -14 9 -21 9 -31 -1 -6 -6 -28 -12 -47 -12 -20 -1 -54 -7
-76 -15 -53 -20 -68 -19 -99 6 -25 20 -36 59 -16 59 6 0 10 6 10 13 0 26 122
86 176 87 11 0 24 4 30 9 5 6 45 17 89 26 91 19 145 41 145 60 0 8 9 17 20 20
11 3 20 10 20 13 0 4 11 9 24 10 15 1 26 -6 33 -20z m2106 -80 c182 -194 198
-222 149 -257 -38 -26 -52 -26 -87 1 -52 41 -205 228 -205 251 0 35 28 67 58
67 20 0 42 -16 85 -62z m-239 -74 c19 -7 184 -206 203 -245 11 -21 11 -32 2
-53 -24 -52 -92 -47 -136 10 -15 20 -58 74 -95 121 -83 105 -88 143 -22 163
16 4 30 9 31 9 1 1 9 -2 17 -5z m4966 -62 c90 -48 133 -70 173 -87 20 -9 45
-28 54 -43 10 -15 25 -32 33 -39 8 -6 12 -15 8 -19 -12 -11 -117 -14 -123 -3
-4 5 -10 7 -15 4 -5 -3 -29 5 -52 18 -24 13 -48 22 -55 20 -6 -2 -14 1 -18 6
-3 6 -13 11 -22 11 -8 0 -32 12 -52 28 -20 15 -45 32 -56 38 -14 8 -20 21 -18
43 3 79 28 104 68 70 11 -9 45 -30 75 -47z m-7502 -58 c12 -4 22 -13 22 -20 0
-8 4 -14 9 -14 16 0 1 -34 -33 -75 -31 -36 -37 -39 -85 -39 -46 -1 -54 2 -68
26 -14 22 -15 31 -4 50 25 46 38 57 75 61 20 2 40 7 43 11 8 7 12 7 41 0z
m2308 -58 c11 -8 33 -34 50 -58 16 -24 50 -72 77 -106 26 -35 53 -83 59 -106
10 -37 14 -42 35 -38 30 6 29 -9 -4 -50 -81 -101 -157 -162 -248 -200 -59 -25
-98 -27 -89 -5 3 8 -14 30 -41 51 -25 21 -57 60 -71 87 -14 28 -43 79 -64 115
-40 64 -52 121 -27 129 6 2 29 6 50 10 34 5 37 9 37 39 0 19 9 45 21 60 18 23
27 27 58 22 27 -4 42 -1 59 13 12 11 22 24 22 29 0 10 18 18 45 21 6 0 20 -5
31 -13z m5082 -15 c32 -16 64 -36 71 -45 8 -9 25 -16 40 -16 66 -1 263 -103
296 -153 13 -20 13 -29 4 -50 -18 -40 -55 -42 -141 -9 -90 35 -139 70 -179
129 -27 39 -34 43 -70 43 -63 0 -96 22 -104 71 -5 30 -3 44 6 50 18 11 12 13
77 -20z m-2287 -72 c9 -4 43 -6 75 -4 36 3 78 -1 109 -10 28 -8 97 -24 153
-35 124 -25 170 -40 199 -65 12 -10 46 -25 75 -32 37 -9 63 -24 85 -47 30 -33
31 -37 38 -156 l8 -122 33 -14 c18 -8 102 -28 186 -44 289 -58 376 -89 410
-147 25 -41 11 -56 -61 -61 -57 -4 -192 19 -366 64 -33 9 -124 29 -203 45 -79
16 -148 31 -153 35 -5 3 -44 14 -87 24 -42 10 -99 28 -126 39 l-48 21 -33 -20
c-42 -26 -55 -42 -61 -77 -11 -66 -36 -134 -58 -160 -19 -22 -31 -27 -65 -26
-33 2 -48 9 -73 35 -53 57 -60 73 -61 150 -2 64 1 76 21 96 12 12 22 27 22 32
0 15 -44 31 -125 45 -44 8 -102 30 -155 57 -75 39 -85 47 -88 73 -2 23 7 39
38 72 23 24 39 47 36 52 -3 5 -26 14 -51 20 -46 12 -85 41 -85 64 0 6 8 25 18
41 14 24 31 32 102 51 70 19 102 22 180 17 52 -2 102 -8 111 -13z m-3249 -266
c8 -10 47 -75 86 -144 74 -131 86 -173 56 -203 -23 -24 -77 -20 -101 7 -29 30
-153 270 -153 294 0 48 82 81 112 46z m1080 -109 c4 -3 0 -17 -8 -32 -16 -31
-20 -67 -5 -43 5 8 16 11 26 7 10 -3 24 -1 31 5 8 6 14 7 14 2 0 -17 -31 -73
-41 -73 -5 0 -19 -17 -33 -37 -23 -37 -217 -234 -266 -271 -51 -38 -287 -152
-315 -152 -7 0 -29 -7 -48 -15 -41 -17 -97 -20 -97 -5 0 6 -7 10 -15 10 -46 0
16 70 304 344 23 21 41 44 41 50 0 62 47 129 112 159 45 21 75 21 123 1 37
-15 38 -15 69 14 29 28 50 38 87 41 9 0 18 -2 21 -5z m-1175 -169 c82 -158 88
-190 39 -214 -57 -27 -74 -10 -153 147 -64 126 -71 145 -61 167 7 16 19 25 35
25 12 0 23 5 23 11 0 6 10 9 23 7 17 -2 37 -32 94 -143z m5357 70 c8 -19 19
-35 24 -35 20 0 62 -47 68 -76 7 -39 -10 -74 -37 -74 -31 0 -102 60 -126 107
-12 24 -18 43 -12 43 6 0 8 9 4 19 -4 14 0 21 15 26 11 3 20 11 20 16 0 23 31
5 44 -26z m-9044 -46 c0 -10 32 -8 114 8 20 3 26 2 22 -6 -4 -6 -12 -8 -18 -5
-7 5 -9 -4 -5 -27 8 -42 3 -51 -47 -78 -43 -25 -66 -22 -66 9 0 11 -5 20 -11
20 -6 0 -9 9 -6 20 3 13 0 20 -9 20 -8 0 -14 4 -14 10 0 5 7 7 15 4 10 -4 15
0 15 11 0 16 -10 14 -40 -10 -8 -7 -24 -15 -35 -19 -16 -5 -15 -3 5 14 41 34
80 48 80 29z m309 0 c37 -13 39 -32 10 -88 -22 -43 -39 -54 -74 -45 -32 8 -47
45 -33 86 20 61 36 68 97 47z m253 -56 c52 -46 -26 -175 -79 -131 -14 11 -17
11 -21 -2 -3 -9 -10 -2 -17 20 -29 85 56 168 117 113z m242 -85 c33 -46 6
-117 -51 -139 -19 -7 -23 -12 -14 -23 6 -7 8 -16 4 -19 -3 -4 1 -7 10 -7 8 0
18 -9 22 -19 6 -21 38 -36 55 -26 5 3 19 1 31 -5 15 -9 18 -15 10 -23 -16 -16
-14 -37 4 -37 8 0 15 -4 15 -10 0 -16 -19 -12 -41 9 -11 10 -41 21 -67 25 -26
3 -66 16 -89 29 -109 58 -163 93 -163 104 0 7 -8 16 -17 22 -13 7 -15 13 -7
21 15 15 41 3 49 -23 l6 -22 9 22 c7 17 15 20 39 17 28 -5 30 -2 37 31 10 55
54 95 103 95 30 0 44 -6 55 -22z m6994 -81 c30 -28 29 -71 -4 -104 -21 -21
-32 -24 -62 -19 -90 14 -98 112 -12 144 30 11 47 6 78 -21z m-6790 -40 c6 -5
12 -26 12 -47 0 -30 -6 -44 -31 -64 -17 -14 -39 -26 -50 -26 -27 0 -69 47 -62
68 27 73 86 104 131 69z m6533 -53 c18 -16 18 -18 -4 -46 -12 -16 -38 -47 -57
-68 -33 -37 -38 -39 -100 -42 -36 -1 -72 -5 -80 -9 -67 -30 -90 -37 -90 -29 0
5 7 15 15 22 9 7 21 18 28 24 7 6 24 11 37 10 20 -1 25 5 32 41 6 28 15 44 28
48 11 4 20 11 20 16 0 5 9 9 20 9 12 0 34 7 51 16 16 8 39 12 49 9 12 -4 20
-2 20 4 0 15 11 14 31 -5z m384 -110 c9 -14 24 -33 33 -42 9 -10 27 -30 40
-47 18 -23 30 -29 54 -27 20 2 45 -7 72 -25 54 -36 56 -40 56 -94 0 -42 -4
-50 -48 -92 -58 -54 -109 -87 -138 -87 -11 0 -31 12 -43 26 -22 26 -24 49 -6
96 5 12 -1 18 -24 23 -39 8 -71 53 -79 108 -3 23 -16 55 -28 70 -32 38 -30 50
13 86 46 38 75 39 98 5z m-3070 -21 c4 -13 -3 -26 -27 -46 -18 -16 -52 -46
-75 -67 -43 -40 -97 -58 -121 -42 -11 8 -11 17 -2 50 24 78 84 121 171 122 36
0 48 -4 54 -17z m239 -23 c31 0 42 -20 26 -49 -14 -27 3 -27 22 0 12 19 15 19
26 6 10 -12 10 -18 -1 -29 -16 -15 -3 -33 23 -33 10 0 16 -12 18 -32 2 -20 9
-33 17 -33 7 0 15 -10 17 -22 2 -15 10 -23 23 -23 24 0 27 -31 5 -59 -14 -18
-13 -19 2 -13 10 3 20 2 24 -4 3 -5 14 -7 25 -4 15 5 19 1 19 -14 0 -12 4 -21
10 -21 5 0 9 -10 7 -22 -1 -17 4 -24 20 -26 15 -2 24 -13 30 -40 6 -22 15 -36
23 -34 9 2 11 -8 6 -41 -5 -33 -3 -47 9 -57 8 -7 15 -21 15 -31 0 -12 10 -21
25 -25 14 -3 25 -12 25 -20 0 -8 4 -14 9 -14 5 0 11 -11 13 -25 4 -18 2 -22
-6 -16 -6 5 -55 8 -108 7 -54 -1 -98 2 -98 6 0 5 -19 18 -42 29 -24 11 -67 34
-97 50 -30 16 -68 29 -85 29 -17 0 -44 7 -61 16 -22 13 -55 16 -125 16 -111
-2 -189 -18 -211 -45 -12 -15 -23 -18 -47 -13 -38 9 -52 25 -57 67 -4 31 -22
52 -36 43 -4 -2 -5 5 -2 17 5 19 3 21 -26 14 -24 -5 -31 -3 -31 9 0 9 7 16 16
16 12 0 14 7 9 30 -5 24 -1 38 20 65 14 19 34 35 43 35 9 0 30 7 45 15 24 12
29 12 33 0 4 -8 10 -12 16 -9 5 4 5 11 -2 19 -7 9 -6 16 5 25 8 7 15 16 15 21
0 5 21 28 47 51 26 24 58 53 71 66 12 12 29 22 37 22 8 0 15 7 15 16 0 10 6
14 14 11 8 -3 45 16 83 44 67 50 68 50 84 30 10 -12 29 -21 43 -21z m2214
-119 c9 -6 30 -13 46 -16 22 -5 27 -10 23 -25 -8 -32 3 -27 71 30 9 8 12 6 12
-7 0 -10 -19 -35 -42 -55 -40 -35 -43 -37 -48 -17 -5 19 -7 18 -35 -11 -30
-32 -150 -120 -163 -120 -4 0 -24 -16 -45 -35 -45 -41 -84 -48 -72 -12 4 12 8
36 7 53 0 32 46 89 150 182 49 43 66 49 96 33z m-6918 -39 c0 -5 16 -7 37 -5
48 3 184 -37 211 -64 7 -7 20 -13 29 -13 9 0 13 -6 10 -14 -4 -10 -1 -13 7
-10 15 6 86 -33 86 -47 0 -5 11 -14 25 -19 24 -9 29 -19 26 -47 -1 -7 7 -13
17 -13 10 0 24 -11 30 -25 14 -31 -4 -35 -34 -7 -11 10 -26 16 -33 14 -8 -3
-18 3 -23 12 -5 9 -13 16 -19 16 -5 0 -28 14 -51 30 -22 17 -47 30 -53 30 -7
0 -18 7 -25 15 -7 9 -18 14 -24 12 -6 -2 -38 10 -71 27 -33 18 -81 40 -106 49
-26 10 -55 27 -65 39 -11 12 -13 18 -6 14 6 -4 12 -2 12 3 0 6 5 11 10 11 6 0
10 -4 10 -8z m8381 -159 c24 -14 29 -24 29 -55 0 -28 -5 -40 -21 -48 -11 -7
-29 -20 -40 -31 -13 -13 -33 -19 -63 -19 -42 0 -46 -3 -67 -40 -27 -48 -46
-56 -94 -36 -33 14 -36 14 -41 -2 -25 -77 -32 -84 -125 -121 -30 -12 -77 -37
-104 -56 -27 -19 -54 -35 -61 -35 -6 0 -14 -7 -18 -15 -3 -8 -13 -15 -22 -15
-16 0 -49 -36 -70 -75 -8 -15 -18 -19 -44 -17 -44 3 -58 16 -86 77 -38 80 -33
107 26 154 28 22 60 43 73 46 22 7 135 49 172 65 11 4 27 11 35 14 8 4 35 17
59 31 47 26 108 33 142 15 16 -9 19 -7 19 9 0 25 44 78 73 87 12 3 38 21 57
39 50 48 119 59 171 28z m-6271 -3 c33 10 40 5 40 -26 0 -15 -5 -22 -13 -18
-16 6 -39 -39 -31 -60 3 -9 -5 -19 -23 -28 -19 -9 -28 -21 -28 -37 0 -14 -7
-27 -15 -29 -8 -3 -20 -11 -25 -19 -9 -12 -14 -11 -30 5 -11 10 -27 21 -35 24
-10 3 -17 20 -18 42 -3 42 47 126 76 126 9 0 28 6 42 13 14 7 26 10 28 6 2 -4
16 -4 32 1z m812 -100 c-6 -51 -13 -70 -26 -70 -7 0 -19 -6 -25 -14 -7 -8 -35
-17 -64 -21 -29 -4 -64 -14 -79 -21 -16 -8 -28 -11 -28 -7 0 4 -7 -3 -16 -15
-16 -23 -34 -29 -34 -12 0 6 7 10 15 10 8 0 15 6 15 13 0 8 12 20 28 28 15 8
31 20 35 26 4 7 14 13 22 13 7 0 15 4 17 9 2 5 26 27 53 49 57 47 92 51 87 12z
m-3541 -126 c61 -31 55 -99 -11 -129 -52 -23 -91 -11 -104 33 -15 53 21 109
72 111 7 1 27 -6 43 -15z m2595 -9 c7 -5 10 -13 8 -16 -2 -4 6 -9 17 -12 15
-4 20 -11 15 -22 -3 -9 -6 -23 -6 -31 0 -10 -7 -13 -25 -8 -30 7 -40 -11 -26
-48 8 -22 5 -30 -20 -54 -18 -17 -29 -38 -29 -55 0 -38 -15 -44 -34 -13 -14
21 -15 31 -6 59 13 41 4 105 -16 105 -29 0 -13 17 17 18 39 1 44 6 25 25 -21
20 -11 44 22 55 32 11 42 11 58 -3z m-2259 -214 c24 -30 27 -61 7 -76 -11 -8
-26 -15 -34 -15 -25 -1 -51 -26 -44 -44 3 -9 11 -16 16 -16 6 0 23 -11 40 -25
16 -14 25 -25 19 -25 -19 0 -12 -35 11 -59 14 -16 21 -35 20 -58 -1 -33 0 -35
24 -29 23 6 25 5 18 -16 -3 -13 -11 -24 -15 -26 -15 -6 -10 -22 6 -22 8 0 15
-4 15 -10 0 -17 -16 -11 -51 20 -19 16 -30 30 -25 30 14 0 -153 80 -167 80 -7
0 -23 10 -37 21 l-25 21 43 -5 c41 -5 42 -4 42 24 0 20 -5 29 -16 29 -8 0 -12
5 -9 10 9 15 -1 12 -37 -10 -18 -11 -42 -20 -52 -20 -21 0 -95 46 -109 67 -13
21 -27 15 -38 -17 -6 -16 -19 -32 -30 -35 -10 -4 -24 -15 -29 -26 -16 -30 -58
-25 -66 8 -6 21 -2 31 20 50 15 13 31 21 36 18 11 -7 70 22 70 34 0 4 19 26
41 49 l42 41 74 -6 c73 -5 76 -4 106 25 46 44 106 50 134 13z m5735 5 c8 -7
30 -16 50 -20 43 -8 69 -32 41 -39 -15 -3 -14 -6 7 -14 17 -7 29 -7 37 -1 14
11 83 2 83 -10 0 -4 17 -15 38 -24 20 -9 46 -23 57 -32 20 -15 19 -15 -7 -16
-21 0 -31 -8 -42 -32 -8 -18 -16 -42 -18 -53 -2 -11 -9 -20 -16 -19 -6 1 -28
2 -47 3 -24 1 -35 6 -35 16 0 25 -17 17 -30 -15 -7 -16 -16 -30 -21 -30 -20 0
-20 47 2 112 20 56 21 70 10 77 -9 6 -24 -3 -48 -30 -39 -44 -48 -46 -75 -22
-17 15 -20 15 -43 -7 -22 -21 -25 -22 -31 -5 -4 9 0 41 10 69 21 68 20 76 -4
76 -11 0 -20 6 -20 14 0 18 85 20 102 2z m940 -132 c38 -64 57 -103 62 -127 7
-38 34 -85 66 -115 35 -32 46 -70 28 -95 -12 -16 -15 -16 -54 3 -23 11 -66 44
-97 73 -30 29 -67 60 -81 70 -23 16 -26 25 -26 75 0 32 -5 63 -11 69 -9 9 -7
16 5 29 10 9 22 27 26 40 8 19 13 21 36 15 16 -4 36 -20 46 -37z m2999 -62
c13 -25 15 -42 8 -79 -13 -70 -15 -73 -49 -73 -26 0 -33 6 -46 36 -14 32 -13
40 2 81 31 80 57 91 85 35z m-3542 -11 c13 -9 31 -21 40 -26 43 -27 76 -50 81
-56 3 -3 37 -27 75 -52 95 -63 158 -110 320 -237 32 -25 67 -50 77 -56 30 -18
41 -32 45 -54 4 -29 -5 -25 -67 25 -30 25 -71 57 -90 73 -20 15 -91 72 -158
127 -156 127 -178 141 -226 148 -32 5 -39 3 -43 -13 -3 -11 -10 -20 -16 -20
-6 0 -21 -9 -33 -21 -17 -16 -29 -19 -53 -14 -17 4 -35 13 -39 21 -7 13 -10
13 -21 0 -7 -9 -11 -22 -8 -30 7 -18 -17 -28 -32 -13 -16 16 -14 39 15 115 41
112 68 128 133 83z m171 -156 c19 -14 36 -28 39 -33 8 -10 148 -124 221 -178
58 -44 68 -53 195 -167 128 -115 145 -135 145 -169 0 -16 -4 -28 -9 -26 -8 3
-245 213 -316 281 -69 66 -162 135 -196 146 -34 11 -40 10 -82 -19 -25 -16
-49 -30 -53 -30 -5 0 -20 12 -33 26 -29 30 -44 27 -51 -12 -4 -21 -12 -30 -28
-32 -22 -3 -23 -1 -16 35 4 21 10 40 14 43 4 3 23 40 41 83 31 72 35 77 64 77
17 0 46 -11 65 -25z m-7750 -70 c7 -8 32 -25 56 -36 24 -12 56 -38 71 -56 16
-19 36 -43 46 -54 13 -15 16 -29 11 -59 -4 -27 -3 -40 5 -40 6 0 11 -7 11 -15
0 -8 -7 -15 -15 -15 -8 0 -15 6 -15 14 0 7 -11 21 -25 30 -14 9 -25 12 -25 6
0 -5 -4 -10 -10 -10 -5 0 -10 7 -10 15 0 8 -5 15 -11 15 -6 0 -9 6 -7 12 3 7
-14 25 -36 40 -76 50 -79 54 -83 113 -3 43 -1 55 10 55 8 0 20 -7 27 -15z
m1095 -166 c50 -22 105 -73 105 -98 0 -31 -141 14 -193 63 -15 14 -32 26 -38
26 -5 0 -9 4 -9 9 0 6 19 12 43 14 23 2 43 4 43 5 1 1 23 -8 49 -19z m3020
-179 c21 8 23 6 22 -18 -2 -25 1 -27 36 -27 32 0 41 -5 60 -34 19 -31 19 -34
3 -28 -17 7 -46 -12 -46 -31 0 -12 32 -12 47 0 18 14 31 2 54 -48 13 -27 19
-55 16 -72 -4 -18 1 -34 13 -47 17 -19 31 -107 33 -207 1 -21 5 -38 9 -38 4 0
8 5 8 11 0 6 6 9 14 6 7 -3 18 -1 24 5 6 6 20 4 40 -6 17 -9 37 -16 45 -16 30
0 117 -32 112 -41 -4 -5 -11 -7 -16 -4 -5 4 -9 1 -9 -5 0 -7 -7 -10 -15 -6 -8
3 -15 1 -15 -4 0 -6 5 -10 11 -10 5 0 8 -4 5 -9 -6 -10 -38 -1 -110 28 -38 15
-84 16 -98 3 -9 -10 -28 -211 -21 -229 4 -10 13 -13 31 -8 13 3 48 -1 76 -11
136 -44 151 -51 151 -69 0 -10 6 -20 13 -22 6 -3 12 0 12 6 0 16 48 13 96 -5
40 -15 41 -17 40 -60 -1 -48 -4 -50 -44 -30 -15 7 -72 28 -127 46 -55 18 -129
43 -165 54 -99 33 -108 31 -131 -34 -11 -30 -24 -73 -29 -95 -5 -22 -11 -47
-15 -56 -4 -10 6 -21 32 -34 21 -11 43 -20 48 -20 6 0 26 -8 45 -16 19 -9 64
-29 100 -44 36 -15 76 -33 90 -40 14 -7 27 -13 30 -14 3 0 22 -7 42 -15 21 -9
43 -16 50 -17 10 0 10 -2 1 -6 -7 -2 -13 -13 -13 -23 0 -14 11 -7 45 28 47 50
65 39 21 -13 -13 -15 -22 -35 -19 -45 4 -13 -2 -17 -26 -18 -22 0 -31 4 -31
15 0 12 -3 13 -14 4 -11 -9 -16 -9 -23 1 -4 7 -19 13 -33 13 -20 0 -26 6 -30
29 -6 36 -26 45 -35 16 -4 -12 -10 -20 -13 -18 -4 2 -44 19 -90 38 -76 32 -83
36 -77 58 4 15 2 21 -5 17 -5 -3 -10 -13 -10 -21 0 -24 -17 -15 -24 12 -5 20
-10 24 -19 15 -13 -13 -31 -15 -22 -2 3 5 -7 22 -21 36 l-27 27 6 -31 c5 -23
3 -31 -7 -31 -8 0 -37 -46 -66 -102 -28 -57 -57 -107 -64 -113 -7 -5 -18 -20
-24 -32 -10 -18 -9 -22 6 -26 13 -4 12 -5 -5 -6 -12 0 -23 -6 -25 -11 -3 -11
-48 -61 -167 -190 -53 -56 -67 -67 -82 -59 -25 13 -27 12 -31 -13 -3 -24 -38
-34 -51 -15 -5 7 -6 3 -2 -10 5 -18 2 -23 -12 -24 -10 0 -13 -3 -5 -6 6 -2 12
-9 12 -15 0 -6 -7 -7 -16 -4 -10 4 -14 1 -11 -6 2 -7 -8 -18 -22 -24 -27 -12
-52 -5 -79 23 -11 11 -7 13 27 13 39 0 53 11 30 26 -10 6 4 17 49 40 13 6 69
62 190 187 23 25 42 49 42 53 0 5 21 41 46 79 45 68 136 243 164 315 7 19 21
44 30 55 10 11 20 47 24 80 4 33 15 76 26 96 25 49 40 105 30 116 -5 4 -4 28
1 53 5 25 12 113 15 195 4 138 3 158 -19 240 -14 50 -31 101 -39 115 -19 34
-63 100 -87 130 -11 14 -20 34 -20 45 0 11 3 15 5 8 4 -8 13 -9 29 -3z m-3106
-34 c25 -22 27 -58 6 -76 -8 -7 -15 -17 -15 -22 0 -23 -41 -51 -82 -55 -54 -6
-174 46 -190 83 -6 13 -9 26 -7 29 3 2 34 18 69 34 55 26 75 30 132 28 48 -2
72 -8 87 -21z m9143 -54 c4 -4 14 -34 23 -67 14 -57 14 -60 -5 -80 -17 -16
-22 -17 -29 -6 -5 8 -16 11 -24 8 -18 -7 -36 14 -60 66 -21 46 -21 47 -2 47 8
0 15 5 15 10 0 31 58 46 82 22z m-4548 -14 c33 -22 34 -23 19 -51 -8 -16 -17
-41 -19 -56 -3 -14 -14 -39 -26 -55 -14 -20 -18 -31 -10 -34 7 -2 12 -8 12
-13 0 -6 -5 -7 -11 -4 -6 4 -13 -3 -16 -15 -3 -13 -11 -19 -19 -16 -8 3 -14
-1 -14 -9 0 -19 -5 -19 -30 2 -27 23 -25 47 5 67 14 9 23 21 19 27 -5 9 44
179 53 179 2 0 19 -10 37 -22z m407 -215 c31 -19 39 -50 14 -59 -19 -8 -19
-24 0 -24 9 0 12 -6 9 -15 -4 -11 0 -15 16 -15 20 0 20 -1 5 -16 -8 -9 -22
-13 -30 -10 -10 3 -20 -5 -31 -25 -15 -30 -15 -31 8 -28 26 4 48 -7 48 -22 0
-13 -52 -3 -96 19 -67 32 -71 120 -9 188 25 27 30 28 66 7z m168 -45 c5 -13 7
-26 4 -30 -2 -5 3 -8 11 -8 10 0 16 -9 16 -23 0 -13 9 -26 23 -32 15 -7 21
-18 20 -33 -2 -13 2 -32 7 -43 8 -13 7 -19 0 -19 -6 0 -8 -5 -4 -11 4 -7 8
-26 10 -43 7 -80 25 -179 35 -192 27 -34 14 -414 -21 -597 -34 -182 -46 -233
-64 -255 -5 -8 -11 -21 -12 -30 -7 -45 -28 -112 -36 -112 -4 0 -8 -11 -8 -25
0 -14 -4 -25 -10 -25 -5 0 -10 -9 -10 -20 0 -24 -21 -70 -32 -70 -4 0 -8 -5
-8 -10 0 -6 -9 -20 -20 -32 -11 -12 -32 -40 -47 -62 -31 -46 -42 -56 -62 -56
-11 0 -11 3 -1 15 6 8 9 23 6 33 -6 17 5 52 34 117 8 18 24 71 93 305 29 96
68 260 73 305 2 17 11 73 19 125 18 103 19 117 17 200 -1 30 0 79 1 108 2 30
0 81 -4 115 -16 128 -22 193 -22 215 1 12 -5 22 -13 22 -17 0 -18 42 -1 59 10
10 7 16 -13 31 -22 17 -23 22 -12 39 16 27 16 28 -9 34 -25 7 -16 27 12 27 11
0 23 -10 28 -22z m-2875 -150 c-80 -162 -134 -282 -134 -300 0 -7 -6 -30 -14
-53 -38 -104 -84 -311 -87 -382 l-1 -28 -8 25 c-10 35 -19 10 -22 -64 -3 -63
-12 -74 -42 -51 -16 12 -17 18 -6 47 7 18 16 53 19 78 5 39 9 45 29 44 12 0
22 4 22 10 0 10 8 57 27 176 22 136 208 570 244 570 5 0 -7 -33 -27 -72z
m2020 52 c15 -15 26 -12 20 5 -9 21 10 19 31 -5 18 -19 17 -20 -6 -21 -17 -1
-19 -3 -6 -6 19 -5 22 -19 6 -29 -7 -4 -16 1 -21 10 -11 20 -28 21 -28 0 0
-11 -6 -13 -19 -9 -13 4 -23 0 -30 -12 -9 -15 -10 -12 -5 12 5 22 3 27 -4 20
-6 -6 -13 -19 -15 -30 -1 -11 -6 -26 -10 -32 -6 -9 -2 -13 11 -13 10 0 25 11
32 25 12 22 15 23 23 10 5 -9 6 -23 3 -31 -3 -8 -1 -14 4 -14 5 0 10 10 12 21
2 16 11 23 36 25 21 3 32 -1 32 -9 0 -8 3 -8 9 2 14 21 43 5 39 -21 -2 -16 2
-22 12 -21 9 2 24 -11 34 -29 19 -32 11 -32 -28 1 -18 15 -19 15 -13 -7 3 -13
3 -29 1 -36 -7 -18 -94 -9 -125 14 -28 20 -37 17 -57 -17 -14 -26 -10 -28 20
-12 16 9 23 8 29 -2 6 -10 9 -11 9 -1 0 6 5 12 11 12 6 0 8 -7 5 -16 -3 -8 3
-25 14 -36 11 -12 20 -17 20 -11 0 7 -7 18 -15 26 -8 8 -11 17 -8 21 11 11 23
6 23 -9 0 -8 9 -15 20 -15 11 0 20 -4 20 -10 0 -5 14 -22 30 -37 33 -29 24
-48 -17 -32 -12 4 -29 6 -37 3 -11 -4 -13 0 -9 15 3 12 1 21 -6 21 -6 0 -11
-14 -11 -31 0 -24 4 -30 15 -25 8 3 15 0 15 -7 0 -8 3 -9 8 -1 12 19 44 13 39
-8 -3 -10 -1 -18 3 -18 5 0 12 -16 16 -35 3 -19 12 -35 19 -35 7 0 21 -12 31
-27 l19 -28 5 34 c5 33 6 34 22 18 16 -16 17 -16 23 3 10 32 -4 80 -23 79 -11
0 -12 -2 -4 -6 6 -2 12 -18 12 -34 0 -19 -4 -28 -11 -24 -6 4 -8 14 -5 22 4
11 2 13 -9 9 -11 -4 -15 1 -15 17 0 23 -17 47 -33 47 -5 0 -7 -7 -3 -15 3 -8
1 -15 -4 -15 -17 0 -20 18 -4 31 12 10 20 10 35 1 16 -10 19 -9 19 3 0 19 17
19 36 0 22 -22 40 -19 21 3 -10 10 -17 24 -17 31 0 8 -8 11 -20 8 -12 -3 -29
4 -46 20 -14 13 -32 22 -38 20 -7 -3 -13 4 -13 14 -2 28 17 23 55 -12 37 -35
53 -32 28 5 -19 29 -13 35 34 32 22 -2 39 3 46 12 9 13 15 11 37 -8 28 -24 34
-40 17 -40 -5 0 -10 7 -10 16 0 13 -3 14 -15 4 -8 -6 -20 -8 -27 -4 -7 4 -5
-2 5 -13 9 -11 17 -25 17 -31 0 -6 10 -13 23 -15 21 -4 21 -5 2 -11 -27 -9
-50 -57 -33 -67 16 -10 48 18 48 42 0 13 5 16 17 12 12 -5 15 -2 10 10 -9 24
8 21 32 -5 21 -22 20 -65 -2 -79 -5 -4 -9 -18 -9 -32 0 -29 -41 -73 -57 -62
-6 3 -11 15 -11 26 0 11 -4 18 -9 15 -10 -7 -3 -44 12 -64 7 -9 13 -9 23 -1 8
6 14 7 14 2 0 -5 -13 -19 -29 -31 -28 -20 -29 -24 -25 -84 2 -35 4 -65 5 -68
5 -18 -5 -57 -17 -66 -17 -14 -15 -64 3 -64 14 0 19 -20 6 -20 -5 0 -16 -12
-26 -26 -15 -20 -16 -28 -6 -40 11 -13 9 -14 -14 -9 -22 6 -26 4 -21 -9 3 -9
11 -16 16 -16 6 0 3 -11 -6 -25 -17 -26 -9 -34 12 -13 8 8 12 8 12 1 0 -6 -7
-16 -15 -23 -8 -7 -18 -34 -21 -61 -6 -47 -16 -60 -29 -39 -4 6 -10 8 -14 6
-4 -3 -13 0 -21 5 -13 8 -13 10 0 19 8 5 11 10 5 11 -5 1 -28 3 -50 5 -22 2
-41 8 -43 13 -2 6 -20 13 -40 17 -20 4 -40 12 -44 18 -5 8 -8 7 -8 -1 0 -21
-18 -15 -25 8 -4 12 -12 18 -21 15 -16 -6 -45 8 -78 37 -11 9 -31 16 -45 15
-15 -2 -25 2 -24 7 0 6 -20 21 -45 34 -26 12 -41 17 -34 10 18 -19 15 -33 -4
-14 -10 10 -13 20 -7 28 5 7 10 25 11 41 1 17 7 33 13 37 8 5 8 8 0 13 -15 10
-14 26 2 26 9 0 13 11 12 33 -2 17 2 40 7 50 6 12 5 23 -3 33 -10 12 -9 13 6
8 17 -7 17 -6 0 19 -16 24 -16 27 -1 27 10 0 16 9 16 25 0 14 5 25 10 25 6 0
5 8 -2 21 -11 17 -10 22 7 35 20 15 20 15 -5 34 -25 20 -25 20 -2 20 27 0 28
8 5 26 -17 13 -17 13 2 14 12 0 16 3 9 8 -19 13 -25 42 -8 42 8 0 17 -7 20
-15 7 -17 34 -21 34 -5 0 6 -7 10 -16 10 -11 0 -14 6 -9 20 4 11 3 20 -2 19
-27 -5 -32 2 -16 21 11 13 19 16 24 9 3 -6 16 -8 27 -5 11 4 23 2 27 -4 3 -5
-1 -10 -9 -10 -9 0 -16 -4 -16 -10 0 -13 2 -13 36 5 17 9 22 15 13 15 -9 0
-23 7 -30 16 -11 14 -10 16 6 14 11 -1 36 -1 55 0 l35 2 -40 10 c-80 18 -95
20 -95 11 0 -5 5 -14 12 -21 8 -8 9 -12 1 -12 -6 0 -18 6 -26 14 -9 9 -19 11
-28 5 -21 -13 -32 -11 -26 5 3 8 -1 22 -8 33 -19 24 -20 50 -2 35 10 -8 16 -6
26 10 11 17 10 22 -1 29 -11 7 -40 13 -59 11 -3 0 -10 8 -17 19 -11 16 -9 19
9 19 11 0 17 5 14 10 -3 6 3 10 14 10 12 0 21 6 21 13 0 7 20 18 45 25 25 7
45 16 45 22 0 13 119 5 134 -10z m-1184 -55 c-15 -18 0 -20 19 -2 11 10 12
-14 8 -138 -6 -204 -35 -319 -127 -506 -63 -128 -72 -144 -99 -173 -11 -12
-21 -26 -21 -30 0 -10 -19 -29 -53 -51 l-28 -18 7 26 c4 18 2 27 -6 27 -6 0
-8 5 -5 10 4 6 1 17 -5 25 -10 12 -7 24 15 61 58 98 109 213 146 325 42 128
55 192 65 319 5 66 11 89 28 106 37 38 86 55 56 19z m-578 -5 c-12 -12 -22
-29 -22 -40 0 -10 -4 -22 -10 -25 -22 -13 -8 -25 30 -25 22 0 40 -3 40 -6 0
-8 -32 -66 -48 -85 -7 -9 -12 -20 -11 -25 4 -13 -33 -84 -43 -84 -4 0 -8 -12
-8 -26 0 -14 -4 -33 -10 -43 -5 -10 -21 -63 -36 -117 -23 -87 -26 -111 -21
-199 l6 -100 -23 37 c-21 35 -24 37 -42 23 -30 -23 -56 -19 -52 8 2 16 11 23
31 25 15 2 27 9 27 17 0 18 -32 27 -63 20 -24 -6 -25 -5 -22 32 3 21 7 79 9
128 6 98 19 144 73 250 58 115 133 217 179 244 31 17 39 12 16 -9z m6848 -6
c70 -25 90 -36 90 -51 0 -7 -4 -13 -9 -13 -4 0 -6 -11 -4 -24 7 -36 -10 -38
-63 -9 -42 23 -62 26 -142 27 -85 1 -92 3 -90 20 2 13 22 26 63 42 72 28 96
29 155 8z m-8401 -133 c17 -11 22 -89 8 -108 -5 -7 -21 -14 -36 -14 -18 -1
-20 -3 -8 -6 17 -4 17 -7 3 -28 -12 -18 -13 -30 -4 -59 6 -20 9 -39 5 -42 -7
-7 -158 14 -175 25 -22 13 -1 49 38 64 29 11 41 22 46 44 9 39 51 110 72 122
21 13 33 13 51 2z m302 -61 c22 -12 25 -43 5 -59 -22 -18 -35 -156 -20 -205 5
-16 2 -18 -22 -13 -92 18 -174 41 -174 50 0 26 35 86 56 96 13 6 30 25 38 43
18 40 33 58 66 81 29 20 26 20 51 7z m2198 -12 c36 -12 69 -26 73 -32 4 -6 10
-7 13 -4 4 4 19 2 34 -4 14 -6 36 -10 48 -10 12 1 25 -3 28 -8 3 -6 16 -10 29
-10 32 0 58 -22 50 -43 -3 -9 -14 -17 -24 -17 -20 0 -81 24 -93 37 -5 4 -12 8
-15 8 -4 1 -18 7 -31 14 -14 8 -47 15 -74 17 -28 3 -56 9 -63 15 -7 6 -18 8
-24 4 -15 -9 -40 13 -40 36 0 24 9 24 89 -3z m5656 -68 c14 -22 93 -54 150
-59 79 -8 84 -28 16 -61 -38 -17 -60 -21 -92 -17 -73 10 -129 68 -115 120 6
27 29 36 41 17z m-7551 -45 c20 -31 21 -55 0 -55 -11 0 -15 -8 -14 -27 4 -64
-1 -159 -10 -173 -7 -12 -18 -11 -75 9 -36 13 -69 20 -73 17 -9 -10 15 -24 68
-40 87 -26 359 -174 465 -253 6 -5 26 -17 45 -28 19 -10 50 -34 69 -52 19 -18
37 -33 42 -33 25 0 357 -305 345 -318 -8 -7 -26 8 -26 23 0 7 -8 16 -17 20
-15 5 -16 4 -5 -6 6 -7 12 -20 12 -28 0 -13 -2 -13 -14 -1 -8 8 -16 22 -18 30
-2 8 -15 23 -30 32 -16 10 -28 27 -28 38 0 11 -5 17 -12 15 -7 -3 -33 13 -58
35 -25 22 -50 40 -57 40 -6 0 -32 20 -57 45 -26 25 -50 45 -56 45 -5 0 -24 13
-42 30 -80 72 -81 72 -125 67 -36 -4 -43 -1 -49 16 -3 11 -1 23 6 27 17 10
-23 32 -43 24 -9 -3 -16 2 -19 14 -7 25 -59 18 -77 -10 -17 -27 -8 -33 27 -15
35 17 47 12 61 -26 6 -15 23 -33 38 -39 16 -7 35 -20 43 -29 30 -31 53 -39 67
-21 10 15 11 12 8 -15 -3 -27 0 -33 30 -47 19 -9 37 -21 40 -26 4 -6 11 -8 16
-5 5 3 7 0 4 -7 -3 -7 6 -18 19 -24 21 -10 23 -9 18 9 -4 17 -3 18 16 6 16
-10 18 -16 10 -27 -8 -9 -8 -16 1 -25 9 -9 14 -9 21 3 7 11 10 8 11 -15 1 -24
3 -25 6 -7 2 12 9 22 15 22 6 0 8 -10 4 -23 -4 -19 3 -31 35 -58 22 -19 49
-34 59 -35 25 -2 51 -29 44 -47 -3 -9 3 -16 15 -20 11 -3 23 -17 27 -31 3 -14
20 -41 38 -59 64 -67 132 -152 166 -208 19 -31 47 -74 61 -95 72 -108 184
-326 240 -466 22 -57 44 -113 49 -126 16 -38 11 -41 -20 -14 -21 19 -30 35
-30 58 0 19 -6 34 -15 38 -21 8 -55 -15 -55 -36 0 -10 -7 -18 -17 -18 -20 0
-11 -11 11 -14 9 -1 22 -11 30 -21 13 -18 14 -18 10 10 -4 28 -4 29 6 6 6 -13
8 -33 4 -44 -5 -16 -3 -19 10 -14 30 12 17 -19 -14 -34 -30 -14 -30 -14 -10
-31 11 -10 20 -13 20 -7 0 8 5 8 15 -1 18 -15 10 -31 -10 -23 -11 4 -15 -3
-15 -26 0 -29 14 -43 22 -22 2 5 14 3 28 -5 l25 -15 -27 4 c-18 3 -28 0 -28
-8 0 -19 28 -38 45 -31 8 3 15 1 15 -4 0 -5 -9 -12 -20 -15 -11 -3 -20 -11
-20 -16 0 -5 9 -14 20 -21 11 -7 20 -19 20 -26 0 -7 5 -10 11 -7 7 5 8 -7 4
-38 -7 -44 -6 -45 16 -40 l24 5 -22 -19 c-16 -13 -21 -25 -17 -40 4 -14 2 -23
-5 -23 -8 0 -10 -19 -6 -61 3 -38 1 -58 -5 -54 -6 3 -10 10 -10 15 0 5 -5 21
-11 37 -6 15 -10 30 -9 32 1 2 -4 8 -12 13 -10 7 -9 11 6 23 11 8 15 15 9 15
-6 0 -9 9 -6 20 3 11 12 20 19 20 8 0 14 7 14 15 0 9 -9 15 -22 15 -19 0 -20
2 -8 10 11 7 12 10 2 10 -10 0 -12 8 -7 29 6 29 -17 67 -35 56 -4 -2 -10 20
-12 51 -3 31 -11 59 -18 64 -7 4 -10 12 -6 18 3 6 -3 33 -13 60 -11 27 -17 53
-14 56 4 3 1 6 -5 6 -7 0 -12 7 -12 16 0 9 -11 27 -26 40 -26 25 -21 29 26 25
8 -1 4 5 -10 13 -14 9 -21 15 -17 16 5 0 5 6 0 13 -4 6 -6 22 -5 34 2 11 -1
24 -7 27 -6 4 -8 13 -4 21 3 8 0 15 -6 15 -6 0 -11 -8 -11 -17 -1 -10 -10 2
-22 27 -11 25 -31 58 -44 73 -13 16 -24 35 -24 43 0 9 -7 23 -16 31 -9 10 -13
25 -10 38 5 18 2 22 -12 19 -11 -3 -24 8 -38 30 -19 30 -20 36 -7 49 18 18 9
39 -12 30 -9 -3 -22 0 -29 6 -10 8 -16 9 -21 1 -3 -5 -18 -10 -33 -10 -22 0
-24 -2 -12 -11 11 -8 2 -9 -33 -4 -42 6 -50 3 -66 -16 -14 -17 -24 -21 -45
-15 -22 5 -27 11 -23 28 6 21 -13 48 -32 48 -6 0 -11 -7 -11 -15 0 -8 -4 -15
-10 -15 -16 0 -12 22 8 36 20 16 56 19 47 4 -3 -5 -1 -10 5 -10 7 0 9 7 6 16
-3 9 -6 20 -6 25 0 6 -4 7 -10 4 -5 -3 -10 -2 -10 4 0 5 -3 18 -6 28 -4 11 -3
14 3 6 5 -7 24 -10 51 -6 46 6 54 18 20 29 -13 3 -36 21 -51 38 -19 21 -30 27
-35 19 -5 -8 -29 -12 -66 -10 l-59 2 -13 46 c-17 56 -35 73 -83 75 -44 2 -103
35 -126 70 -11 18 -23 24 -36 21 -22 -6 -22 -6 -9 28 5 14 14 24 18 21 5 -3
21 6 38 20 28 23 29 24 10 39 -16 12 -17 18 -8 27 14 14 16 45 2 53 -16 10
-50 -14 -44 -30 4 -9 0 -15 -10 -15 -10 0 -13 -6 -9 -17 4 -12 -1 -9 -15 7
-17 20 -21 22 -22 8 0 -9 5 -20 10 -23 17 -11 11 -44 -10 -55 -11 -6 -20 -17
-20 -25 0 -8 -18 -25 -40 -37 -27 -16 -40 -30 -40 -45 0 -12 -4 -24 -9 -27 -5
-3 -7 -27 -6 -53 2 -26 -3 -62 -11 -81 -7 -19 -11 -44 -8 -57 3 -13 1 -26 -5
-29 -6 -4 -11 -22 -11 -39 0 -18 -7 -45 -16 -62 -9 -16 -17 -39 -18 -50 -2
-20 -28 -23 -34 -4 -2 5 -11 17 -20 26 -16 16 -17 15 -20 -6 -2 -13 2 -27 8
-31 7 -4 9 -13 6 -19 -4 -6 -3 -11 3 -11 5 0 13 -9 16 -20 3 -11 12 -20 20
-20 7 0 15 -8 17 -17 3 -10 18 -25 34 -33 16 -8 32 -19 37 -25 9 -13 28 14 24
35 -1 8 -18 19 -38 24 -26 6 -39 16 -46 37 -12 31 -4 43 20 33 33 -12 55 14
62 73 3 32 13 81 20 108 8 28 17 81 20 120 3 38 11 73 18 77 21 13 77 9 83 -6
8 -22 51 -28 83 -12 31 16 41 13 41 -15 0 -13 -9 -19 -32 -21 -28 -2 -34 -8
-36 -31 -2 -16 2 -35 9 -43 9 -11 8 -14 -5 -14 -19 0 -18 2 -20 -70 -1 -31 -5
-61 -9 -67 -4 -6 -9 -38 -11 -70 -5 -62 -30 -129 -56 -150 -21 -16 -2 -45 36
-55 46 -12 61 -2 67 45 3 23 11 74 16 112 5 39 12 105 15 148 3 43 8 83 11 88
12 19 72 9 99 -16 35 -32 34 -32 103 3 28 15 53 15 53 2 0 -5 -10 -10 -23 -10
-12 0 -27 -8 -34 -19 -6 -10 -26 -21 -43 -24 -27 -6 -31 -10 -28 -34 2 -21 -1
-28 -14 -27 -13 1 -15 -2 -8 -15 10 -19 7 -151 -3 -169 -4 -6 -14 -9 -22 -5
-20 7 -20 -21 0 -37 35 -29 28 -96 -15 -150 -13 -16 -18 -33 -14 -47 5 -19 13
-23 49 -23 23 0 47 6 52 13 6 6 13 84 16 172 4 88 9 175 13 193 6 30 9 32 46
32 35 0 39 -2 28 -15 -11 -14 -7 -19 13 -16 11 2 8 -14 -5 -27 -9 -9 -8 -12 5
-12 15 0 17 -6 11 -36 -5 -26 -3 -39 7 -45 11 -7 11 -11 1 -21 -18 -18 -48 3
-44 30 2 11 -2 23 -7 27 -7 4 -10 -5 -10 -22 3 -52 9 -63 37 -63 24 -1 25 -2
9 -11 -15 -9 -17 -19 -12 -63 6 -44 4 -54 -9 -59 -21 -8 -20 -27 2 -43 16 -13
16 -13 0 -14 -22 0 -23 -10 -3 -36 20 -26 19 -33 -4 -27 -11 3 -27 1 -37 -5
-16 -9 -15 -11 4 -21 23 -12 28 -41 12 -70 -9 -19 -1 -70 13 -71 4 0 12 0 18
0 8 0 8 -4 0 -14 -9 -11 -9 -16 0 -22 6 -4 16 0 21 10 5 9 21 27 35 40 28 27
31 47 33 309 0 86 3 107 15 107 25 0 39 -50 21 -78 -11 -17 -1 -26 20 -18 9 3
14 13 10 21 -3 8 -1 17 3 20 13 7 19 -40 9 -60 -8 -13 -13 -14 -24 -4 -9 7
-14 8 -14 1 0 -6 5 -14 11 -17 6 -4 8 -14 5 -22 -3 -8 1 -22 10 -30 15 -15 14
-18 -6 -33 -20 -15 -22 -21 -12 -49 6 -18 7 -31 2 -31 -6 0 -7 -19 -4 -44 5
-35 2 -52 -15 -79 -27 -44 -28 -77 -1 -77 32 0 25 -41 -11 -65 -36 -23 -49
-51 -42 -88 5 -23 9 -26 31 -20 16 4 23 2 18 -5 -3 -6 -1 -12 6 -14 8 -3 12
-18 10 -40 -3 -32 20 -69 37 -60 3 2 7 -1 9 -7 2 -6 -1 -11 -7 -11 -21 0 -11
-26 25 -63 20 -20 42 -37 49 -37 7 0 16 -7 19 -16 4 -12 13 -14 32 -10 l25 7
-21 -23 c-20 -22 -20 -23 -1 -38 11 -8 23 -32 26 -52 10 -52 25 -63 63 -41 36
20 49 13 35 -19 -6 -15 -6 -33 0 -55 19 -63 -25 -56 -50 7 -16 40 -36 47 -26
9 3 -12 2 -24 -3 -28 -18 -12 -36 -65 -25 -69 6 -2 11 -11 11 -19 0 -11 -6
-14 -22 -9 -13 3 -30 6 -40 6 -20 0 -38 48 -27 75 4 11 14 43 23 70 14 46 14
51 -1 62 -9 7 -25 13 -35 13 -12 0 -21 13 -29 43 -7 23 -18 49 -26 58 -7 8
-13 23 -13 32 0 9 -6 20 -14 24 -7 4 -21 24 -31 43 -10 19 -37 60 -61 91 -23
30 -56 79 -73 108 -17 28 -40 62 -52 74 -11 12 -27 38 -35 57 -8 19 -34 53
-57 75 -23 22 -78 78 -122 124 -79 83 -195 183 -288 251 -27 19 -62 46 -78 59
-49 39 -287 162 -389 201 -233 90 -246 94 -465 138 -127 26 -342 52 -420 52
-105 0 -388 -18 -435 -28 -25 -5 -79 -15 -120 -22 -41 -8 -77 -17 -80 -21 -3
-4 -32 -15 -65 -24 -142 -40 -268 -88 -378 -144 -65 -34 -127 -61 -137 -61
-10 0 -32 -13 -48 -29 -16 -17 -41 -33 -56 -37 -31 -7 -86 13 -86 31 0 15 42
51 69 60 10 3 23 16 29 29 11 25 63 56 94 56 22 0 106 38 114 52 10 16 -17 27
-43 17 -26 -10 -73 -2 -73 12 0 5 -8 5 -17 2 -13 -5 -15 -2 -10 11 5 13 3 17
-7 13 -8 -3 -17 -1 -19 6 -3 7 -4 -4 -3 -23 1 -33 -1 -35 -36 -38 -46 -4 -51
16 -12 47 15 12 24 21 20 21 -4 0 1 12 12 28 10 15 22 35 25 44 4 11 12 15 22
12 12 -5 14 0 9 24 -5 23 -1 36 15 53 12 13 21 28 21 33 0 6 11 22 25 34 14
13 37 45 51 72 19 34 37 53 65 66 47 20 53 17 34 -19 -13 -25 -12 -27 6 -27
10 0 19 7 19 15 0 8 16 22 36 30 31 13 35 18 30 40 -5 19 -2 25 10 25 9 0 18
9 21 21 3 11 11 18 18 15 6 -2 31 4 55 15 23 10 44 19 47 19 9 0 -9 -45 -23
-56 -19 -15 -6 -54 17 -54 24 0 36 27 20 43 -15 15 -14 27 3 21 16 -6 41 15
69 58 24 39 115 65 166 48 42 -13 124 1 153 27 12 11 45 17 110 20 55 2 107
10 127 20 25 11 48 13 85 8 80 -11 105 -9 124 8 28 25 107 32 137 13 27 -17
35 -39 11 -30 -15 6 -46 -46 -46 -75 0 -9 -6 -28 -14 -43 -10 -20 -11 -29 -2
-38 8 -9 8 -14 -1 -17 -7 -3 -13 -13 -13 -23 0 -10 -4 -21 -9 -25 -5 -3 -13
-20 -16 -38 -12 -51 -59 -103 -100 -110 -20 -3 -47 -2 -60 3 -17 7 -27 4 -39
-9 -9 -10 -16 -23 -16 -29 0 -7 -7 -12 -15 -12 -19 0 -19 -24 0 -40 13 -11 15
-8 15 14 0 14 6 26 13 26 6 0 25 7 41 15 36 19 64 11 68 -18 2 -18 12 -23 53
-30 76 -13 98 -13 102 1 3 8 -6 12 -29 12 -54 0 -65 13 -49 52 7 18 16 45 18
61 3 15 9 27 13 27 5 0 20 21 35 48 20 36 24 51 16 64 -7 12 -6 20 4 28 8 7
15 25 15 40 0 15 6 33 14 40 8 6 12 18 9 25 -8 24 21 44 55 39 23 -4 36 0 49
15 13 16 29 21 69 21 70 0 78 -13 48 -76 -13 -29 -26 -73 -28 -98 -2 -26 -10
-55 -19 -64 -24 -28 -49 -83 -43 -98 3 -7 -10 -29 -29 -49 -29 -29 -42 -35
-76 -35 l-41 0 31 -31 c17 -17 31 -35 31 -40 0 -10 34 -12 78 -3 27 6 29 8 19
25 -9 15 -9 24 1 39 6 11 12 33 12 48 0 16 9 37 20 47 11 10 20 24 20 30 0 7
7 18 16 26 8 7 13 21 11 31 -3 10 -1 20 3 23 4 3 11 28 15 55 4 27 11 53 16
56 5 3 6 16 3 30 -5 20 -3 24 18 24 13 0 29 -5 35 -11 8 -8 17 -6 34 10 36 34
111 24 152 -20 19 -20 19 -20 -2 -26 -29 -7 -47 -67 -30 -99 17 -33 27 -30 45
11 8 20 21 35 31 35 14 0 14 2 -3 21 -18 20 -18 20 10 13 16 -4 37 -1 51 6 38
20 129 -6 133 -39 2 -13 0 -26 -5 -30 -10 -7 -35 -112 -37 -153 0 -15 -7 -33
-13 -39 -7 -7 -13 -32 -13 -56 0 -47 -17 -93 -35 -93 -20 0 -45 -34 -36 -49
11 -17 79 -17 97 1 7 7 18 40 23 73 28 166 33 192 43 212 6 11 9 37 6 57 -2
20 -3 36 -1 36 1 0 14 -5 28 -12 19 -8 31 -8 51 1 20 9 35 9 65 -1 44 -13 64
-38 54 -68 -3 -10 0 -22 6 -26 9 -5 8 -10 -3 -18 -18 -14 -38 -77 -38 -123 0
-17 -4 -35 -10 -38 -5 -3 -10 -33 -10 -65 0 -48 -5 -64 -25 -88 -24 -28 -34
-76 -17 -85 11 -7 72 22 76 36 17 58 27 105 41 182 9 49 21 95 26 101 6 7 9
24 7 39 -3 23 2 28 37 41 37 13 43 12 89 -11 28 -13 53 -22 58 -19 16 10 8 46
-12 51 -11 3 -20 10 -20 15 0 6 -7 5 -15 -2 -23 -19 -31 -3 -10 20 10 11 15
23 10 28 -4 4 -10 1 -12 -5 -3 -7 -9 -13 -14 -13 -6 0 -7 6 -2 13 4 6 8 18 9
25 2 8 10 22 18 31 24 27 19 35 -10 16 -14 -9 -29 -13 -32 -9 -4 4 -1 9 6 11
6 3 12 16 12 30 0 13 14 44 30 68 36 53 37 58 5 43 -14 -6 -25 -19 -25 -28 0
-10 -7 -23 -15 -30 -8 -7 -15 -21 -15 -31 0 -11 -6 -19 -14 -19 -9 0 -12 -7
-9 -19 3 -12 -3 -24 -16 -33 -12 -8 -18 -18 -14 -22 4 -4 0 -4 -9 -1 -9 4 -19
2 -23 -4 -10 -18 -24 -12 -18 7 3 15 -6 23 -40 38 -47 21 -56 32 -35 45 11 7
10 11 -2 18 -9 6 -19 6 -26 0 -20 -17 -24 38 -4 56 10 9 23 37 30 63 7 26 22
55 33 65 26 22 14 35 -39 41 -40 5 -40 5 -36 -25 3 -24 0 -31 -15 -35 -18 -5
-25 -35 -11 -49 3 -4 3 -15 1 -26 -7 -24 -29 -19 -25 6 2 11 -2 15 -10 13 -8
-3 -13 -21 -12 -49 1 -43 -8 -59 -34 -59 -8 0 -12 9 -10 23 2 18 -2 23 -24 25
-16 2 -28 7 -28 12 0 5 7 7 15 4 8 -4 15 -1 15 5 0 18 -38 13 -49 -6 -9 -15
-10 -15 -11 -2 0 8 -9 25 -19 36 -29 31 -29 39 1 112 8 21 11 22 19 10 8 -10
9 -3 4 24 -6 40 -4 42 24 27 25 -13 33 -37 21 -61 -13 -23 -2 -25 15 -3 10 14
16 15 36 4 23 -11 23 -11 -2 12 -15 12 -30 35 -33 50 -6 26 -35 42 -96 51 -14
2 -38 9 -53 16 -87 35 -277 77 -286 63 -8 -14 -46 -19 -48 -7 -1 6 7 9 18 8
11 -2 18 1 14 6 -5 9 -130 28 -148 23 -4 -1 -17 3 -28 9 -15 8 -24 7 -36 -3
-13 -10 -17 -10 -20 0 -3 6 -12 12 -20 12 -12 0 -10 -5 7 -20 13 -11 18 -20
12 -20 -6 0 -14 5 -17 10 -4 6 -10 8 -15 5 -5 -3 -16 2 -25 11 -12 12 -26 15
-56 10 -28 -4 -38 -3 -37 6 3 11 -97 13 -191 4 -33 -3 -36 -19 -6 -32 20 -10
25 -9 28 5 3 9 5 1 6 -17 1 -30 -1 -32 -25 -26 -20 5 -26 2 -31 -15 -3 -11 -9
-18 -14 -15 -5 3 -6 16 -3 30 6 22 3 24 -25 24 -17 0 -31 5 -31 11 0 6 9 9 20
6 13 -3 20 0 20 10 0 8 5 11 10 8 6 -3 10 -1 10 6 0 9 -17 10 -61 5 -34 -3
-75 -6 -92 -6 -22 0 -28 -4 -23 -15 7 -20 -14 -19 -29 1 -10 15 -13 15 -30 -2
-35 -36 -61 -43 -92 -27 -16 8 -43 13 -63 10 -74 -9 -225 -39 -235 -47 -5 -4
-33 -13 -62 -19 -58 -14 -98 -46 -69 -57 9 -4 16 -17 15 -33 0 -23 -1 -24 -8
-6 -5 11 -18 28 -30 39 -20 18 -22 18 -128 -28 -141 -62 -237 -109 -241 -118
-2 -5 -8 -8 -14 -8 -5 0 -23 -9 -40 -21 -16 -12 -32 -18 -36 -14 -4 3 1 11 11
16 15 9 16 12 1 34 -14 22 -14 24 5 34 24 13 42 14 21 1 -8 -5 -11 -12 -8 -15
4 -4 17 0 30 9 15 11 17 16 8 16 -18 1 26 40 45 40 6 0 20 9 30 20 10 11 23
20 29 20 6 0 31 11 56 25 51 27 78 41 100 49 8 3 22 10 30 15 28 17 85 39 130
51 72 20 78 22 57 27 -10 3 -31 0 -45 -5 -97 -35 -151 -40 -159 -15 -5 13 84
58 142 73 17 5 93 26 170 48 155 44 209 55 338 73 48 7 87 16 87 21 0 4 -7 8
-15 8 -8 0 -15 4 -15 9 0 13 28 22 35 11 3 -4 18 -2 34 6 16 8 55 16 87 19 83
6 134 16 134 26 0 9 -35 6 -162 -12 -37 -5 -87 -9 -111 -9 -48 0 -84 -24 -53
-36 18 -7 22 -28 4 -22 -7 3 -37 -1 -68 -9 -66 -15 -93 -16 -85 -3 3 6 15 10
26 10 10 0 19 5 19 10 0 6 9 10 20 10 11 0 20 5 20 10 0 12 -12 13 -42 1 -13
-5 -41 -11 -63 -14 -55 -8 -158 -36 -165 -45 -3 -4 -16 -9 -30 -10 -14 -2 -41
-11 -60 -19 -19 -8 -57 -22 -85 -30 -27 -8 -55 -21 -62 -29 -7 -10 -13 -11
-17 -5 -7 10 -44 -6 -111 -50 -16 -10 -41 -23 -55 -29 -14 -6 -48 -22 -77 -37
-56 -29 -84 -26 -36 3 15 10 51 32 78 49 61 38 132 75 145 75 6 0 29 9 53 20
240 110 500 170 877 201 133 11 369 1 475 -20 22 -5 60 -9 85 -10 25 -1 81
-10 125 -20 128 -29 419 -112 429 -122 17 -16 22 -10 23 24 1 75 23 124 78
176 60 57 85 63 109 26z m260 -141 c19 -18 19 -23 3 -169 -7 -63 -16 -109 -22
-107 -8 3 -135 62 -142 67 -1 1 4 37 13 81 13 69 20 83 51 112 40 35 73 41 97
16z m4559 -46 c35 -25 60 -84 52 -123 -3 -19 -28 -51 -69 -90 -35 -33 -65 -66
-68 -73 -2 -9 -10 -11 -25 -5 l-21 8 19 39 c10 22 19 48 19 57 0 10 10 24 22
30 19 10 20 13 6 23 -17 13 -23 96 -7 96 6 0 8 4 5 9 -8 13 17 60 29 54 5 -4
22 -15 38 -25z m-7123 -202 c0 -2 3 -11 6 -19 4 -10 -5 -16 -29 -21 -19 -4
-42 -15 -52 -26 -10 -11 -26 -20 -36 -20 -10 0 -21 -4 -24 -10 -3 -5 -25 -15
-48 -21 -23 -6 -52 -19 -65 -30 -14 -10 -29 -19 -35 -19 -6 0 -28 -12 -49 -26
-39 -28 -60 -26 -42 3 26 42 374 217 374 189z m3920 -47 c0 -22 4 -38 9 -34 5
3 31 -6 57 -20 26 -14 55 -25 64 -25 10 0 20 -7 23 -14 3 -8 25 -20 49 -27 24
-6 46 -15 49 -20 3 -6 19 -12 35 -15 16 -3 36 -12 45 -20 8 -7 30 -19 47 -25
33 -11 40 -23 20 -35 -6 -4 -18 1 -27 12 -9 11 -24 18 -35 16 -10 -2 -30 4
-45 15 -37 26 -69 40 -118 53 -24 6 -47 19 -53 31 -6 11 -15 17 -21 14 -5 -4
-9 -1 -9 6 0 7 -9 9 -22 6 -22 -6 -57 7 -71 27 -5 7 -18 -1 -37 -24 -35 -42
-36 -40 -9 30 11 30 23 63 26 73 10 31 23 18 23 -24z m3754 -143 c-1 -9 3 -16
8 -16 13 0 -2 -43 -18 -53 -19 -11 -18 -27 1 -27 8 0 15 6 15 13 0 19 35 36
60 30 13 -4 21 -2 17 3 -3 5 1 18 9 28 12 17 17 18 39 6 43 -23 45 -87 2 -76
-11 3 -51 -10 -92 -30 -80 -37 -105 -42 -105 -19 0 8 3 15 8 15 4 0 5 22 4 50
-3 39 0 51 12 56 9 3 16 15 16 26 0 11 5 18 13 15 6 -2 11 -12 11 -21z m-2967
3 c23 2 33 -2 33 -11 0 -19 117 -58 158 -52 27 3 35 0 39 -15 3 -11 12 -22 21
-25 10 -3 24 -10 32 -15 24 -14 102 -48 142 -62 21 -7 49 -23 63 -37 l26 -24
-7 28 c-6 22 -4 26 9 21 8 -3 23 3 33 14 30 34 39 23 39 -49 0 -64 -1 -67 -23
-65 -15 2 -21 -1 -16 -9 4 -6 -1 -17 -11 -24 -15 -11 -23 -11 -47 2 -16 8 -26
19 -23 25 4 5 3 19 -1 31 l-7 22 -18 -23 c-15 -18 -19 -19 -19 -7 0 9 -6 16
-14 16 -7 0 -27 7 -42 15 -16 8 -41 15 -56 15 -15 0 -34 8 -44 17 -9 9 -34 18
-54 19 -43 2 -83 21 -75 35 6 8 -1 10 -48 13 -10 1 -21 6 -25 11 -7 11 -92 42
-104 38 -4 -2 -7 5 -6 15 0 9 -5 31 -10 49 -11 33 -6 47 12 36 6 -4 25 -6 43
-4z m4857 -178 c3 -4 22 -11 43 -13 21 -3 63 -17 93 -31 30 -14 71 -33 90 -41
102 -44 229 -126 304 -197 28 -27 54 -49 58 -49 4 0 19 -16 34 -35 l26 -35
-23 -20 c-28 -23 -79 -26 -117 -6 -15 7 -51 16 -80 19 -29 4 -68 15 -86 27
-19 11 -55 23 -80 26 -27 4 -66 19 -89 35 -23 16 -48 29 -55 29 -19 0 -92 39
-132 70 -19 14 -51 33 -70 40 -70 27 -124 81 -67 67 21 -6 21 -6 2 9 -24 18
-32 64 -10 64 8 0 15 6 15 13 0 7 5 18 12 25 14 14 124 16 132 3z m-4814 -81
c36 -35 44 -37 35 -10 -4 11 -2 20 4 20 6 0 11 -7 11 -16 0 -9 12 -25 26 -36
20 -16 23 -23 12 -30 -9 -7 -5 -8 12 -3 14 4 38 9 55 12 27 6 28 5 13 -11 -9
-9 -24 -16 -32 -16 -9 0 -16 -4 -16 -10 0 -5 11 -10 25 -10 15 0 24 5 23 13
-2 6 5 11 14 11 10 -1 15 2 12 7 -3 5 2 6 10 3 23 -9 20 -20 -11 -44 -23 -18
-25 -23 -12 -35 9 -10 19 -11 29 -5 13 8 12 10 -2 10 -10 0 -18 4 -18 9 0 10
47 8 74 -4 11 -5 21 -3 25 4 9 15 55 5 71 -14 9 -10 9 -19 0 -32 -10 -16 -11
-16 -6 0 3 9 1 17 -4 17 -8 0 -23 -38 -25 -62 -1 -16 -17 -21 -25 -8 -6 10 -9
4 -8 -20 2 -66 -2 -100 -12 -100 -5 0 -9 10 -7 22 1 14 -4 23 -15 26 -13 2
-16 -1 -12 -11 6 -16 -22 -66 -44 -80 -11 -7 -10 -12 4 -28 16 -17 16 -19 1
-19 -10 0 -17 4 -17 9 0 5 -6 9 -12 8 -56 -2 -81 19 -37 30 16 4 19 11 15 29
-5 17 -2 24 8 24 8 0 18 -4 21 -10 3 -5 12 -10 18 -10 7 0 4 6 -5 14 -10 7
-15 15 -13 18 3 3 -1 11 -10 18 -22 18 -18 32 6 20 11 -7 23 -9 26 -6 3 3 -4
9 -17 14 -20 7 -21 10 -7 15 10 4 17 15 17 26 0 10 6 21 14 24 9 4 12 14 9 26
-3 12 -9 18 -14 15 -5 -3 -7 -10 -4 -15 4 -5 -5 -9 -19 -9 -14 0 -26 4 -26 9
0 9 -61 41 -77 41 -12 -1 -46 -50 -39 -58 4 -3 13 4 22 16 8 12 21 22 29 22
26 0 27 -21 2 -43 -38 -34 -70 -57 -78 -57 -4 0 -9 -10 -11 -22 -2 -15 -11
-24 -25 -26 -28 -4 -30 9 -3 26 11 7 20 21 20 31 0 11 6 22 13 24 6 3 0 6 -14
6 -19 1 -26 6 -25 19 1 13 -6 16 -31 14 -38 -4 -76 14 -67 31 5 9 3 8 -7 0
-15 -15 -39 -17 -39 -4 0 5 10 11 22 15 21 5 21 6 6 18 -14 10 -15 16 -5 28
15 18 43 24 52 10 10 -15 45 -12 45 5 0 17 -41 30 -70 22 -11 -3 -20 -1 -20 4
0 9 14 13 38 10 22 -3 13 7 -30 34 -39 23 -40 25 -13 19 17 -4 33 -12 37 -18
5 -6 8 -1 8 12 0 24 31 44 38 24 5 -15 42 -16 42 -2 0 6 -7 10 -16 8 -10 -2
-19 3 -21 10 -8 23 26 12 57 -18z m2944 -86 c64 -21 92 -50 81 -84 -6 -17 -12
-20 -41 -14 -25 4 -49 0 -86 -16 -33 -14 -54 -18 -56 -12 -2 6 -11 8 -20 5 -9
-3 -14 -3 -10 2 4 4 3 14 -4 22 -17 21 0 28 21 9 11 -10 27 -16 37 -14 17 3
17 4 0 21 -10 9 -14 17 -9 17 4 0 -2 8 -14 18 -37 29 -7 97 32 72 6 -3 36 -15
69 -26z m-72 -348 c41 -19 58 -42 58 -80 0 -27 -15 -43 -25 -26 -3 5 -19 10
-34 10 -20 0 -30 6 -34 20 -3 11 -12 20 -21 20 -9 0 -15 -3 -14 -7 1 -5 -1
-18 -5 -30 -6 -16 -17 -22 -52 -25 -48 -3 -54 2 -30 22 8 7 15 21 15 32 0 10
5 16 10 13 14 -9 40 20 40 44 0 13 8 21 23 23 26 5 23 6 69 -16z m-807 -77
c11 -17 32 -37 47 -45 19 -10 29 -25 34 -49 8 -42 -5 -79 -58 -161 -37 -59
-40 -62 -91 -69 -86 -12 -92 -11 -88 5 2 8 5 29 8 45 3 17 7 32 9 34 8 8 35
-23 30 -36 -6 -15 3 -17 22 -4 10 6 10 10 -1 20 -12 9 -13 20 -4 54 5 23 16
49 23 58 18 21 34 107 24 133 -18 50 15 61 45 15z m2288 -324 c31 -30 57 -59
57 -64 0 -5 4 -11 8 -13 4 -1 18 -17 30 -35 22 -31 22 -32 3 -42 -16 -9 -26
-6 -51 15 -17 15 -37 39 -45 54 -8 16 -24 32 -36 35 -12 4 -29 26 -40 52 -12
28 -23 42 -30 37 -8 -4 -9 -3 -5 4 16 26 53 11 109 -43z m-233 -50 c7 -8 18
-15 26 -15 14 0 114 -97 114 -111 0 -5 6 -9 13 -9 7 0 35 -23 62 -50 l49 -50
-31 -31 -31 -31 -94 93 c-52 52 -105 110 -118 129 -13 19 -30 39 -37 43 -7 4
-13 17 -13 27 0 24 41 28 60 5z m-7254 -60 c-6 -23 -4 -25 19 -19 21 5 25 3
25 -15 0 -12 6 -21 14 -21 9 0 12 8 8 25 -5 30 -3 31 43 4 19 -12 42 -19 49
-16 10 4 22 -8 35 -33 22 -42 18 -55 -11 -39 -14 8 -23 8 -31 0 -19 -19 -42
-12 -77 24 -40 40 -50 43 -50 15 0 -11 4 -20 8 -20 12 0 52 -39 52 -51 0 -6
-7 -9 -15 -5 -9 3 -15 0 -15 -9 0 -21 17 -19 37 5 13 15 30 20 64 20 60 0 68
-10 23 -31 -35 -16 -36 -17 -16 -28 22 -12 39 0 27 19 -3 6 -1 10 5 10 6 0 15
-11 20 -25 15 -40 28 -29 35 30 4 30 11 55 16 55 5 0 9 -6 9 -14 0 -7 7 -19
15 -26 8 -7 15 -8 15 -3 0 5 6 18 14 28 12 17 15 17 36 2 l24 -16 -40 -18 -39
-18 33 -3 c46 -5 65 4 59 27 -4 16 1 19 29 19 18 0 37 3 43 7 6 3 15 -5 20
-18 6 -14 15 -28 21 -32 15 -9 3 -25 -19 -25 -10 0 -26 -11 -34 -24 -15 -22
-15 -25 2 -40 22 -20 37 -20 45 -1 8 22 26 18 26 -6 0 -12 -4 -17 -11 -14 -6
4 -16 -1 -23 -10 -10 -14 -16 -15 -34 -6 -12 6 -22 10 -23 9 0 -2 -2 -18 -4
-35 -3 -32 -30 -71 -42 -60 -3 3 1 13 10 21 14 14 12 21 -11 66 -20 40 -28 47
-39 38 -8 -6 -12 -17 -9 -25 3 -7 2 -14 -2 -14 -47 -8 -64 -6 -68 6 -3 8 -19
17 -35 20 -16 4 -29 11 -29 16 0 6 -9 8 -19 4 -16 -5 -18 -2 -14 15 7 25 -22
28 -32 3 -6 -16 -9 -15 -31 10 -18 22 -29 27 -47 21 -12 -3 -19 -3 -16 0 4 4
-4 18 -18 32 -14 14 -22 31 -19 39 3 8 -8 29 -24 46 -23 26 -27 36 -19 51 5
10 7 23 4 28 -9 14 3 30 22 30 11 0 14 -6 9 -25z m7161 -132 c62 -49 193 -178
193 -189 0 -7 -21 -29 -47 -50 -27 -21 -50 -42 -51 -46 -7 -16 -81 -88 -90
-88 -14 0 -24 29 -17 50 3 9 -1 23 -9 29 -19 16 -10 41 14 41 18 0 36 23 58
73 11 25 10 28 -6 25 -12 -2 -17 4 -17 21 0 25 -19 39 -29 23 -3 -5 -17 -7
-31 -4 -24 4 -30 14 -25 37 1 6 2 31 1 58 0 26 5 47 11 47 6 0 26 -12 45 -27z
m-3438 -400 c11 -28 9 -112 -4 -145 -4 -11 -3 -18 4 -18 6 0 11 -5 11 -11 0
-8 -11 -9 -32 -5 -22 4 -37 1 -49 -10 -16 -14 -18 -14 -27 3 -6 11 -14 46 -17
79 -6 51 -5 62 9 67 9 4 16 15 16 26 0 23 25 40 56 41 14 0 25 -9 33 -27z
m3981 -55 c7 -18 4 -27 -14 -44 -38 -34 -58 -71 -51 -94 11 -35 -4 -79 -30
-86 -26 -6 -40 -30 -24 -40 30 -18 116 65 103 99 -9 25 50 59 89 52 31 -6 35
-4 41 19 10 40 48 53 91 33 19 -9 35 -21 35 -26 0 -11 -163 -178 -248 -254
-43 -39 -56 -46 -68 -36 -12 9 -16 6 -25 -20 -7 -20 -18 -31 -30 -31 -26 0
-24 19 7 51 37 39 28 78 -19 78 -55 0 -65 4 -72 28 -3 14 -13 23 -25 23 -11 0
-20 6 -20 13 1 22 77 142 89 139 6 -1 14 12 18 29 3 17 13 33 22 36 20 6 48
19 81 38 34 20 39 19 50 -7z m410 -229 c0 -5 16 -9 36 -9 49 0 62 -20 54 -77
-6 -35 -3 -49 10 -66 18 -21 16 -23 -82 -119 -55 -54 -93 -98 -85 -98 8 0 22
11 31 25 9 14 22 25 29 25 7 0 24 10 37 23 13 12 37 27 53 32 28 10 51 43 81
115 l14 35 1 -30 c1 -17 -5 -37 -11 -44 -11 -11 -10 -13 3 -8 11 4 20 -3 28
-19 9 -21 14 -23 31 -14 12 6 30 8 40 5 16 -5 21 -1 26 23 4 18 16 34 30 41
13 6 24 19 24 30 0 11 5 23 11 27 8 5 9 -6 3 -37 -4 -24 -8 -54 -8 -66 -1 -15
-7 -23 -18 -23 -29 0 -21 -19 15 -34 l32 -14 -33 -1 c-18 -1 -44 6 -57 15 -21
14 -28 14 -42 3 -9 -8 -24 -15 -35 -15 -10 -1 -20 -2 -23 -3 -12 -2 16 -41 44
-60 l29 -21 23 25 c24 25 72 34 84 15 4 -6 -5 -10 -19 -10 -14 0 -26 -5 -26
-11 0 -7 17 -9 51 -4 l52 7 -7 -38 c-3 -22 -9 -54 -12 -72 -7 -34 18 -102 37
-102 15 0 39 -26 39 -42 0 -7 9 -28 20 -46 11 -18 20 -50 20 -71 0 -36 -6 -43
-112 -136 l-112 -98 -29 16 c-41 24 -53 21 -22 -6 18 -15 24 -28 20 -40 -7
-17 -35 -24 -35 -8 0 5 -9 11 -21 14 -12 3 -18 10 -15 16 8 12 -14 51 -29 51
-6 0 -16 -14 -24 -30 -10 -24 -10 -34 -1 -45 10 -12 10 -18 -1 -31 -9 -11 -10
-17 -1 -23 24 -14 12 -111 -19 -151 l-19 -25 0 23 c0 27 -11 28 -35 2 -27 -30
-66 -25 -102 12 -16 18 -33 41 -36 51 -4 9 -18 22 -31 27 -14 5 -30 18 -36 30
-6 11 -17 20 -25 20 -8 0 -15 4 -15 9 0 12 -44 61 -55 61 -11 0 -65 61 -65 74
0 6 -12 20 -27 32 -24 19 -26 27 -24 75 1 29 7 59 13 66 6 7 7 13 2 13 -4 0 4
12 18 28 34 34 52 79 35 85 -24 9 3 19 52 20 37 1 51 5 51 15 0 9 -6 12 -15 8
-10 -4 -7 6 10 28 14 18 25 36 25 39 0 4 16 29 35 55 19 27 32 52 29 55 -4 3
-30 -17 -58 -46 -77 -79 -146 -136 -152 -126 -3 5 -2 14 1 19 4 6 3 24 0 41
-5 23 -10 28 -18 20 -21 -21 -29 -11 -12 15 9 14 14 29 10 32 -3 4 -10 0 -15
-8 -7 -12 -11 -7 -16 18 -4 18 -12 32 -18 31 -6 -1 -24 -1 -39 0 l-28 1 26 37
c14 21 25 45 25 55 0 9 4 19 10 23 5 3 30 37 56 75 26 39 50 70 54 70 4 0 27
16 51 35 93 72 209 119 209 84z m-6446 -434 c4 -14 17 -31 30 -36 37 -17 44
-102 11 -129 -7 -6 -11 -20 -8 -30 4 -16 0 -20 -17 -20 -13 0 -24 -8 -27 -19
-5 -19 -43 -37 -43 -20 0 5 5 9 10 9 6 0 10 4 10 9 0 5 -8 8 -17 7 -12 -1 -19
7 -21 24 -4 21 -2 22 12 11 9 -8 20 -11 24 -7 4 4 7 57 6 117 0 79 3 109 12
109 6 0 15 -11 18 -25z m-449 -94 c-6 -21 19 -49 30 -31 10 17 23 12 31 -12 8
-22 9 -27 13 -58 2 -10 5 -7 11 8 5 12 14 22 21 22 6 0 9 -7 5 -15 -3 -8 -1
-15 5 -15 7 0 9 -10 5 -24 -3 -14 -2 -28 4 -31 5 -3 10 -17 10 -31 0 -14 -4
-22 -10 -19 -5 3 -10 -3 -10 -14 0 -13 7 -21 17 -21 15 0 14 -2 -3 -16 -10 -8
-13 -13 -6 -9 8 4 12 -5 13 -32 2 -30 3 -32 6 -10 7 44 23 31 23 -18 0 -33 4
-45 15 -45 8 0 15 -4 15 -10 0 -5 7 -10 16 -10 26 0 -45 -63 -72 -65 -13 0
-29 -6 -36 -13 -9 -9 -7 -12 12 -12 18 0 21 -3 12 -9 -8 -4 -13 -12 -12 -17 1
-5 -4 -10 -11 -13 -8 -2 -10 2 -6 13 4 10 3 15 -3 11 -6 -3 -10 -13 -10 -22 0
-13 -3 -13 -15 -3 -12 10 -15 9 -15 -5 0 -15 -6 -16 -42 -10 -24 5 -54 8 -68
7 -60 -2 -135 -14 -147 -23 -14 -12 -36 -2 -27 12 10 17 -15 36 -41 31 -21 -3
-25 0 -25 18 0 26 -34 56 -72 65 -33 8 -36 21 -7 28 16 4 20 11 16 26 -3 11
-1 21 4 23 14 5 -2 48 -17 48 -8 0 -14 5 -14 10 0 6 6 10 14 10 9 0 12 7 9 20
-7 28 28 56 40 34 8 -13 11 -13 22 3 7 10 11 21 9 25 -3 5 2 8 10 8 9 0 16 -4
16 -9 0 -5 11 -12 25 -15 26 -7 32 -20 15 -31 -6 -4 -7 -12 -3 -18 4 -7 1 -7
-9 1 -9 8 -14 20 -11 28 9 23 -13 16 -24 -8 -7 -15 -19 -22 -39 -23 -22 0 -29
-5 -29 -20 0 -14 8 -21 27 -23 19 -2 28 -10 30 -25 4 -29 37 -36 35 -8 -1 12
-7 21 -15 21 -7 0 -11 4 -7 10 3 5 13 6 22 3 12 -5 15 -2 10 10 -5 12 -1 17
13 17 17 0 20 -7 20 -40 0 -43 14 -53 26 -18 4 13 2 24 -5 26 -15 5 -14 20 2
19 45 -1 67 5 67 18 0 8 -5 15 -11 15 -5 0 -7 5 -4 10 3 6 1 10 -4 10 -6 0
-11 5 -11 11 0 6 6 9 14 6 8 -3 20 1 27 9 8 10 15 11 25 3 10 -8 13 -6 14 8 4
78 5 81 18 70 21 -17 32 10 31 74 -2 52 4 79 17 79 3 0 3 -8 -1 -19z m514
-158 c2 -1 -3 -13 -12 -27 -13 -19 -14 -32 -7 -57 14 -49 13 -56 -15 -63 -33
-8 -32 -21 5 -36 33 -14 36 -20 18 -38 -9 -9 -8 -12 4 -12 9 0 18 -10 22 -22
4 -17 -1 -28 -19 -43 -14 -12 -25 -26 -25 -32 0 -16 -29 -24 -49 -14 -18 10
-34 9 -64 -4 -25 -10 -33 1 -19 28 7 12 13 36 14 52 1 18 13 41 30 57 34 32
40 75 8 58 -17 -9 -20 -8 -20 7 0 10 4 24 9 32 6 9 5 23 -2 38 -14 31 -2 41
23 18 24 -22 29 -18 33 23 5 44 25 66 46 50 9 -7 18 -13 20 -15z m2049 -93 c7
-11 18 -20 26 -20 19 0 40 -26 26 -35 -15 -9 -12 -25 4 -25 20 0 27 -27 14
-56 -9 -20 -9 -27 1 -34 11 -6 11 -12 -1 -29 l-15 -22 -7 23 c-5 14 -9 18 -13
11 -2 -7 -8 -13 -13 -13 -13 0 -33 69 -27 96 6 31 -1 35 -46 25 -20 -5 -38 -6
-41 -4 -7 7 57 103 69 103 6 0 16 -9 23 -20z m4882 -80 c0 -5 -7 -13 -16 -18
-34 -19 -9 -37 52 -37 l59 0 -2 -30 c-4 -48 -24 -77 -48 -70 -44 14 -57 10
-76 -24 -10 -19 -27 -39 -36 -45 -10 -5 -22 -15 -26 -23 -4 -7 -17 -13 -27
-13 -24 0 -27 32 -5 50 8 7 15 20 15 30 0 10 7 23 16 31 15 12 54 81 54 94 0
4 -14 -5 -31 -20 -17 -14 -34 -24 -36 -21 -8 7 50 76 70 82 9 3 17 10 17 15 0
5 5 9 10 9 6 0 10 -4 10 -10z"/>
<path d="M2676 2873 c-10 -32 -26 -79 -37 -105 -10 -26 -19 -53 -19 -61 0 -19
-25 -29 -56 -21 -46 12 -19 -38 34 -62 20 -10 40 -19 43 -20 3 -2 4 8 1 21 -3
16 4 34 21 54 25 30 30 44 42 129 5 32 13 46 31 54 31 14 31 28 -1 28 -18 0
-25 5 -25 20 0 38 -17 20 -34 -37z"/>
<path d="M4408 2251 c4 -10 1 -12 -7 -6 -9 5 -12 2 -9 -11 2 -10 14 -24 28
-31 14 -7 19 -13 12 -13 -7 0 -10 -5 -7 -10 5 -8 12 -7 23 2 13 11 15 10 10
-14 -3 -15 -1 -25 3 -22 5 3 9 -4 9 -15 0 -12 4 -21 8 -21 4 0 8 -12 7 -27 0
-20 6 -29 20 -31 11 -3 29 -11 40 -19 l20 -14 -20 1 c-42 4 -48 1 -35 -15 17
-20 5 -32 -15 -15 -23 19 -28 6 -5 -15 18 -16 20 -16 35 -1 9 9 20 16 25 16
18 0 20 38 4 75 -8 21 -33 66 -54 101 -21 35 -41 73 -45 84 -4 13 -14 19 -30
18 -15 -2 -21 -7 -17 -17z"/>
<path d="M7708 1829 c-9 -5 -47 -10 -84 -11 -49 -2 -68 -6 -72 -18 -3 -8 -14
-23 -26 -33 -20 -16 -20 -18 -4 -31 10 -7 15 -16 11 -20 -4 -3 -9 -25 -12 -49
-6 -39 -8 -42 -36 -42 -26 0 -32 5 -43 38 -19 59 -83 168 -95 164 -17 -5 -25
-43 -26 -118 -1 -51 -5 -70 -20 -83 -17 -16 -20 -15 -49 9 -31 26 -52 32 -52
15 0 -5 -8 -10 -17 -10 -11 0 -25 -17 -37 -41 -10 -22 -29 -52 -42 -66 -33
-35 -39 -61 -20 -82 14 -16 14 -20 2 -30 -11 -9 -15 -8 -20 4 -8 22 -27 9 -20
-13 5 -16 5 -16 -9 1 -8 9 -18 17 -22 17 -12 0 -34 -33 -35 -50 0 -8 -13 -26
-29 -40 -17 -13 -28 -27 -25 -32 9 -15 21 -8 33 19 11 24 13 25 28 10 14 -14
15 -20 4 -41 -8 -13 -23 -27 -34 -30 -17 -4 -18 -7 -7 -20 10 -13 10 -16 -1
-16 -7 0 -3 -7 9 -16 13 -9 34 -14 48 -11 17 3 24 0 24 -11 0 -9 7 -13 19 -9
13 3 26 -5 40 -24 12 -16 28 -29 36 -29 7 0 16 -9 20 -19 3 -11 18 -21 36 -23
28 -4 30 -3 24 19 -5 21 2 27 23 21 7 -3 9 -9 11 -40 0 -10 7 -18 15 -18 17 0
28 -38 13 -43 -22 -7 4 -38 49 -57 55 -24 80 -25 127 -5 27 11 47 12 88 5 30
-5 102 -17 161 -25 60 -9 127 -25 150 -35 24 -11 53 -20 66 -20 24 0 62 -18
74 -35 39 -56 117 -146 130 -150 28 -10 151 -113 176 -148 13 -18 29 -46 37
-63 7 -18 29 -49 48 -70 40 -45 117 -178 117 -203 0 -15 62 -119 79 -131 14
-10 41 -60 41 -75 0 -13 35 -15 278 -15 l279 0 12 26 c10 22 15 25 44 19 17
-4 55 -16 82 -26 43 -16 78 -19 243 -19 182 0 231 8 149 25 -17 4 -50 18 -73
30 -44 26 -99 48 -179 71 -27 9 -60 20 -73 27 -19 9 -34 8 -72 -6 -26 -9 -59
-17 -74 -17 -14 0 -26 -4 -26 -10 0 -5 -6 -10 -13 -10 -9 0 -12 11 -10 33 4
37 -21 75 -54 81 -41 8 -83 48 -83 78 0 15 -4 28 -8 28 -12 0 -62 44 -62 53 0
5 10 5 23 2 17 -5 19 -4 7 4 -13 9 -12 11 5 12 l20 0 -20 8 c-11 5 -30 4 -43
0 -45 -17 -72 -11 -83 19 -18 47 -19 65 -4 83 11 12 13 23 7 40 -5 13 -10 48
-11 76 -2 61 -44 133 -91 158 -30 16 -40 33 -40 71 0 19 8 29 34 39 38 16 49
29 54 64 3 21 0 23 -23 17 -39 -10 -61 1 -75 34 -14 34 -19 35 -79 14 -35 -12
-50 -13 -72 -4 -31 13 -52 60 -43 96 4 15 0 34 -10 49 -9 13 -16 32 -16 42 -1
43 -15 47 -73 24 -67 -27 -83 -21 -121 43 -16 27 -35 46 -51 50 -14 4 -25 11
-25 16 0 6 -7 10 -15 10 -33 0 -94 41 -116 77 -12 21 -31 47 -42 57 -20 19
-84 29 -93 14 -10 -16 -53 -8 -68 14 -9 12 -16 41 -16 65 0 23 -4 45 -10 48
-5 3 -10 17 -10 31 0 13 -4 24 -10 24 -5 0 -10 13 -10 29 0 32 -20 54 -42 46
-7 -3 -22 -21 -32 -40 -11 -19 -22 -35 -26 -35 -4 0 -5 -14 -2 -30 5 -38 -20
-70 -49 -63 -25 7 -51 46 -48 70 2 10 -5 30 -15 45 -10 15 -15 31 -12 36 3 5
28 12 56 14 28 3 53 7 56 10 3 3 8 22 11 42 6 38 -5 45 -39 25z"/>
<path d="M3117 1600 c9 -10 9 -17 0 -33 -9 -15 -9 -21 1 -24 6 -3 12 -12 13
-21 0 -11 2 -12 6 -4 7 17 43 15 43 -2 0 -8 -5 -18 -10 -21 -13 -8 6 -45 23
-45 8 0 19 -16 27 -35 14 -36 30 -47 30 -20 0 8 -4 15 -9 15 -4 0 -6 11 -3 25
3 17 11 25 25 25 19 0 19 -1 4 -18 -23 -25 -21 -29 8 -29 35 0 41 -9 25 -38
-10 -19 -10 -28 -1 -38 6 -8 9 -22 5 -31 -10 -27 38 -20 105 16 40 21 61 38
61 50 0 23 -28 23 -52 1 -10 -9 -18 -12 -18 -6 0 18 -45 60 -59 55 -9 -3 -11
0 -6 8 6 10 4 12 -7 8 -13 -5 -14 -3 -4 17 9 21 12 21 32 8 21 -13 22 -13 18
4 -3 11 -13 24 -23 30 -15 9 -23 8 -40 -9 -21 -18 -24 -19 -40 -4 -22 20 -31
20 -31 1 0 -8 -5 -15 -10 -15 -6 0 -8 20 -5 53 6 53 -4 85 -24 73 -6 -4 -11
-16 -11 -27 0 -12 -7 -19 -20 -19 -13 0 -20 7 -20 20 0 10 -10 25 -22 31 -18
9 -21 9 -11 -1z"/>
<path d="M8991 724 c-22 -28 -36 -63 -28 -71 3 -3 97 -36 209 -74 111 -37 212
-72 223 -78 11 -5 49 -20 85 -32 123 -41 222 -82 253 -105 18 -13 73 -44 122
-69 50 -25 98 -55 107 -66 17 -21 14 -49 -5 -49 -10 0 -126 47 -222 90 -48 22
-240 95 -275 105 -14 4 -30 11 -35 16 -22 17 -208 70 -229 65 -13 -3 -35 -17
-49 -30 -15 -14 -35 -29 -44 -35 -31 -17 -2 -45 63 -60 32 -7 84 -24 114 -36
30 -13 82 -33 115 -46 33 -12 65 -25 70 -29 6 -4 23 -10 38 -14 52 -12 291
-136 332 -171 l40 -35 152 0 c148 0 153 1 179 25 57 52 69 115 34 173 -18 30
-24 32 -73 32 l-54 0 -6 74 c-7 83 -43 165 -86 195 -30 21 -126 52 -135 44 -3
-4 -6 -20 -6 -36 0 -29 0 -30 -45 -24 -25 4 -82 25 -126 47 -44 22 -88 40 -97
40 -9 0 -30 9 -47 20 -16 11 -45 20 -64 20 -34 0 -97 18 -183 52 -26 10 -59
18 -75 18 -17 0 -37 10 -51 25 -23 24 -39 29 -134 39 -42 5 -49 3 -67 -20z"/>
</g>
</svg>
