<?xml version="1.0" standalone="no"?>
<!DOCTYPE svg PUBLIC "-//W3C//DTD SVG 20010904//EN"
 "http://www.w3.org/TR/2001/REC-SVG-20010904/DTD/svg10.dtd">
<svg version="1.0" xmlns="http://www.w3.org/2000/svg"
 width="1194.000000pt" height="975.000000pt" viewBox="0 0 1194.000000 975.000000"
 preserveAspectRatio="xMidYMid meet">
<metadata>
Created by potrace 1.16, written by Peter Selinger 2001-2019
</metadata>
<g transform="translate(0.000000,975.000000) scale(0.100000,-0.100000)"
fill="#000000" stroke="none">
<path d="M2773 8798 c-13 -21 -26 -27 -72 -33 -67 -8 -119 -29 -127 -49 -3 -9
-9 -14 -14 -11 -4 2 -16 -13 -26 -35 -10 -22 -25 -40 -31 -40 -21 0 -53 -32
-75 -73 -10 -22 -22 -36 -25 -33 -3 3 -12 -1 -20 -9 -8 -8 -27 -15 -43 -15
-21 0 -28 -4 -24 -13 3 -8 -2 -20 -11 -27 -19 -16 -20 -40 0 -40 8 0 15 -4 15
-10 0 -5 -7 -10 -15 -10 -24 0 -34 -32 -32 -110 l2 -75 120 0 120 0 33 -32
c19 -19 43 -33 57 -33 14 0 29 -8 34 -19 13 -24 38 -33 59 -22 11 6 25 5 37
-1 25 -15 64 -60 65 -75 0 -18 19 -16 26 2 8 20 44 19 44 -1 0 -14 3 -14 15
-4 8 7 15 17 15 22 0 18 39 50 55 44 11 -4 17 2 21 23 5 21 14 31 38 37 20 6
36 20 46 41 8 17 28 37 45 45 19 8 33 24 39 43 14 49 22 60 45 63 41 6 58 114
23 145 -10 10 -22 17 -26 17 -4 0 -33 26 -64 58 -39 39 -69 83 -97 140 -21 45
-45 82 -52 82 -7 0 -13 4 -13 9 0 12 -57 25 -118 25 -48 1 -55 -2 -69 -26z"/>
<path d="M7481 7668 c1 -337 4 -642 8 -678 6 -60 7 -63 19 -42 7 12 10 32 7
42 -16 51 61 -3 92 -65 19 -36 31 -45 62 -45 14 0 40 -5 58 -12 27 -10 38 -10
53 0 31 19 58 15 62 -10 2 -16 12 -24 33 -28 32 -6 44 -32 25 -55 -7 -9 -23
-12 -46 -8 -30 5 -36 3 -41 -16 -3 -11 -12 -21 -19 -21 -8 0 -14 -7 -14 -17 0
-9 -14 -29 -32 -45 -31 -28 -55 -33 -129 -29 -24 2 -42 -3 -50 -14 -38 -46
-53 -58 -57 -47 -4 13 -23 17 -20 5 1 -5 -1 -19 -5 -33 -3 -14 -8 -58 -11 -98
-6 -72 -6 -73 16 -70 16 2 24 -3 26 -16 4 -20 -16 -38 -35 -31 -30 10 -47 -92
-29 -170 4 -16 12 -61 18 -100 6 -38 17 -77 24 -86 18 -20 18 -49 0 -74 -7
-11 -16 -48 -19 -82 -5 -60 -4 -61 17 -54 19 7 21 15 19 74 -2 75 10 93 57 84
16 -4 32 -2 35 3 11 17 37 11 42 -11 8 -30 61 -16 99 27 36 42 93 55 143 33
40 -18 50 -43 45 -117 -2 -40 1 -62 7 -62 6 0 9 -7 5 -15 -3 -9 0 -15 10 -15
11 0 14 -5 10 -16 -4 -10 1 -25 10 -35 15 -17 14 -22 -10 -73 -14 -30 -26 -58
-26 -63 0 -4 -14 -23 -30 -42 -16 -18 -27 -38 -23 -44 3 -5 -4 -17 -16 -26
-21 -16 -21 -18 -6 -53 9 -23 11 -39 5 -43 -6 -3 -10 -11 -10 -17 0 -6 8 -4
18 5 18 16 52 23 52 11 0 -3 -7 -12 -15 -20 -21 -21 -19 -41 5 -47 12 -3 20
-14 20 -26 0 -12 5 -21 10 -21 6 0 10 -7 10 -15 0 -18 -12 -19 -27 -4 -7 7
-15 5 -27 -6 -18 -18 -21 -35 -6 -35 5 0 6 -8 3 -17 -6 -16 -5 -17 13 -3 10 8
22 20 27 27 4 7 13 10 20 7 7 -2 21 4 32 15 14 17 15 23 5 36 -7 8 -16 13 -20
10 -14 -9 -21 12 -7 22 12 10 31 16 96 33 28 7 34 6 38 -10 6 -23 33 -34 47
-20 7 7 5 10 -7 10 -9 0 -17 5 -17 10 0 6 6 10 14 10 8 0 16 12 18 27 2 19 10
29 30 34 17 4 29 3 32 -4 3 -8 5 -7 5 1 1 8 10 25 21 39 26 34 25 43 -5 43
-42 0 -41 26 3 70 29 30 48 40 71 40 27 0 32 -4 37 -30 9 -42 28 -56 60 -41
29 13 48 6 40 -15 -3 -8 1 -14 9 -14 18 0 19 -12 4 -27 -16 -16 -3 -47 38 -87
l36 -35 -27 -35 c-15 -20 -22 -36 -16 -36 23 0 70 -44 70 -66 0 -46 -41 -65
-94 -44 -30 11 -34 37 -8 56 26 20 0 39 -49 35 -22 -1 -47 3 -57 11 -9 7 0 -6
21 -30 20 -23 37 -49 37 -57 0 -9 7 -18 15 -21 8 -4 15 -11 15 -17 0 -5 12
-34 26 -63 l26 -53 -29 -25 c-22 -20 -24 -25 -11 -26 10 0 26 -10 38 -22 l20
-22 -33 -14 c-94 -42 -137 -64 -143 -73 -3 -6 4 -7 20 -3 33 8 51 -3 35 -22
-14 -17 -46 -18 -52 -1 -3 6 -6 1 -6 -13 -1 -18 -4 -21 -10 -11 -12 19 -58 6
-66 -19 -7 -23 -37 -33 -89 -28 -42 4 -51 19 -18 33 27 12 28 25 2 53 -21 22
-32 28 -27 14 3 -10 -46 -58 -56 -54 -4 1 -17 -2 -28 -8 -16 -9 -25 -5 -52 19
-17 17 -33 26 -35 21 -2 -6 -20 -10 -41 -10 -34 0 -52 -12 -74 -48 -5 -6 2
-21 14 -33 14 -14 19 -28 15 -44 -7 -29 14 -48 47 -40 19 5 29 1 41 -17 10
-13 12 -24 6 -26 -5 -2 -10 -10 -10 -18 0 -20 -27 -17 -34 3 -6 15 -8 15 -16
3 -6 -9 -5 -17 3 -22 7 -4 -4 -6 -23 -4 -37 3 -49 19 -31 40 8 10 5 16 -13 26
-21 11 -27 10 -40 -3 -14 -13 -13 -15 6 -20 16 -5 19 -11 14 -30 -8 -33 14
-73 37 -69 13 3 17 10 14 23 -4 14 0 19 13 19 22 0 38 -39 20 -50 -9 -6 -9 -9
0 -15 6 -4 9 -13 6 -21 -3 -7 9 -27 25 -44 30 -29 57 -41 43 -18 -5 8 -2 9 9
5 23 -9 22 -6 -18 39 -44 49 -43 78 3 82 37 4 53 -19 34 -48 -12 -20 -4 -31
31 -43 12 -4 17 -1 17 10 0 13 3 14 12 5 9 -9 5 -19 -18 -42 -16 -16 -35 -30
-42 -30 -9 0 -11 -7 -7 -20 5 -15 1 -22 -17 -29 -29 -11 -38 -6 -38 24 0 17
-4 23 -14 19 -8 -3 -17 -1 -21 5 -11 18 -21 12 -41 -24 -10 -19 -30 -39 -45
-44 -16 -6 -34 -24 -44 -45 -10 -20 -24 -36 -33 -36 -8 0 -12 3 -9 7 4 3 -3
13 -14 21 -14 10 -19 22 -16 39 2 13 -4 40 -14 61 -11 20 -19 41 -19 48 0 6
-13 11 -30 12 -20 0 -31 -5 -35 -19 -4 -10 -10 -19 -15 -19 -11 0 -40 29 -40
41 0 5 -7 9 -15 9 -17 0 -55 56 -55 80 0 8 -6 27 -14 42 -16 29 -12 38 16 38
15 0 17 5 12 28 -4 15 -11 28 -16 30 -4 2 -5 15 -2 28 4 15 2 24 -6 24 -7 0
-10 -7 -6 -16 4 -10 1 -14 -6 -11 -7 2 -12 12 -10 22 3 16 -3 17 -48 13 -57
-6 -61 -2 -66 53 -3 29 0 39 11 39 8 0 15 -6 15 -14 0 -18 53 -37 71 -25 8 5
10 9 5 9 -4 0 -2 10 7 23 12 19 12 26 2 40 -7 9 -11 34 -9 55 2 29 1 33 -7 19
-6 -10 -8 -24 -5 -32 13 -34 -69 -80 -99 -55 -13 11 -18 10 -30 -6 -16 -22
-27 -56 -15 -49 13 8 19 -49 7 -63 -6 -8 -21 -12 -34 -9 -13 2 -26 0 -29 -4
-3 -5 3 -9 13 -10 14 0 12 -3 -6 -10 -33 -13 -47 3 -24 26 17 18 17 18 -10 11
-35 -8 -36 11 -1 24 28 11 23 34 -6 25 -10 -3 -29 -3 -42 0 -20 5 -24 13 -25
45 -2 35 1 41 24 46 l27 7 -30 23 c-22 19 -25 24 -11 24 16 0 16 2 2 24 -9 14
-12 27 -7 30 5 3 12 -4 15 -16 l6 -21 18 22 c25 31 96 40 123 16 18 -16 20
-16 20 -2 0 9 -11 19 -24 23 -14 3 -32 17 -41 30 -19 30 -12 48 14 34 10 -5
21 -6 25 -3 10 10 7 73 -4 73 -5 0 -10 7 -10 15 0 18 1 18 32 6 13 -5 28 -10
33 -11 6 -1 18 -6 28 -11 25 -14 21 0 -8 27 -14 13 -25 19 -25 14 0 -6 -7 -10
-15 -10 -8 0 -15 5 -15 10 0 12 -27 13 -32 1 -1 -5 -12 -11 -23 -13 -15 -2
-21 3 -23 25 -2 15 -8 27 -13 27 -5 0 -9 7 -9 15 0 21 26 19 35 -2 6 -17 7
-17 21 1 15 22 20 81 5 71 -13 -8 -23 29 -16 58 4 15 16 28 31 31 13 4 24 13
24 21 0 8 6 15 13 15 6 0 0 10 -15 21 -35 26 -39 74 -8 84 15 5 18 10 11 23
-5 9 -8 22 -8 27 3 19 -38 16 -60 -5 -18 -16 -21 -25 -14 -43 12 -32 -13 -83
-45 -91 -25 -7 -34 -36 -10 -36 8 0 24 -8 36 -18 18 -14 21 -25 17 -44 -12
-48 -57 -46 -79 3 -7 16 -17 29 -21 29 -5 0 -5 9 -2 20 8 26 -3 60 -20 60 -13
0 -25 30 -25 65 0 17 -7 20 -48 20 -41 0 -48 -3 -45 -17 8 -27 -33 -33 -59 -9
-12 12 -16 21 -10 21 7 0 12 4 12 9 0 5 -8 8 -17 7 -12 -1 -17 5 -15 17 2 10
-3 17 -13 17 -8 0 -15 -5 -15 -11 0 -6 -10 -9 -22 -7 -17 2 -24 11 -26 30 -3
21 -8 27 -24 25 -14 -1 -22 5 -24 21 -3 15 1 22 14 23 14 0 14 2 -3 8 -11 5
-21 4 -23 0 -5 -12 -29 -11 -37 1 -3 5 1 20 10 34 16 24 16 24 -5 19 -20 -5
-21 -4 -11 16 7 11 18 21 26 21 14 0 31 37 22 46 -3 3 -23 0 -45 -7 -33 -10
-43 -9 -56 2 -32 29 -45 39 -53 39 -13 1 -53 37 -53 48 0 16 48 21 55 5 3 -8
3 -19 -1 -24 -3 -5 -1 -9 4 -9 5 0 12 10 16 22 4 17 -2 29 -21 46 l-27 23 -18
-23 c-24 -33 -36 -15 -43 62 -7 90 2 129 32 141 13 5 26 16 29 24 4 10 19 15
43 15 47 0 57 -9 31 -27 -26 -18 -26 -33 1 -26 17 5 19 2 13 -21 -6 -26 10
-38 19 -13 2 6 8 9 11 5 10 -8 -27 -45 -40 -41 -6 2 -15 -7 -22 -21 -11 -26 0
-46 26 -46 18 0 72 -57 73 -79 1 -9 5 2 9 24 8 49 1 186 -10 200 -4 5 -10 73
-12 150 -4 119 -9 153 -32 225 -34 101 -85 161 -153 179 -37 10 -164 7 -202
-5 -9 -3 8 -26 51 -68 36 -35 85 -90 109 -122 23 -33 45 -61 48 -64 11 -10 31
-50 31 -63 0 -16 -87 -47 -132 -47 -34 0 -68 24 -68 47 0 6 19 13 41 16 23 3
49 12 57 21 14 14 14 17 -3 36 -10 11 -30 20 -45 20 -15 0 -53 18 -86 40 -46
32 -67 40 -94 38 -35 -3 -35 -2 -40 42 -3 25 -15 59 -26 75 -31 46 -45 85 -39
106 10 31 -17 22 -47 -15 -16 -19 -28 -39 -28 -44 0 -5 19 -42 41 -81 23 -39
39 -75 35 -79 -4 -4 -13 1 -20 10 -7 10 -24 22 -37 27 -17 7 -19 10 -6 10 27
1 19 33 -14 60 -27 21 -33 22 -62 10 -18 -7 -34 -14 -36 -16 -3 -2 16 -22 40
-46 101 -96 97 -176 -6 -126 -17 8 -55 74 -55 94 0 15 -38 46 -44 36 -5 -7
-14 -7 -29 2 -42 23 -55 38 -50 58 4 13 -3 26 -21 40 -15 12 -26 30 -26 45 0
13 -5 24 -11 24 -8 0 -9 4 0 13 15 18 6 25 -24 19 -23 -4 -24 -7 -18 -48 5
-36 3 -45 -12 -50 -24 -9 -49 8 -53 35 -2 13 -13 32 -24 43 -17 17 -24 18 -45
9 -13 -6 -23 -17 -21 -23 3 -17 -32 -69 -46 -67 -24 3 -37 -1 -31 -11 3 -6 -4
-10 -17 -10 -17 0 -24 6 -25 21 -2 27 -12 37 -22 21 -5 -9 -14 -5 -32 14 -34
36 -60 49 -69 34 -6 -9 -13 -8 -32 4 -14 9 -27 13 -31 10 -3 -3 -16 2 -29 11
-13 10 -16 15 -6 12 9 -3 23 2 32 12 15 16 13 20 -15 49 -17 18 -27 32 -23 32
5 0 1 5 -8 11 -12 6 -24 6 -40 -2 -129 -67 -177 -102 -258 -188 -47 -50 -91
-91 -99 -91 -8 0 -11 -3 -8 -7 4 -3 -2 -16 -13 -28 -18 -19 -19 -26 -9 -54 9
-25 9 -43 0 -72 -15 -50 -57 -74 -117 -65 l-42 5 5 -61 c4 -54 3 -60 -10 -49
-13 10 -18 9 -27 -9 -6 -11 -8 -25 -4 -31 4 -6 3 -14 -2 -18 -8 -5 -23 -32
-43 -76 -2 -5 4 -2 13 8 19 18 36 22 36 9 0 -19 -85 -92 -107 -92 -16 0 -27
-8 -33 -24 -12 -32 -28 -41 -45 -26 -19 16 -19 30 0 30 8 0 15 5 15 10 0 20
-34 9 -66 -22 l-32 -32 19 -38 c20 -40 26 -113 9 -123 -5 -3 -10 -1 -10 5 0 7
-6 10 -12 7 -7 -2 -12 -13 -10 -24 2 -13 -15 -39 -46 -72 -41 -43 -55 -52 -78
-49 -28 3 -29 5 -29 54 0 28 -5 57 -12 65 -14 17 -19 94 -8 128 8 24 7 24 -35
17 -24 -4 -59 -14 -77 -23 -18 -8 -40 -12 -49 -9 -9 3 -28 -3 -44 -14 -42 -30
-58 -25 -82 26 l-21 46 24 19 c99 77 158 99 264 99 55 0 66 4 115 39 76 55
141 111 170 145 24 29 24 29 2 24 -12 -4 -22 -2 -22 3 0 5 -7 9 -15 9 -8 0
-20 9 -27 20 -7 11 -18 20 -25 20 -19 0 -16 12 12 50 21 29 23 35 10 43 -8 4
-20 5 -26 1 -6 -3 -21 4 -33 15 -13 12 -36 25 -52 30 -36 9 -42 29 -10 37 13
3 27 12 30 20 3 8 19 14 35 14 23 0 37 -10 63 -42 18 -22 44 -53 58 -67 14
-14 36 -41 49 -58 12 -18 29 -33 37 -33 45 0 163 162 132 181 -7 5 -20 9 -28
9 -8 0 -30 9 -48 20 -21 13 -52 20 -85 21 -67 1 -102 11 -102 29 0 26 -184 22
-270 -5 -100 -31 -203 -39 -251 -19 -50 21 -74 14 -281 -86 -153 -74 -163 -80
-184 -121 -16 -30 -23 -62 -23 -102 -1 -52 -3 -58 -24 -64 -18 -4 -33 3 -60
29 -20 19 -46 38 -56 42 -24 8 -122 -38 -136 -64 -6 -10 -9 -61 -8 -112 2 -51
-1 -132 -6 -181 -10 -101 -6 -109 62 -138 62 -27 121 -25 166 6 20 14 45 25
55 25 10 0 68 23 127 51 60 28 125 58 144 66 19 9 59 31 89 50 29 19 63 33 74
31 25 -3 37 -38 14 -38 -9 0 -28 -13 -44 -30 -15 -16 -33 -30 -40 -30 -7 0
-17 -8 -22 -17 -9 -15 -12 -15 -20 -4 -6 10 -13 10 -29 2 -11 -6 -31 -11 -44
-11 -29 -1 -95 -35 -88 -47 3 -4 -13 -11 -35 -14 -63 -10 -95 -26 -95 -49 0
-26 -24 -36 -54 -22 -19 8 -28 6 -51 -14 -15 -13 -30 -24 -32 -24 -19 0 -93
24 -93 30 0 4 -10 10 -22 13 -13 3 -37 11 -55 18 -28 11 -38 10 -100 -15 -84
-34 -135 -86 -109 -112 25 -24 19 -34 -18 -34 -33 0 -66 -21 -66 -40 0 -8 -53
-68 -147 -167 -22 -23 -83 -33 -83 -13 0 6 7 10 15 10 26 0 93 38 109 62 16
22 15 23 -11 30 -16 5 -62 7 -105 7 -42 -1 -81 1 -86 5 -21 13 -64 -19 -124
-93 -34 -42 -68 -80 -75 -84 -21 -13 -15 -22 25 -42 37 -19 37 -19 10 -23 -58
-7 -92 42 -70 101 l11 30 -22 -20 c-12 -11 -42 -23 -67 -27 -50 -8 -185 -73
-245 -119 -22 -17 -46 -35 -52 -40 -8 -6 -13 -6 -13 1 0 14 127 108 218 162
57 33 77 52 92 83 11 23 20 49 20 58 0 10 4 21 10 24 26 16 48 209 30 255 -16
39 -62 55 -113 40 -23 -7 -53 -17 -66 -24 -14 -6 -61 -10 -115 -8 -183 6 -190
6 -261 -21 -99 -38 -140 -90 -123 -157 5 -19 15 -70 23 -112 7 -42 17 -83 21
-90 4 -6 7 -54 6 -106 -2 -59 2 -100 9 -108 6 -8 11 -34 11 -59 l-1 -45 45 0
c50 0 114 28 156 68 53 50 27 13 -42 -59 -61 -65 -80 -89 -66 -89 2 0 23 7 46
15 50 18 96 21 68 5 -9 -6 -28 -11 -42 -12 -52 -5 -12 -12 85 -15 93 -3 105
-6 144 -33 37 -26 109 -104 110 -120 1 -3 6 -14 12 -25 31 -56 56 -194 33
-180 -5 3 -10 15 -10 26 0 30 -18 23 -25 -10 -3 -16 -13 -35 -21 -42 -10 -8
-11 -15 -4 -24 13 -16 -21 -99 -44 -108 -9 -4 -16 -13 -16 -21 0 -9 -7 -12
-20 -9 -16 4 -20 0 -20 -20 0 -14 -3 -32 -6 -41 -7 -19 -26 -22 -23 -3 1 6 1
21 0 31 -1 18 -2 18 -19 3 -10 -10 -24 -17 -30 -17 -7 0 -12 -4 -12 -10 0 -5
7 -10 15 -10 8 0 15 -4 15 -9 0 -14 -25 -20 -41 -10 -21 13 -29 11 -23 -6 4
-9 0 -16 -7 -16 -8 -1 -25 -3 -39 -4 -14 -1 -32 -5 -41 -9 -11 -5 -19 -1 -23
9 -3 9 -11 13 -16 10 -6 -4 -16 -2 -23 3 -7 6 -23 12 -37 14 -14 1 -30 10 -37
18 -16 21 -23 10 -12 -18 5 -13 18 -26 29 -29 11 -3 20 -9 20 -13 0 -4 16 -18
36 -29 20 -12 34 -25 31 -28 -13 -12 -121 64 -160 112 -48 60 -64 97 -83 187
-25 120 10 260 91 358 25 30 45 62 45 72 0 9 8 19 17 22 10 3 -2 3 -27 1 -75
-8 -125 -17 -130 -24 -3 -3 -32 -19 -65 -34 -67 -32 -257 -207 -311 -287 -18
-28 -37 -45 -49 -45 -30 0 -22 36 21 95 20 28 35 53 32 55 -8 8 -105 -43 -163
-88 -33 -25 -62 -43 -65 -40 -3 3 22 29 54 59 33 30 57 56 55 58 -2 2 -51 19
-109 38 -89 29 -107 39 -120 64 -8 16 -29 52 -47 81 -17 28 -46 79 -63 112
-17 33 -38 65 -46 72 -8 6 -14 18 -14 25 0 8 -4 14 -10 14 -5 0 -10 6 -10 13
0 7 -61 73 -135 147 -74 74 -135 138 -135 141 0 16 -69 84 -132 130 -59 44
-169 99 -198 99 -7 0 -10 -260 -10 -790 0 -750 1 -790 18 -782 25 14 92 24 92
15 0 -13 -14 -29 -30 -36 -8 -4 -28 -15 -45 -25 l-30 -19 0 -264 0 -264 25 -3
c13 -2 31 -12 40 -21 8 -9 26 -22 40 -28 47 -22 -13 -15 -64 7 l-46 19 0
-1769 0 -1770 761 0 c677 0 760 2 755 15 -3 9 -19 64 -36 123 -17 59 -37 119
-46 135 -24 44 -32 118 -20 203 9 60 8 110 -1 204 -15 145 -15 284 0 320 20
49 29 117 36 265 5 83 15 191 24 240 9 50 18 119 21 155 4 60 8 68 43 98 60
53 294 172 357 182 30 5 73 14 95 21 23 7 43 10 45 8 4 -4 -27 -147 -46 -211
-8 -27 -8 -73 -1 -165 7 -79 7 -147 2 -178 -18 -102 -49 -392 -49 -465 -1 -41
-8 -120 -16 -175 -8 -55 -17 -120 -20 -145 -13 -118 -44 -455 -50 -537 l-7
-93 3222 0 3221 0 0 33 c0 42 37 115 71 140 62 45 211 39 284 -12 30 -20 44
-25 51 -17 6 6 9 17 6 24 -4 14 14 16 23 3 3 -6 6 -46 7 -90 l1 -81 1603 0
1604 0 0 160 c0 88 -3 160 -7 160 -14 0 -73 -40 -73 -49 0 -5 -21 -22 -47 -39
-38 -25 -51 -29 -66 -20 -12 6 -43 7 -81 3 -34 -4 -71 -7 -84 -7 -27 0 -54 20
-46 34 4 5 -8 23 -25 38 -35 33 -39 64 -16 130 11 31 13 64 9 126 -5 56 -3 88
4 97 7 8 9 17 6 20 -3 3 -6 44 -5 91 1 72 -1 86 -14 86 -24 0 -72 -27 -78 -44
-8 -21 -94 -63 -145 -70 -23 -3 -51 -10 -61 -16 -25 -13 -128 -13 -136 0 -3 6
-14 10 -24 10 -53 0 -106 126 -99 236 6 84 31 141 86 190 47 42 84 60 167 81
55 13 76 14 137 4 114 -18 158 -21 159 -11 18 136 21 398 10 653 -7 150 -14
281 -15 291 -2 17 -10 19 -64 17 -79 -3 -99 4 -117 39 -18 35 -20 64 -3 54 8
-5 9 3 5 29 -4 28 -2 37 9 37 17 0 19 16 2 23 -7 3 -4 6 7 6 11 1 32 15 47 31
18 21 35 30 56 30 53 0 80 -17 111 -71 l30 -53 12 27 c7 15 16 27 20 27 15 0
69 89 69 114 0 19 -10 32 -37 50 -38 24 -139 116 -128 116 3 0 1 9 -5 19 -7
13 -7 22 0 26 5 3 10 16 10 27 0 23 56 79 103 104 35 19 159 25 210 11 21 -6
54 -26 73 -46 l34 -35 0 91 0 92 -49 -30 c-32 -20 -62 -30 -88 -31 -49 0 -85
17 -81 40 2 11 -3 16 -15 14 -24 -4 -56 69 -57 126 0 71 44 130 123 167 37 17
104 17 150 0 16 -7 17 17 17 409 l0 416 -20 -20 c-21 -21 -37 -24 -64 -14 -22
9 -20 47 5 69 17 16 25 17 50 8 l29 -11 0 293 c0 271 -1 294 -17 298 -17 4
-17 5 0 6 16 1 17 73 17 1371 0 1089 -3 1370 -12 1370 -10 0 -9 3 1 9 18 12
13 13 -209 55 -102 19 -381 73 -620 119 -257 50 -439 81 -444 76 -17 -16 -65
-10 -75 9 -7 13 -32 21 -98 31 -48 7 -126 22 -173 33 -75 17 -1061 208 -1075
208 -3 0 -5 -60 -6 -132 0 -73 -4 -189 -8 -258 -6 -90 -5 -133 4 -155 8 -21
12 -89 10 -214 l-2 -183 38 -24 c40 -25 69 -69 69 -104 0 -34 -31 -78 -67 -95
-38 -18 -35 6 -34 -278 0 -87 3 -162 6 -168 8 -12 -15 -152 -26 -159 -11 -8
-14 -53 -6 -67 5 -8 3 -13 -3 -13 -6 0 -8 -4 -5 -10 3 -5 0 -10 -9 -10 -27 0
-24 -25 7 -52 21 -19 28 -33 24 -48 -3 -11 -2 -22 2 -24 4 -3 6 -43 5 -91 0
-47 2 -87 5 -90 4 -2 5 -25 4 -51 -2 -35 2 -50 15 -60 16 -12 16 -14 -1 -47
-21 -38 -25 -91 -28 -339 -1 -140 1 -172 15 -193 21 -32 20 -51 -4 -75 -26
-26 -36 -25 -68 7 -26 26 -92 41 -92 22 0 -5 -7 -6 -15 -3 -10 4 -15 0 -15
-12 0 -15 -2 -16 -9 -5 -6 10 -23 13 -53 11 -23 -2 -63 -3 -88 -2 -25 1 -58 2
-75 2 -23 0 -27 3 -15 10 13 9 7 14 -12 11 -11 -1 -10 3 7 35 17 33 20 58 5
49 -5 -3 -10 -16 -11 -28 0 -15 -2 -17 -6 -7 -3 8 -12 19 -19 23 -22 13 -17
22 19 35 51 18 89 16 85 -5 -6 -38 35 -57 72 -33 27 17 -19 51 -76 57 -27 2
-53 9 -59 15 -7 7 -3 8 12 3 18 -5 22 -3 17 9 -3 9 -12 16 -19 16 -7 0 -16 10
-20 23 -6 19 -8 19 -12 5 -2 -10 -13 -18 -23 -18 -14 0 -18 -5 -13 -16 3 -9 0
-20 -8 -25 -10 -6 -3 -9 21 -10 l35 -1 -32 -14 c-35 -15 -40 -23 -22 -41 8 -8
5 -15 -11 -26 -17 -12 -18 -15 -5 -20 19 -8 20 -31 1 -46 -7 -6 -11 -22 -9
-35 4 -18 0 -26 -16 -31 -23 -7 -41 0 -41 17 0 6 7 5 16 -3 15 -12 16 -11 9
11 -4 14 -14 32 -22 40 -14 13 -15 13 -10 -2 7 -19 -27 -53 -42 -43 -6 3 -14
-1 -17 -9 -3 -9 -10 -13 -15 -11 -4 3 1 21 11 40 l20 35 -31 0 c-46 0 -31 24
19 31 23 3 46 1 52 -5 7 -7 14 -6 22 2 9 9 8 12 -7 12 -15 0 -17 2 -6 9 7 5
11 14 7 19 -4 6 -7 27 -8 47 -1 20 -5 38 -9 40 -7 5 3 64 15 84 10 16 -1 13
-23 -6 -11 -9 -17 -21 -14 -26 3 -4 -4 -3 -15 4 -27 17 -12 49 23 49 14 0 25
5 25 10 0 10 -13 14 -37 11 -17 -2 -36 37 -27 57 12 29 14 52 4 52 -15 0 -12
36 5 50 23 19 18 35 -27 79 -41 41 -58 50 -58 31 0 -5 5 -10 11 -10 6 0 9 -12
7 -27 -3 -24 -8 -27 -38 -28 -31 0 -35 3 -38 28 -2 15 1 27 7 27 6 0 11 7 11
15 0 8 5 15 10 15 6 0 10 4 10 8 0 5 -10 8 -22 8 -30 -1 -36 30 -8 39 15 5 26
1 34 -11 12 -16 14 -16 28 4 8 12 17 19 21 16 3 -3 4 7 2 23 -3 22 5 36 36 64
21 20 39 43 39 50 0 10 -3 10 -12 1 -21 -21 -28 -13 -28 28 0 30 7 46 30 70
17 17 30 38 30 48 0 24 -16 46 -28 38 -13 -8 -24 25 -21 67 1 17 -3 45 -10 60
-6 16 -8 34 -4 40 7 11 13 63 13 105 0 12 0 32 0 45 0 81 -2 105 -13 130 -10
24 -16 27 -40 23 -19 -4 -30 -1 -33 9 -7 17 13 46 30 44 23 -4 46 14 46 35 0
13 11 33 25 46 21 20 25 31 23 79 -1 48 -2 50 -5 16 l-5 -40 -14 35 c-21 47
-28 202 -13 245 7 18 21 36 32 39 15 4 18 10 13 30 -3 14 -2 26 2 26 5 0 7 11
4 25 -3 20 -9 24 -27 19 -29 -7 -71 31 -80 71 -9 45 29 98 75 105 23 3 36 11
38 23 4 21 -21 23 -38 2 -11 -13 -16 -12 -41 8 -15 12 -28 28 -28 36 -1 10 -8
11 -28 5 -16 -4 -41 -8 -58 -8 -26 -1 -30 3 -33 27 -3 22 6 37 37 69 23 22 41
46 41 53 0 7 16 26 36 41 45 36 58 66 55 127 -2 28 1 47 8 47 6 0 11 -30 13
-72 3 -67 5 -73 24 -71 12 1 32 -9 44 -22 30 -32 49 -31 77 2 26 29 26 32 14
52 -8 12 -12 12 -25 2 -14 -12 -16 -10 -16 8 0 11 6 21 13 21 21 0 8 62 -17
82 -18 15 -19 20 -8 38 7 11 10 25 7 30 -3 5 3 17 14 27 20 18 20 19 0 78 -10
32 -25 63 -32 67 -9 6 -9 8 1 8 8 0 12 16 12 44 0 25 5 48 12 52 8 5 6 10 -8
15 -34 13 -43 10 -38 -13 8 -36 8 -71 -1 -92 -5 -11 -3 -26 3 -37 16 -25 15
-30 -3 -22 -13 4 -15 -3 -11 -42 2 -26 10 -51 17 -56 17 -10 -6 -39 -31 -39
-15 0 -17 10 -15 84 1 46 5 88 9 94 3 5 -1 15 -9 22 -10 8 -15 31 -15 65 l0
53 -71 16 c-103 24 -159 30 -159 19 0 -6 -12 -22 -26 -37 -33 -32 -91 -36
-120 -6 -41 42 -46 53 -31 78 6 8 2 12 -13 12 -12 0 -18 -4 -15 -10 3 -5 -4
-10 -15 -10 -15 0 -20 5 -17 14 7 17 14 15 -203 56 -221 41 -461 89 -482 96
-17 5 -18 -28 -17 -608z m895 214 c6 -4 19 -22 29 -39 11 -18 23 -33 29 -33 5
0 6 -24 3 -55 -5 -53 -5 -55 19 -55 27 0 34 -27 8 -37 -8 -3 -13 -11 -11 -18
7 -17 -22 -73 -42 -80 -13 -4 -16 -14 -13 -44 3 -24 -2 -48 -12 -63 -9 -14
-14 -27 -11 -30 13 -12 22 -113 13 -144 -15 -56 -52 -76 -129 -73 -37 2 -73
-1 -80 -7 -24 -19 -64 -2 -67 29 -2 18 2 29 12 33 16 6 23 45 9 43 -5 -1 -20
-1 -35 0 -20 1 -26 5 -22 16 4 8 2 15 -3 15 -11 0 -43 -37 -43 -50 0 -6 -9
-19 -19 -29 -11 -11 -25 -29 -31 -41 -14 -25 -33 -16 -24 12 3 11 7 30 9 41 1
12 4 29 6 37 2 8 -2 14 -8 12 -24 -4 -13 26 12 32 18 5 26 15 32 44 4 20 6 41
5 45 -5 17 29 18 63 1 36 -17 36 -17 78 14 30 21 43 38 45 58 3 26 41 74 57
74 4 0 13 7 22 15 11 12 13 27 9 63 -21 153 -16 184 34 209 29 15 41 16 56 5z
m-643 -104 c4 -10 8 -10 15 1 14 20 46 -1 66 -43 11 -24 25 -36 46 -41 17 -4
30 -13 30 -21 0 -8 11 -19 25 -24 25 -10 33 -34 15 -45 -6 -3 -7 -18 -4 -32 5
-17 3 -24 -3 -20 -6 4 -13 0 -16 -7 -3 -8 -15 -20 -26 -25 -26 -15 -59 19 -55
55 2 25 2 25 -16 9 -26 -23 -54 -12 -48 18 4 20 1 23 -24 19 -43 -6 -91 41
-85 83 5 38 22 71 39 78 23 9 36 7 41 -5z m2334 -18 c36 0 56 -67 33 -110 -19
-35 -48 -43 -85 -26 -19 9 -38 22 -42 29 -13 20 -10 57 5 57 10 0 13 8 10 25
-5 26 11 36 47 29 11 -2 25 -4 32 -4z m751 -431 c32 -31 35 -57 11 -83 -5 -6
-9 -20 -9 -31 0 -35 -32 -56 -75 -52 -77 8 -116 86 -76 151 23 36 36 43 87 45
21 1 39 -8 62 -30z m-3085 -92 c12 11 47 -29 47 -53 0 -27 17 -41 33 -25 17
17 46 13 78 -10 40 -28 51 -52 39 -84 -25 -66 -91 -92 -140 -55 -20 15 -24 27
-25 64 0 25 -1 46 -2 46 -1 0 -13 -4 -28 -10 -52 -20 -105 29 -91 85 7 28 55
58 72 44 6 -5 14 -6 17 -2z m3493 -36 c43 -26 63 -72 54 -123 -12 -65 -39 -92
-95 -96 -44 -3 -50 0 -81 34 -19 20 -37 47 -40 60 -4 15 -14 24 -25 24 -23 0
-23 3 -3 46 10 21 24 34 35 34 11 0 19 4 19 8 0 13 42 31 75 31 17 1 44 -7 61
-18z m-3088 -262 c2 -21 7 -26 23 -22 15 4 19 0 19 -18 0 -18 3 -20 12 -11 20
20 58 15 58 -8 0 -18 -5 -20 -36 -18 -49 4 -55 -17 -10 -32 64 -21 56 -82 -10
-77 -29 2 -33 5 -29 25 2 12 -1 22 -7 22 -5 0 -8 -6 -5 -13 8 -22 -29 -56 -71
-65 -49 -11 -72 0 -73 36 0 24 -1 25 -9 7 -8 -19 -9 -19 -9 3 -1 13 -5 21 -10
17 -14 -8 -23 12 -16 34 3 12 12 17 23 14 13 -3 18 3 19 28 1 18 9 37 18 41 8
5 22 23 31 39 13 25 20 30 47 27 26 -2 33 -8 35 -29z m2238 15 c17 -12 23 -22
19 -35 -5 -14 -2 -17 9 -13 9 3 16 1 16 -5 0 -6 -4 -11 -9 -11 -4 0 -6 -10 -4
-23 7 -34 -27 -70 -68 -72 -41 -3 -79 18 -79 45 0 10 -4 21 -9 25 -15 8 6 68
30 88 27 21 62 22 95 1z m-2385 -357 c45 5 50 4 79 -27 20 -22 30 -40 26 -53
-4 -17 -3 -18 13 -3 22 20 31 20 31 2 0 -23 -92 -114 -123 -121 -71 -18 -133
60 -120 152 6 49 21 69 37 53 5 -5 30 -6 57 -3z m-2892 -61 c9 -11 4 -21 -25
-50 -20 -20 -40 -36 -45 -36 -5 0 -4 -9 3 -21 11 -17 10 -22 -6 -35 -22 -16
-121 -20 -111 -4 3 6 -3 10 -15 10 -12 0 -18 4 -15 10 3 5 19 7 35 3 35 -6 41
11 10 27 -11 6 -20 15 -20 19 0 11 74 41 100 41 11 0 20 5 20 10 0 6 7 10 15
10 9 0 18 7 21 15 8 19 18 19 33 1z m3221 -124 c0 -4 -5 -13 -11 -19 -8 -8 -8
-17 -1 -29 6 -11 7 -27 1 -41 -5 -12 -5 -22 -1 -22 41 6 42 -17 2 -60 -18 -21
-35 -31 -45 -28 -20 8 -19 20 5 42 11 10 20 22 20 27 0 14 -48 9 -54 -7 -12
-33 -33 -14 -45 40 -14 64 -7 80 38 87 24 4 27 1 24 -16 -4 -18 -1 -17 19 6
22 26 48 37 48 20z m-357 -69 c21 -37 17 -60 -19 -103 -14 -16 -23 -34 -19
-39 7 -12 -49 -71 -68 -71 -8 0 -20 7 -27 15 -7 8 -17 12 -22 9 -6 -4 -8 8 -7
30 2 24 -1 40 -11 46 -12 8 -12 11 1 27 9 10 21 37 28 61 14 48 36 62 91 59
27 -2 38 -9 53 -34z m-2293 -25 c44 -19 150 -116 150 -137 0 -11 -11 -4 -33
19 -39 42 -81 45 -71 5 l6 -25 -53 17 c-30 9 -67 17 -84 18 -27 2 -30 5 -27
33 2 18 -1 32 -7 32 -5 0 -11 -12 -13 -27 -3 -23 -11 -29 -58 -43 -123 -37
-161 -72 -173 -159 -5 -40 -30 -81 -49 -81 -12 0 -9 90 6 131 34 96 155 210
241 229 47 10 127 4 165 -12z m3762 -12 c28 -33 23 -83 -11 -117 -30 -30 -55
-37 -66 -19 -3 6 -15 10 -25 10 -42 0 -65 63 -40 110 26 49 107 58 142 16z
m-3358 8 c9 -8 16 -23 16 -33 0 -42 39 -127 66 -143 49 -30 55 -64 18 -108
-22 -25 -32 -30 -53 -25 -34 8 -51 32 -51 72 0 22 7 37 20 45 26 16 25 22 -4
36 -14 6 -27 23 -31 40 -4 21 -14 32 -30 36 -25 7 -43 45 -30 66 6 10 40 28
57 29 4 1 14 -6 22 -15z m2126 -173 c-9 -18 -8 -19 22 -10 36 10 67 -6 48 -25
-17 -17 -11 -40 20 -69 17 -16 30 -33 30 -39 0 -6 13 4 28 22 l29 33 6 -32 c4
-19 13 -31 23 -31 11 0 14 -5 10 -16 -4 -12 -2 -15 9 -10 18 7 20 -14 3 -34
-11 -12 -10 -12 4 -1 17 13 38 8 38 -9 0 -18 -40 -32 -55 -20 -10 8 -15 8 -20
0 -8 -14 -56 -4 -67 13 -4 7 -8 22 -8 35 0 23 -10 28 -25 13 -6 -5 -21 -11
-34 -13 -22 -3 -24 -8 -27 -61 -2 -63 -17 -90 -44 -82 -11 4 -20 -1 -24 -12
-10 -25 -8 -28 18 -25 27 4 41 -30 25 -60 -12 -22 -47 -24 -55 -3 -8 21 -30
19 -46 -3 -7 -11 -26 -21 -41 -24 -32 -6 -51 15 -60 69 -5 27 -2 36 26 59 18
15 24 25 14 21 -14 -5 -17 -3 -13 11 5 16 2 18 -24 14 -23 -3 -37 1 -52 18
-12 13 -17 25 -11 29 6 3 18 22 28 41 10 19 20 29 22 23 5 -15 49 -17 58 -3 3
5 12 7 20 4 21 -8 30 22 18 59 -14 46 1 82 42 101 19 9 37 21 40 26 3 6 13 10
21 10 11 0 12 -4 4 -19z m2450 -1 c-14 -11 -28 -20 -32 -20 -9 0 15 -50 25
-50 14 0 7 -58 -10 -78 -18 -21 -35 -25 -85 -23 -41 2 -61 38 -53 95 8 53 40
80 92 78 18 -1 35 3 38 8 3 6 16 10 28 10 22 0 22 -1 -3 -20z m-5071 -39 c16
-12 20 -20 12 -25 -9 -6 -9 -11 -1 -21 9 -10 7 -19 -7 -34 -33 -36 -38 -46
-40 -71 -6 -78 -10 -99 -21 -113 -7 -8 -9 -18 -5 -20 12 -8 28 4 36 26 3 9 14
17 23 17 13 0 15 -7 9 -42 -8 -50 -20 -74 -48 -105 -15 -17 -18 -30 -13 -54 3
-19 0 -41 -8 -58 -8 -14 -22 -46 -32 -71 -10 -25 -23 -51 -30 -59 -8 -9 -9
-23 -3 -44 7 -24 5 -33 -9 -43 -9 -7 -22 -14 -29 -14 -20 0 -25 -19 -13 -54 8
-24 19 -36 38 -41 15 -4 22 -9 15 -12 -7 -2 -21 1 -32 7 -16 8 -21 8 -21 -1 0
-6 -8 -21 -17 -33 -24 -28 -71 -28 -100 2 -21 20 -43 29 -43 17 0 -2 17 -16
37 -29 36 -25 52 -59 33 -71 -5 -3 -7 -12 -4 -19 4 -10 -5 -14 -36 -13 -26 1
-45 -4 -50 -13 -7 -12 -10 -12 -15 3 -4 9 -17 16 -28 16 -78 -3 -475 33 -537
48 l-75 18 235 7 c129 4 273 11 320 15 95 9 88 1 109 117 8 47 8 65 -4 90 -7
17 -19 50 -26 74 -11 36 -10 45 1 52 8 5 17 7 21 4 4 -2 20 22 34 53 15 32 40
83 55 113 37 74 73 177 72 209 -1 14 4 48 11 74 22 95 122 147 186 98z m4719
-203 c6 -30 6 -63 1 -81 -5 -19 -5 -35 2 -43 13 -16 -8 -31 -23 -16 -6 6 -19
6 -38 -1 -22 -8 -38 -7 -74 7 -46 18 -46 18 -46 64 0 76 49 117 141 121 24 1
27 -4 37 -51z m-3905 -94 c-5 -14 -3 -15 16 -5 12 7 27 11 34 8 7 -2 1 -9 -12
-17 l-24 -12 24 -14 c19 -10 20 -13 7 -14 -10 0 -18 -5 -18 -11 0 -7 10 -9 25
-5 21 6 25 3 25 -18 0 -13 -7 -27 -16 -30 -8 -3 -13 -10 -10 -15 3 -4 -3 -16
-14 -26 -18 -16 -20 -16 -20 -2 0 20 -16 23 -23 5 -4 -10 -8 -9 -16 2 -6 8
-11 11 -11 5 0 -12 -40 46 -40 58 0 5 4 5 10 2 6 -3 7 1 4 9 -4 9 5 29 20 47
14 17 26 35 26 40 0 5 4 9 10 9 5 0 7 -7 3 -16z m-2303 -150 c43 -39 50 -63
24 -85 -9 -7 -19 -22 -23 -33 -7 -16 -11 -12 -30 27 -31 64 -48 76 -67 49 -20
-29 -42 -28 -56 3 -13 30 3 55 36 55 11 0 28 5 36 10 25 16 38 12 80 -26z
m5395 6 c19 -16 29 -85 15 -109 -6 -12 -20 -21 -31 -21 -11 0 -17 -4 -14 -10
12 -19 -55 -10 -75 10 -21 21 -28 84 -10 95 6 3 10 17 10 29 0 21 4 23 46 20
26 -2 52 -8 59 -14z m173 -186 c12 -4 22 -11 22 -16 0 -5 7 -16 15 -24 8 -9
15 -32 15 -53 0 -20 5 -42 10 -47 16 -16 1 -43 -26 -50 -14 -4 -54 -4 -91 -2
-78 5 -103 26 -103 89 0 33 5 41 30 54 16 8 34 24 40 35 11 20 44 25 88 14z
m-2811 -40 c3 -8 -1 -22 -9 -31 -14 -13 -14 -18 -1 -44 13 -25 12 -32 -2 -63
-32 -66 -114 -68 -147 -4 -17 33 -18 39 -4 71 11 28 23 38 53 46 21 6 42 11
46 11 5 0 15 7 23 15 20 19 33 19 41 -1z m2574 -37 c9 -7 21 -21 26 -32 13
-24 5 -76 -11 -74 -25 3 -36 -2 -36 -15 0 -8 -7 -17 -16 -20 -30 -11 -37 -6
-19 14 18 20 18 21 -16 18 -31 -3 -34 0 -43 34 -7 28 -6 41 5 54 26 32 82 43
110 21z m-3525 -22 c3 -14 1 -31 -5 -39 -18 -22 -3 -64 27 -76 26 -10 26 -10
-5 -5 -26 3 -35 0 -45 -18 -15 -28 -19 -49 -7 -41 5 3 9 12 9 20 0 9 10 14 28
14 15 0 37 3 48 6 25 7 43 -24 22 -37 -9 -6 -8 -10 6 -15 18 -7 18 -8 1 -20
-9 -7 -14 -17 -11 -22 8 -13 -12 -28 -47 -36 -20 -5 -29 -2 -33 9 -3 8 -10 13
-15 10 -15 -10 -31 37 -26 76 4 28 0 43 -15 58 -19 22 -17 61 3 61 6 0 7 5 4
10 -3 6 1 17 9 26 9 8 20 12 26 9 14 -9 13 8 -2 23 -9 9 -8 12 5 12 9 0 19
-11 23 -25z m4272 -27 c23 -19 43 -68 37 -88 -7 -23 -96 -54 -129 -46 -16 4
-26 18 -35 45 -11 37 -13 39 -34 30 -13 -6 -32 -29 -43 -52 -26 -57 -56 -61
-101 -12 -18 20 -33 40 -33 45 0 11 56 23 103 22 25 -1 40 3 43 13 3 8 26 28
50 44 40 26 48 28 86 19 23 -5 48 -14 56 -20z m1067 -18 c4 0 23 -7 42 -17 39
-18 54 -47 42 -80 -5 -15 -3 -25 6 -33 18 -15 6 -41 -34 -76 -26 -23 -58 -33
-46 -15 3 5 -4 12 -15 16 -11 3 -20 12 -21 18 -1 7 -2 25 -3 40 -2 15 -8 33
-14 39 -7 7 -12 27 -12 44 0 18 -4 36 -10 39 -17 11 -11 31 13 42 17 8 25 8
33 -3 6 -8 15 -14 19 -14z m-4285 0 c6 -11 21 -20 34 -20 13 0 34 -10 48 -23
l25 -23 -19 -37 c-22 -45 -57 -56 -94 -32 -24 16 -26 16 -39 -1 -11 -16 -15
-16 -29 -5 -29 25 -19 44 21 40 8 -1 21 28 22 49 1 6 -5 12 -13 12 -16 0 -31
34 -21 50 11 18 54 11 65 -10z m-137 -173 c4 3 7 -3 7 -15 l0 -22 20 20 c25
25 32 25 54 1 17 -19 17 -21 -5 -50 -12 -17 -19 -34 -15 -38 7 -8 12 -9 54
-11 18 -2 22 -8 22 -35 0 -20 -7 -40 -17 -49 -20 -17 -54 -32 -65 -30 -5 1 -8
-3 -8 -8 0 -13 23 -13 37 1 8 8 18 6 37 -7 29 -22 33 -39 10 -48 -19 -7 -37 2
-29 15 4 5 2 9 -4 9 -5 0 -11 -5 -13 -10 -4 -12 -141 -20 -158 -10 -6 4 -10
13 -8 20 2 7 -4 14 -13 15 -9 2 -31 6 -49 10 -23 5 -30 4 -26 -4 4 -6 13 -11
21 -11 20 0 24 -23 6 -37 -9 -7 -29 -13 -45 -13 -23 0 -27 3 -23 20 3 11 0 20
-6 21 -8 0 -8 2 1 6 6 2 12 11 12 19 0 20 22 27 51 16 26 -10 49 4 41 26 -2 6
4 12 14 12 14 0 15 3 6 12 -10 10 -15 10 -22 -2 -8 -13 -12 -13 -27 3 -12 12
-14 20 -7 25 6 4 14 14 18 22 25 52 37 65 68 70 31 5 33 8 30 39 -2 28 0 32
11 23 8 -7 17 -9 20 -5z m287 -64 c0 -7 7 -13 16 -13 8 0 13 -4 10 -9 -6 -9
22 -26 37 -22 5 1 6 -8 2 -20 -6 -17 -3 -20 16 -17 41 6 31 -20 -16 -41 -33
-15 -52 -18 -69 -11 -13 5 -27 6 -31 2 -3 -4 -11 1 -16 11 -10 18 -39 24 -39
8 0 -5 -9 -7 -20 -4 -23 6 -27 38 -5 47 8 3 23 3 33 0 14 -5 15 -4 2 5 -11 7
-12 15 -5 26 13 21 31 19 28 -3 -2 -16 13 -32 31 -32 5 0 4 6 -2 13 -7 8 -7
18 -1 27 7 12 10 11 15 -7 4 -13 10 -20 15 -18 11 7 0 35 -24 62 -11 12 -16
27 -12 34 6 9 12 7 22 -6 7 -11 13 -25 13 -32z m-730 -113 c9 -16 15 -18 36
-10 35 14 47 4 42 -36 -4 -33 -4 -33 14 -14 20 21 43 26 52 11 3 -5 15 -7 26
-4 12 3 20 0 20 -7 0 -7 -7 -10 -15 -7 -10 5 -16 -4 -21 -28 -5 -31 -24 -50
-24 -26 0 5 -9 11 -20 14 -13 3 -20 0 -20 -8 0 -24 -31 -45 -65 -45 -38 0 -52
14 -35 35 8 10 8 15 -1 21 -8 5 -3 12 15 21 28 15 31 20 16 43 -9 14 -11 13
-14 -10 0 -5 -4 -10 -8 -10 -5 0 -19 0 -33 0 -32 0 -55 41 -35 65 18 21 57 19
70 -5z m5095 -36 c30 -32 31 -46 8 -85 -17 -29 -84 -69 -115 -69 -19 0 -33 64
-23 109 14 66 87 91 130 45z m-2518 -1 c-4 -3 -2 -12 4 -19 15 -18 3 -34 -26
-34 -20 0 -25 -7 -33 -52 -5 -29 -10 -42 -11 -29 -1 17 -5 21 -17 17 -9 -3
-20 -6 -26 -6 -6 0 -8 -7 -4 -15 3 -8 0 -15 -6 -15 -7 0 -3 -6 8 -14 15 -12
17 -18 8 -33 -12 -20 -55 -25 -61 -7 -2 7 2 18 10 25 31 32 -9 52 -46 24 -11
-7 -25 -11 -33 -8 -20 7 -18 43 2 43 12 0 15 7 12 24 -4 18 2 28 23 40 18 10
26 22 22 31 -4 11 3 15 26 15 25 0 31 -4 29 -17 -4 -23 40 -31 48 -9 3 9 10
14 14 11 13 -8 40 6 40 21 0 8 5 14 12 14 6 0 8 -3 5 -7z m-3469 -54 c7 -10
35 -30 62 -45 27 -15 57 -38 66 -51 9 -15 21 -22 30 -19 20 8 54 -11 54 -30 0
-8 -12 -19 -26 -24 -23 -9 -25 -13 -19 -54 14 -89 -74 -196 -160 -196 -31 0
-44 -6 -67 -32 l-28 -33 -20 24 c-15 18 -20 19 -20 7 0 -25 -47 -21 -55 5 -5
14 -2 25 6 30 20 13 47 11 51 -3 3 -9 6 -9 12 0 4 6 -4 21 -20 34 -49 43 -77
104 -78 172 0 33 5 72 12 86 32 63 44 80 56 80 17 0 77 45 70 53 -3 3 -3 10 0
15 9 14 59 1 74 -19z m3587 -68 c8 -16 12 -31 9 -34 -3 -2 6 -28 20 -56 15
-31 20 -51 13 -51 -7 0 -5 -5 3 -10 25 -16 69 -11 82 9 9 15 15 17 30 8 10 -7
18 -20 18 -29 0 -16 27 -69 72 -143 20 -33 24 -100 7 -110 -6 -4 -13 2 -16 14
-7 25 -21 28 -23 4 -1 -10 -3 -39 -4 -64 -4 -53 -24 -119 -36 -119 -5 0 -28
-19 -51 -42 l-43 -43 27 -3 c15 -2 34 -13 42 -25 15 -21 15 -21 30 -2 13 19
14 17 15 -25 0 -26 5 -51 12 -58 14 -14 -10 -26 -39 -20 -10 2 -24 -3 -31 -12
-10 -13 -11 -10 -6 15 5 29 5 29 -11 10 -15 -19 -14 -21 11 -43 22 -19 24 -26
13 -33 -10 -6 -10 -9 -1 -9 19 0 14 -20 -5 -21 -15 0 -15 -2 2 -8 19 -8 19 -9
-5 -16 -14 -5 -41 -8 -60 -7 -56 3 -65 -9 -45 -52 10 -20 26 -41 37 -47 16 -9
18 -17 13 -52 -8 -57 -24 -94 -41 -101 -8 -3 -14 -14 -14 -24 0 -15 10 -21 38
-26 51 -8 107 -61 129 -122 14 -39 17 -72 15 -159 -5 -196 -4 -289 3 -327 6
-30 2 -46 -18 -80 -37 -63 -57 -81 -112 -101 -160 -58 -308 -73 -367 -37 -24
14 -36 16 -54 8 -29 -13 -58 6 -51 34 4 14 -1 20 -23 24 -22 5 -32 16 -49 56
-12 28 -21 61 -21 74 0 13 -5 24 -11 24 -6 0 -8 9 -4 23 5 16 4 18 -3 8 -14
-19 -42 -6 -42 19 0 21 14 27 25 10 12 -20 25 -10 25 19 0 20 -6 31 -17 34
-16 3 -16 5 2 12 30 13 44 36 45 74 0 40 -20 111 -31 111 -12 0 1 58 28 118
28 64 28 68 4 118 -29 60 -29 87 0 120 29 33 61 54 85 54 14 0 14 2 -1 16 -15
15 -14 18 5 31 17 12 27 13 46 4 13 -6 24 -15 24 -21 0 -5 7 -10 15 -10 8 0
15 -4 15 -10 0 -5 7 -10 16 -10 13 0 14 3 4 15 -6 8 -8 20 -4 27 6 9 3 9 -9
-1 -10 -8 -20 -11 -24 -7 -3 3 -1 6 5 6 7 0 12 5 12 10 0 6 -6 10 -14 10 -9 0
-12 7 -9 20 4 15 11 18 34 13 28 -5 59 9 59 28 0 15 -27 10 -34 -6 -7 -19 -30
-19 -45 -1 -9 11 -8 17 6 28 19 14 31 44 13 33 -5 -3 -10 -1 -10 6 0 7 -9 22
-19 33 -16 18 -18 28 -11 66 6 35 5 49 -6 61 -14 16 -11 69 5 69 3 0 12 9 19
21 11 18 11 20 -5 17 -12 -2 -18 3 -17 15 1 9 -2 17 -7 17 -14 0 -41 68 -35
88 4 12 1 22 -7 25 -20 8 -20 76 0 84 9 4 21 -1 28 -10 10 -15 14 -13 32 11
17 23 18 29 7 40 -16 15 -18 32 -5 32 6 0 6 12 0 32 -5 18 -9 36 -9 40 0 5 44
5 58 -1 1 0 -2 -10 -8 -21 -8 -16 -7 -27 7 -50 9 -17 22 -30 28 -30 19 0 35
23 35 51 0 15 5 31 10 34 6 4 20 25 31 47 17 33 19 45 9 62 -9 18 -7 31 9 69
11 26 24 47 29 47 9 0 25 37 23 52 0 4 8 10 19 13 23 7 26 21 8 28 -10 4 -10
8 2 16 18 12 26 7 45 -28z m-2315 15 c1 -27 31 -50 65 -49 39 1 49 -8 40 -36
-7 -24 -42 -17 -51 11 -7 24 -26 10 -44 -32 -14 -34 -40 -39 -95 -16 -27 11
-48 13 -90 6 -74 -12 -125 -3 -125 22 0 10 7 21 15 24 8 4 15 12 15 20 0 8 5
14 11 14 8 0 8 5 -1 15 -10 12 -10 15 4 15 9 0 16 -5 16 -12 0 -9 3 -9 12 0 8
8 18 7 39 -5 26 -16 29 -16 48 1 12 11 21 13 25 7 4 -7 18 -4 37 8 34 21 79
25 79 7z m1351 -98 c1 -7 2 -19 3 -26 0 -8 18 -20 39 -27 71 -24 89 -85 40
-132 -26 -23 -33 -25 -87 -19 -68 7 -89 20 -76 44 8 17 18 45 21 60 0 4 5 12
9 18 5 5 7 20 4 31 -5 18 -11 21 -40 16 -30 -5 -34 -3 -34 17 0 21 3 22 51 16
34 -5 49 -4 44 4 -3 5 1 10 9 10 9 0 17 -6 17 -12z m277 -52 c-25 -19 -22 -27
7 -20 14 3 32 1 40 -6 8 -6 18 -10 22 -7 4 3 19 0 33 -5 l25 -9 -24 -20 c-23
-19 -23 -19 -2 -19 14 0 21 -6 21 -20 0 -11 -7 -20 -15 -20 -21 0 -19 -44 3
-83 9 -18 20 -33 25 -35 23 -11 -20 -117 -52 -127 -26 -8 -71 11 -73 32 0 10
-2 23 -3 28 -2 6 -3 15 -4 21 0 7 -10 14 -21 17 -23 6 -27 35 -5 43 18 7 20
35 3 52 -7 7 -25 12 -41 12 -24 0 -28 3 -24 20 3 13 0 20 -9 20 -19 0 -18 29
1 36 8 4 15 15 15 25 0 20 24 49 56 68 27 15 42 13 22 -3z m-1823 -71 c65 -14
82 -25 104 -64 12 -20 33 -3 26 20 -6 17 -1 19 43 19 38 0 55 6 78 25 28 24
61 35 50 16 -8 -12 13 -28 46 -36 33 -8 45 -51 16 -58 -10 -3 -18 -10 -18 -15
0 -12 46 -22 57 -11 14 13 62 -2 68 -22 4 -10 9 -19 13 -19 4 0 14 -4 21 -9
12 -8 11 -13 -10 -30 -22 -18 -26 -18 -46 -5 -20 13 -23 13 -23 0 0 -8 5 -18
10 -21 6 -4 8 -11 5 -16 -4 -5 1 -16 9 -24 8 -9 12 -23 9 -31 -8 -20 -82 -13
-98 9 -15 21 -62 10 -69 -15 -4 -17 -10 -20 -35 -15 -40 8 -40 -5 0 -20 27
-10 31 -16 27 -38 -4 -21 -2 -25 11 -20 12 5 13 3 5 -5 -9 -9 -18 -8 -37 4
-16 11 -42 16 -73 15 -27 -2 -57 1 -66 5 -11 5 -22 1 -35 -13 -9 -12 -33 -24
-51 -27 -23 -5 -30 -9 -21 -15 21 -13 3 -22 -30 -14 -30 6 -43 27 -45 70 -1
11 -7 20 -14 20 -7 0 -36 25 -63 55 -48 53 -58 70 -41 70 5 0 14 22 21 49 7
28 19 55 27 62 19 15 18 25 -6 49 -17 17 -17 21 -5 34 20 19 19 27 -2 20 -10
-3 -7 2 7 10 14 9 34 14 45 11 11 -3 52 -12 90 -20z m-1467 -50 c2 -16 13 -38
23 -48 12 -11 18 -26 14 -37 -8 -26 32 -90 53 -83 10 3 7 -2 -6 -12 -13 -10
-21 -23 -18 -31 3 -8 2 -22 -4 -32 -5 -9 -12 -30 -16 -47 l-7 -30 -6 30 c-5
25 -11 30 -34 29 -122 -2 -140 -14 -57 -35 53 -14 66 -29 25 -29 -26 0 -120
45 -131 62 -3 5 -7 39 -9 76 -3 61 -1 70 23 95 14 15 32 27 39 27 8 0 11 5 8
10 -3 6 -1 10 4 10 6 0 11 -9 11 -20 0 -11 -6 -20 -14 -20 -8 0 -17 -4 -20 -9
-8 -13 38 -5 70 12 l29 16 -25 10 c-14 5 -18 10 -10 10 11 1 11 4 2 13 -13 13
-16 51 -5 62 4 4 19 6 33 4 20 -2 26 -9 28 -33z m2306 -62 c6 -14 9 -15 15 -4
6 8 9 -2 9 -28 0 -22 -3 -41 -9 -41 -5 0 -9 -5 -9 -11 0 -6 7 -9 15 -5 8 3 15
1 15 -5 0 -6 5 -7 10 -4 16 10 11 -4 -9 -26 -20 -22 -22 -53 -3 -55 7 -1 16
-2 20 -3 4 0 8 -11 9 -22 1 -12 -1 -19 -4 -15 -3 3 -14 1 -23 -4 -13 -7 -20
-6 -24 6 -3 8 -2 12 3 9 5 -3 12 -1 16 5 6 10 -10 15 -30 10 -5 -1 -20 -4 -32
-5 -12 -2 -29 -7 -38 -13 -14 -8 -12 -10 14 -15 24 -5 29 -10 24 -24 -7 -18
-30 -37 -48 -39 -5 -1 -18 -2 -28 -3 -10 0 -22 -12 -27 -26 -5 -14 -16 -25
-24 -25 -8 0 -22 -10 -30 -22 -9 -12 -23 -23 -33 -24 -22 -4 -42 36 -32 63 8
21 52 55 83 63 11 3 24 14 30 25 6 11 18 25 26 32 13 10 13 12 -2 18 -11 4
-24 0 -34 -10 -21 -21 -31 -7 -36 50 -3 34 0 40 27 54 17 9 33 21 38 28 4 6
28 22 53 35 25 12 41 24 35 26 -18 6 -12 22 8 22 10 0 22 -8 25 -17z m3854
-14 c8 -11 20 -18 26 -16 7 3 13 -1 13 -9 0 -7 -4 -11 -9 -8 -10 7 -10 1 1
-30 7 -18 6 -28 -5 -36 -7 -7 -14 -21 -14 -31 0 -12 -5 -16 -15 -13 -8 4 -15
1 -15 -5 0 -8 -16 -11 -45 -10 -25 2 -45 6 -45 11 0 4 -7 8 -15 8 -8 0 -15 5
-15 10 0 13 17 13 25 0 9 -14 28 -1 21 15 -2 7 0 17 6 23 6 6 5 17 -4 31 -11
18 -11 23 2 31 12 8 12 10 -2 15 -10 4 -22 4 -28 0 -5 -3 -10 1 -10 10 0 38
102 41 128 4z m-10526 -41 c-51 -65 -101 -93 -124 -70 -17 17 -51 -4 -73 -45
-18 -34 -24 -37 -70 -39 -92 -5 -116 -14 -165 -60 -29 -27 -51 -41 -55 -35 -3
6 -2 11 4 11 24 0 22 42 -3 75 -35 46 -35 91 1 99 15 4 29 3 33 -4 4 -6 13
-10 20 -8 8 2 19 -12 26 -32 13 -39 18 -40 101 -9 36 14 68 37 105 76 64 67
134 103 201 103 l49 0 -50 -62z m2942 -43 c35 -33 36 -86 1 -121 -30 -30 -56
-26 -100 17 l-30 29 25 1 25 0 -22 11 c-30 14 -29 33 2 63 31 32 65 32 99 0z
m603 -74 c12 -9 23 -19 23 -23 0 -5 7 -8 15 -8 8 0 22 -11 31 -26 14 -21 23
-25 57 -22 36 3 40 1 42 -24 2 -16 -2 -29 -11 -32 -8 -3 -14 -12 -14 -21 0
-17 16 -20 25 -5 3 6 10 10 14 10 12 0 23 -62 13 -69 -5 -3 -13 -14 -19 -24
-8 -15 -4 -25 19 -47 32 -33 36 -49 11 -51 -17 -1 -17 -2 0 -6 25 -7 21 -22
-8 -28 -14 -3 -37 -8 -52 -11 -16 -3 -35 -14 -43 -25 -9 -11 -27 -21 -40 -22
-14 -1 -31 -7 -38 -14 -10 -9 -9 -14 5 -22 33 -18 -12 -24 -108 -15 -55 6 -93
6 -96 1 -3 -5 -10 -2 -15 7 -12 22 -31 9 -24 -18 7 -32 -35 -60 -80 -52 -49
10 -71 46 -56 94 9 28 9 39 -2 52 -17 19 -27 60 -15 60 5 0 9 -10 9 -21 0 -21
34 -59 52 -59 13 0 10 12 -12 45 l-20 30 23 6 c21 5 21 6 -8 20 -24 11 -31 21
-33 52 -3 35 0 39 27 50 17 6 31 16 31 23 0 6 9 19 20 29 11 10 20 27 20 37 0
12 6 18 18 17 9 -1 28 3 42 10 23 10 22 11 -12 6 -21 -3 -38 -2 -38 3 0 10 44
32 65 32 21 0 57 38 42 43 -21 7 12 36 46 40 40 5 66 -1 94 -22z m3727 -48
c51 -31 65 -66 44 -110 -20 -41 -56 -57 -109 -49 -55 8 -85 47 -74 96 7 31 47
70 71 70 8 0 14 5 14 10 0 14 4 13 54 -17z m300 -54 c13 -20 13 -26 -4 -59
-12 -24 -15 -41 -9 -51 14 -23 11 -29 -16 -29 -28 0 -32 -18 -13 -50 15 -24 8
-31 -28 -32 -40 -1 -104 55 -96 85 7 31 22 47 43 47 21 0 23 8 9 44 -6 17 -14
24 -25 20 -8 -4 -15 -1 -15 6 0 7 8 10 20 7 13 -3 24 1 30 14 15 28 84 26 104
-2z m1080 -37 c6 -23 15 -42 20 -42 6 -1 20 -9 32 -18 27 -22 21 -76 -9 -97
-47 -33 -117 -6 -117 43 0 16 3 22 8 15 10 -16 58 -27 66 -15 3 6 -2 13 -13
17 -10 3 -22 17 -25 30 -3 13 -15 29 -27 35 -16 9 -18 14 -8 26 6 8 18 14 26
14 10 0 12 6 8 21 -6 17 -3 20 12 17 12 -2 21 -17 27 -46z m-4026 -42 c30 -28
30 -92 1 -121 -16 -16 -29 -20 -53 -15 -66 13 -90 95 -40 135 34 27 64 27 92
1z m-5144 -67 c3 -10 9 -24 12 -32 5 -9 2 -12 -7 -9 -11 4 -15 -8 -16 -58 -1
-51 2 -64 14 -64 23 0 9 -25 -17 -28 -18 -3 -21 0 -16 14 9 24 -32 68 -51 53
-9 -8 -17 -8 -26 0 -8 6 -17 8 -20 4 -4 -3 -7 3 -7 15 0 22 94 122 115 122 7
0 15 -8 19 -17z m7601 -13 c-3 -5 -1 -10 5 -10 6 0 9 -4 5 -9 -8 -13 57 -61
83 -61 29 0 64 -36 61 -63 -1 -12 3 -35 9 -50 7 -16 12 -35 12 -42 0 -22 -42
-44 -72 -38 -34 6 -47 22 -50 57 -1 15 -8 32 -15 38 -18 14 -16 53 2 72 21 20
19 26 -10 26 -16 0 -23 -4 -19 -13 7 -19 -74 -17 -86 3 -10 17 5 40 27 40 16
0 44 25 42 37 -2 13 1 23 7 23 3 0 2 -4 -1 -10z m-677 -62 c6 -7 13 -30 17
-51 6 -32 4 -41 -14 -53 -11 -8 -21 -24 -21 -35 0 -12 -7 -19 -20 -19 -11 0
-20 7 -20 15 0 19 -19 19 -44 0 -22 -16 -71 -21 -61 -6 3 5 1 12 -4 15 -5 4
-12 2 -16 -4 -11 -17 -25 -1 -25 29 0 60 51 82 105 45 l35 -23 1 22 c1 12 0
33 -1 46 -1 18 2 22 14 18 9 -4 16 -2 16 3 0 14 26 12 38 -2z m1319 -114 c18
-20 30 -40 28 -45 -3 -4 3 -13 14 -18 26 -14 31 -14 31 4 0 8 5 15 10 15 14 0
12 -20 -5 -54 -9 -16 -14 -35 -11 -42 6 -16 -46 -34 -100 -34 -24 0 -44 -4
-44 -10 0 -5 -11 -10 -24 -10 -17 0 -27 9 -36 29 -6 16 -19 32 -27 35 -9 4
-13 13 -9 23 4 9 -4 32 -19 54 -26 41 -18 63 14 35 23 -21 25 -21 61 14 18 17
36 27 45 24 19 -8 19 -24 0 -24 -8 0 -15 -4 -15 -10 0 -13 37 -13 46 1 3 6 1
16 -5 22 -14 14 -14 27 1 27 6 0 26 -16 45 -36z m-1876 -140 c11 -20 13 -33 6
-41 -6 -9 -6 -17 1 -25 5 -7 6 -22 2 -33 -4 -11 -5 -26 -3 -32 7 -18 -41 -37
-72 -29 l-27 7 23 20 c12 10 19 22 15 26 -3 4 -12 1 -18 -5 -20 -20 -85 -15
-109 9 -16 16 -23 18 -35 8 -10 -8 -14 -8 -14 0 0 6 4 11 9 11 5 0 14 13 20
29 7 15 31 40 54 55 34 23 45 26 64 17 35 -16 56 -14 49 5 -10 27 17 10 35
-22z m1404 -22 c36 -26 49 -55 36 -80 -6 -11 -11 -32 -11 -46 0 -24 4 -26 40
-26 57 0 106 -45 112 -103 5 -49 -6 -81 -41 -119 -23 -27 -24 -28 -7 -47 27
-29 17 -55 -22 -59 -33 -3 -38 4 -34 51 1 10 -5 17 -16 18 -65 3 -123 37 -141
83 -13 33 -12 44 1 87 15 47 15 49 -2 49 -10 0 -39 9 -63 19 -54 23 -68 61
-43 112 9 18 16 38 16 45 0 7 10 20 23 29 28 21 117 13 152 -13z m428 -151
c34 -13 39 -35 16 -64 -25 -33 -24 -46 6 -57 29 -11 33 -27 8 -32 -14 -3 -11
-8 14 -21 18 -9 39 -17 48 -17 21 0 32 -30 14 -40 -7 -5 -17 -6 -21 -4 -5 3
-21 -4 -37 -15 -16 -12 -40 -21 -54 -21 -14 0 -27 -7 -31 -15 -3 -8 -12 -12
-21 -9 -22 9 -19 24 5 24 11 0 20 5 20 10 0 6 -4 10 -10 10 -11 0 -8 49 5 70
6 10 4 12 -9 7 -10 -4 -26 -2 -37 3 -27 15 -26 75 1 92 11 7 20 23 20 35 0 13
5 23 10 23 6 0 9 3 9 8 -4 24 6 27 44 13z m-6812 -94 c-6 -8 -8 -17 -5 -20 9
-9 10 -108 2 -114 -5 -2 -6 -9 -2 -14 12 -20 -34 -95 -76 -123 -23 -15 -45
-25 -48 -21 -4 4 -6 36 -5 71 2 70 27 137 62 169 12 11 32 30 44 42 24 24 47
32 28 10z m1299 -37 c11 -7 5 -10 -22 -10 -47 0 -49 -15 -3 -30 26 -8 39 -8
56 1 19 10 25 9 36 -7 16 -22 9 -31 -12 -14 -8 7 -15 9 -15 4 1 -13 37 -54 48
-54 14 0 22 -25 22 -68 0 -45 -5 -52 -54 -91 -37 -29 -85 -43 -71 -21 4 6 1
17 -5 25 -14 17 -35 21 -25 5 10 -16 -27 1 -52 23 -17 15 -23 17 -23 6 -1 -10
-5 -8 -16 6 -8 11 -12 25 -10 32 3 7 -1 13 -9 13 -41 0 -17 124 34 167 28 24
93 31 121 13z m3495 -30 c14 -22 8 -73 -10 -86 -48 -36 -125 -2 -125 54 0 37
11 51 46 61 29 8 75 -7 89 -29z m1119 -11 c14 -11 26 -27 26 -36 0 -24 -40
-53 -72 -53 -25 0 -28 -3 -28 -33 0 -21 -7 -36 -20 -45 -13 -8 -20 -23 -20
-41 0 -35 -14 -46 -55 -43 -45 4 -62 25 -48 62 6 17 8 30 5 30 -4 0 -13 9 -19
19 -9 15 -9 25 0 45 7 14 15 26 20 26 4 0 7 7 7 15 0 8 7 15 15 15 8 0 15 -5
15 -10 0 -6 12 -22 27 -35 21 -17 32 -21 46 -14 12 7 15 15 9 27 -13 26 1 65
28 79 33 17 33 16 64 -8z m-535 -55 c19 -14 22 -22 17 -50 -6 -27 -3 -35 14
-44 33 -18 67 -120 40 -120 -24 0 -7 -32 30 -55 23 -14 40 -33 40 -44 0 -10 9
-28 20 -41 27 -31 25 -44 -12 -79 -28 -26 -30 -31 -15 -37 9 -3 14 -10 11 -15
-3 -5 1 -6 9 -3 10 4 19 -6 27 -30 11 -34 10 -39 -16 -69 -15 -17 -25 -24 -21
-14 3 9 3 17 -2 17 -5 0 -11 -8 -13 -18 -3 -11 -26 -25 -60 -36 -52 -18 -55
-18 -92 -1 -42 20 -60 55 -52 97 4 22 0 30 -27 47 -39 24 -63 51 -72 82 -3 13
-14 38 -23 56 -22 44 -3 67 50 60 41 -5 43 -2 39 55 -1 14 3 29 8 33 14 8 14
45 1 45 -5 0 -10 -9 -10 -20 0 -11 -4 -20 -9 -20 -5 0 -11 9 -14 20 -3 11 -1
20 5 20 5 0 6 5 2 12 -5 7 -1 9 13 6 11 -3 28 1 39 9 18 13 18 14 -4 19 -12 4
-19 11 -16 16 3 5 17 7 30 4 14 -4 24 -2 24 4 0 5 -4 10 -9 10 -15 0 -23 51
-10 66 6 8 8 14 3 14 -9 0 17 20 26 20 3 0 16 -7 29 -16z m-6279 -77 c16 -1
31 -12 42 -32 19 -33 24 -90 8 -80 -5 3 -10 1 -10 -5 0 -20 -44 -70 -62 -70
-10 0 -18 -5 -18 -10 0 -7 -7 -7 -20 0 -11 6 -26 10 -33 9 -30 -4 -39 4 -58
46 -27 61 -23 119 9 123 13 2 19 8 16 14 -5 7 2 9 20 6 14 -3 29 -1 32 4 4 5
16 7 28 3 11 -3 32 -7 46 -8z m5466 -51 c54 -17 54 -126 1 -117 -5 1 -6 -3 -2
-8 9 -16 -38 -23 -70 -11 -17 6 -38 19 -47 27 -24 21 -24 85 0 106 17 16 83
27 92 16 3 -4 15 -9 26 -13z m1702 -71 c25 5 33 2 49 -22 21 -30 20 -53 -2
-53 -22 0 -29 -22 -11 -35 15 -11 15 -13 1 -19 -8 -3 -20 -17 -25 -30 -5 -15
-20 -28 -35 -32 -29 -7 -34 -34 -5 -34 10 0 24 -9 30 -21 9 -16 14 -18 26 -8
8 6 15 21 15 33 1 11 5 3 10 -19 11 -50 -7 -126 -27 -118 -10 4 -14 -3 -14
-23 0 -16 -7 -38 -15 -48 -9 -12 -15 -15 -15 -7 0 11 -3 11 -15 1 -10 -9 -15
-9 -15 -1 0 6 -4 11 -10 11 -17 0 -6 -42 18 -66 26 -27 27 -34 9 -59 -23 -30
-65 -13 -73 30 -7 37 -24 47 -85 49 -23 1 -30 7 -35 29 -4 18 -12 27 -25 27
-16 0 -18 -5 -13 -27 4 -15 13 -33 20 -40 21 -21 26 -69 13 -115 -17 -57 -27
-70 -58 -66 -20 2 -26 -1 -26 -17 0 -15 -9 -21 -40 -27 -90 -17 -157 13 -202
90 -22 37 -24 47 -15 82 6 23 6 42 1 46 -5 3 -9 10 -9 16 0 6 3 8 6 5 4 -4 20
1 36 11 23 13 27 22 23 42 -3 16 1 33 10 45 15 19 16 18 12 -23 l-5 -43 25 16
c27 18 62 21 109 11 l32 -7 1 93 c2 121 10 148 49 170 23 12 32 14 33 5 1 -6
5 4 8 23 5 23 2 43 -8 58 -14 22 -13 23 13 16 21 -5 25 -3 20 10 -4 12 0 16
15 16 12 0 21 -4 21 -10 0 -5 -7 -7 -15 -4 -11 5 -13 2 -9 -10 3 -9 10 -16 15
-16 4 0 6 -6 3 -13 -6 -16 81 -23 91 -7 3 5 1 10 -4 10 -6 0 -11 10 -11 23 0
16 3 18 9 9 6 -11 10 -10 15 4 5 12 1 23 -10 31 -16 11 -15 13 7 22 17 6 29 5
41 -6 11 -10 26 -13 46 -8z m2564 -34 c13 -11 30 -38 37 -61 15 -50 6 -147
-16 -172 -8 -9 -12 -22 -8 -27 3 -7 -2 -11 -14 -11 -11 0 -23 5 -26 10 -3 6
-11 10 -18 10 -8 0 -8 -3 1 -12 7 -7 12 -18 12 -25 0 -18 -27 -16 -34 3 -4 10
-13 13 -26 9 -12 -4 -20 -2 -20 5 0 7 -6 10 -14 7 -8 -3 -33 10 -57 32 -40 35
-43 41 -46 97 -7 101 42 151 148 153 42 1 63 -4 81 -18z m-3032 -51 c27 0 70
-22 94 -49 22 -25 17 -67 -15 -110 -19 -27 -23 -28 -67 -20 -25 5 -53 15 -61
23 -9 8 -27 16 -41 18 -28 3 -42 14 -58 45 -10 19 -8 24 16 41 15 10 33 17 40
15 8 -3 10 1 6 12 -5 13 -2 15 20 9 24 -6 26 -4 27 27 0 31 1 32 9 12 6 -14
18 -23 30 -23z m3674 -1 c15 -12 26 -30 26 -45 0 -30 -27 -74 -46 -74 -7 0
-21 -11 -30 -25 -29 -45 -126 -50 -138 -7 -7 25 -2 62 9 70 6 4 23 24 39 45
44 59 94 72 140 36z m-5066 -87 c28 -22 40 -85 21 -108 -23 -28 -60 -37 -100
-24 -29 10 -39 20 -49 50 -13 38 -3 74 24 92 20 14 81 8 104 -10z m-2814 -171
c10 -9 25 -31 33 -49 12 -30 12 -38 -4 -70 -17 -35 -20 -37 -67 -36 -40 0 -53
5 -72 28 -33 38 -40 72 -21 111 22 47 86 55 131 16z m7154 -57 c28 -20 30 -72
2 -102 -11 -11 -36 -24 -57 -28 -32 -6 -40 -3 -60 20 -26 30 -28 44 -12 80 20
44 85 59 127 30z m-1093 -47 c-1 -17 5 -27 14 -27 25 0 39 -30 30 -69 -7 -30
-5 -39 12 -53 17 -15 18 -18 5 -18 -9 0 -16 -4 -16 -9 0 -5 -3 -18 -6 -28 -6
-15 -4 -16 7 -5 17 16 29 15 29 -2 0 -7 -9 -16 -21 -19 -15 -4 -19 -11 -15
-25 4 -11 2 -31 -3 -46 -12 -30 -54 -36 -87 -11 -10 8 -26 15 -35 15 -39 0
-72 136 -49 204 20 60 92 131 125 122 6 -2 10 -15 10 -29z m-4537 3 c67 -41
91 -124 52 -187 -26 -44 -54 -56 -113 -50 -43 4 -56 10 -88 45 -46 49 -57 96
-34 145 30 63 119 86 183 47z m3695 -46 c38 -25 45 -38 27 -49 -18 -11 -11
-81 10 -100 11 -10 20 -26 20 -35 0 -10 7 -24 16 -31 9 -7 20 -24 25 -37 8
-20 12 -22 24 -12 12 10 16 9 21 -5 11 -29 46 -35 66 -11 17 21 17 20 18 -29
0 -44 -5 -55 -40 -95 -22 -25 -39 -49 -37 -55 4 -11 50 -36 75 -39 12 -2 15
-15 14 -59 0 -66 17 -91 41 -57 14 20 15 19 22 -32 4 -29 12 -58 17 -65 6 -8
5 -19 -2 -32 -14 -26 -27 -27 -35 -1 -7 22 -35 28 -35 8 0 -7 -5 -31 -12 -53
l-12 -40 -9 55 c-5 30 -9 73 -9 95 l-1 40 -79 0 c-78 0 -81 1 -107 32 l-27 32
1 -26 c0 -14 -7 -30 -16 -36 -24 -15 -68 0 -79 28 -12 31 -21 31 -69 -1 -75
-49 -177 -41 -227 19 -27 32 -31 72 -13 142 10 39 9 49 -10 80 -26 45 -27 76
-1 123 11 20 31 62 44 94 25 57 93 125 139 140 12 4 47 16 77 27 65 24 109 20
163 -15z m938 -34 c5 0 10 8 10 18 1 16 2 16 6 0 2 -10 10 -18 17 -18 7 0 19
-12 27 -27 22 -43 55 -73 68 -60 15 15 14 6 -4 -34 -13 -32 -14 -32 -16 -9 -1
17 -3 20 -6 7 -2 -9 -8 -15 -13 -12 -5 3 -16 -8 -25 -24 -19 -38 -19 -47 0
-31 18 15 20 -1 3 -18 -8 -8 -15 -9 -25 -1 -9 8 -13 8 -13 0 0 -8 -10 -6 -30
4 -16 9 -30 22 -30 31 0 8 4 13 9 9 13 -7 23 11 27 49 2 17 6 41 9 53 3 15 -2
30 -15 43 -11 11 -19 28 -19 38 1 16 2 16 6 0 2 -10 9 -18 14 -18z m-3460 -49
c22 -5 56 -28 91 -62 56 -53 84 -103 107 -187 10 -34 18 -45 48 -57 19 -8 61
-15 93 -15 67 0 75 -7 84 -73 4 -26 11 -45 15 -42 5 2 25 -7 46 -20 36 -25 37
-25 42 -5 6 21 18 26 28 11 3 -5 -4 -16 -15 -24 -11 -7 -23 -28 -26 -46 -7
-36 -21 -49 -30 -28 -7 18 -44 10 -44 -9 0 -8 -7 -14 -15 -14 -8 0 -15 9 -15
19 0 27 -19 37 -26 14 -3 -10 -10 -26 -15 -35 -12 -24 -11 -29 4 -26 15 3 82
-29 97 -47 6 -7 13 -35 15 -61 3 -42 1 -50 -27 -76 -27 -25 -36 -28 -79 -24
-27 3 -58 10 -69 16 -11 6 -25 8 -30 5 -6 -4 -13 1 -16 9 -3 9 -12 16 -20 16
-8 0 -14 4 -14 9 0 5 -12 12 -27 16 -27 6 -27 7 -9 21 11 8 28 14 37 14 10 0
27 16 39 35 12 20 35 42 51 50 16 9 29 19 29 24 0 5 -24 -4 -53 -20 -50 -27
-57 -28 -154 -24 -76 3 -109 1 -131 -11 -43 -21 -77 -5 -92 42 -11 33 -14 35
-25 21 -13 -19 -25 -12 -25 14 0 16 -22 32 -47 34 -7 0 -34 21 -60 46 -34 34
-59 49 -88 54 -61 10 -85 30 -85 70 0 18 7 40 15 49 10 10 15 36 15 83 1 77
45 201 70 195 8 -2 20 4 27 14 8 11 31 18 70 21 32 3 60 7 62 9 8 7 115 4 152
-5z m-1881 -11 c0 -5 15 -7 33 -4 98 17 190 6 156 -18 -11 -8 -10 -9 4 -4 22
7 67 -21 67 -41 0 -8 11 -29 25 -47 21 -27 23 -38 16 -64 -8 -25 -6 -31 7 -34
14 -3 12 -7 -8 -25 -27 -26 -19 -43 12 -24 19 12 20 11 14 -13 -6 -26 7 -36
19 -16 4 6 15 8 26 5 13 -4 19 -2 19 9 0 9 4 16 10 16 18 0 -14 -74 -48 -110
-13 -14 -47 -36 -75 -50 l-52 -25 -6 -75 c-7 -101 -23 -142 -67 -177 -68 -54
-75 -56 -169 -37 -14 3 -23 12 -23 23 0 10 -7 24 -15 31 -8 7 -15 19 -15 26 0
8 -3 14 -7 14 -79 4 -128 11 -136 19 -14 14 -47 14 -47 1 0 -5 -5 -10 -12 -10
-9 0 -9 3 -1 11 13 13 6 39 -9 39 -6 0 -8 -7 -4 -15 9 -24 -12 -17 -25 8 -7
12 -16 25 -21 28 -13 8 -28 68 -18 74 5 3 11 1 15 -4 8 -15 35 -2 36 18 1 13
2 13 6 -2 5 -18 6 -18 24 -1 10 9 19 22 19 29 0 23 47 38 104 32 l55 -5 -4 46
c-1 26 -9 61 -15 77 -7 17 -14 41 -16 55 -2 14 -5 39 -9 56 -7 40 23 105 37
80 5 -9 16 -16 23 -16 22 0 18 38 -5 45 -21 7 -27 30 -10 40 6 3 10 -1 10 -9
0 -9 9 -16 20 -16 11 0 20 4 20 9 0 5 9 13 20 16 11 3 20 11 20 16 0 6 -9 7
-21 4 -19 -6 -20 -5 -8 8 16 18 29 22 29 7z m3159 -64 c84 -23 156 -82 176
-145 11 -36 8 -97 -6 -123 -7 -13 -15 -38 -18 -57 -5 -31 -11 -35 -56 -47 -68
-19 -103 -25 -147 -25 -51 0 -118 21 -132 43 -6 10 -16 18 -22 18 -7 0 -26 21
-44 48 -27 40 -31 53 -26 89 7 55 60 153 81 153 6 0 17 6 23 12 7 7 36 20 65
30 28 9 52 17 52 17 0 1 24 -6 54 -13z m3305 -17 c68 -54 -20 -148 -102 -109
-17 8 -22 14 -14 17 10 4 9 10 -5 25 -17 19 -17 21 19 54 43 39 65 42 102 13z
m-2578 -280 c69 -64 45 -121 -64 -154 -40 -12 -115 48 -108 86 6 31 26 69 36
69 5 0 10 7 10 16 0 26 93 14 126 -17z m-3010 -19 c7 0 26 -14 43 -32 52 -54
40 -129 -24 -147 -82 -22 -153 39 -143 125 3 33 59 68 93 59 11 -2 25 -5 31
-5z m-3853 -68 c72 -33 134 -99 171 -184 31 -72 28 -202 -6 -248 -12 -17 -26
-30 -32 -30 -6 0 -5 5 2 12 21 21 13 26 -25 18 -49 -10 -73 -20 -73 -31 0 -14
28 -11 33 4 3 9 9 9 30 -2 26 -14 27 -37 1 -27 -8 3 -14 -1 -14 -9 0 -22 -74
-19 -152 5 -65 20 -108 50 -108 75 0 8 -13 22 -29 31 -57 34 -99 204 -71 290
7 21 26 58 42 82 l29 42 70 0 c55 0 82 -6 132 -28z m7078 -141 c17 -1 47 -23
91 -68 44 -44 35 -93 -26 -156 -20 -20 -42 -37 -50 -37 -34 0 -45 -28 -39 -95
5 -52 3 -65 -8 -66 -28 -2 -64 3 -81 12 -10 6 -26 4 -44 -6 -20 -10 -30 -11
-35 -3 -4 6 -6 83 -5 172 2 160 13 216 40 216 7 0 29 9 50 19 20 11 49 18 64
16 15 -2 34 -4 43 -4z m1300 -79 c13 -10 58 -26 99 -36 101 -25 107 -31 102
-108 -5 -83 -16 -117 -52 -156 -59 -65 -158 -81 -240 -39 -80 40 -106 146 -55
221 14 20 25 41 25 46 0 6 5 10 10 10 6 0 14 8 18 18 26 62 52 75 93 44z
m-3351 -87 c8 -14 24 -28 37 -31 13 -4 23 -12 23 -20 0 -8 5 -14 10 -14 6 0
10 4 10 9 0 6 13 5 32 -1 24 -9 33 -8 36 0 5 17 32 15 38 -2 4 -10 12 -12 26
-7 29 11 66 -25 51 -48 -12 -17 -70 -18 -87 -1 -33 33 -90 -12 -102 -79 -10
-60 -25 -102 -39 -108 -8 -2 -11 -11 -9 -18 3 -7 -5 -20 -18 -29 -28 -20 -44
-21 -29 -2 8 9 8 16 2 20 -5 4 -12 2 -16 -4 -3 -5 -11 -10 -17 -10 -7 0 -6 5
1 14 13 16 -2 32 -20 21 -5 -4 -22 -4 -36 0 -22 5 -25 10 -19 38 4 22 3 27 -3
17 -8 -12 -11 -11 -17 5 -4 11 -16 32 -26 48 -19 26 -19 30 -3 81 18 56 57
103 110 130 41 21 49 20 65 -9z m-270 -288 c14 -7 28 -16 32 -22 4 -5 24 -14
45 -20 35 -10 38 -13 41 -51 3 -39 1 -43 -40 -67 -31 -18 -47 -22 -55 -15 -7
6 -22 8 -33 5 -10 -3 -24 1 -31 9 -6 8 -22 14 -34 14 -12 0 -28 7 -35 15 -9
11 -22 14 -42 10 -36 -8 -37 7 -3 51 26 34 20 50 -15 39 -13 -4 -20 -2 -20 8
0 13 26 30 60 40 24 6 103 -3 130 -16z m1736 -110 c-9 -56 -33 -74 -110 -83
-53 -6 -57 -5 -90 28 -27 27 -34 40 -29 59 4 13 8 18 11 11 6 -19 22 -14 22 7
0 12 9 23 22 27 13 4 28 14 34 22 11 15 37 14 77 -3 12 -5 17 -2 17 11 0 16 4
15 26 -8 24 -23 26 -31 20 -71z m539 40 c91 -45 155 -120 155 -181 0 -34 -28
-104 -57 -143 -54 -74 -112 -97 -235 -96 -37 0 -56 7 -95 36 -104 76 -124 122
-97 223 36 140 205 222 329 161z m676 -349 c-5 -29 -5 -62 -1 -74 5 -13 6 -38
3 -58 -5 -32 -3 -36 21 -42 14 -3 26 -10 26 -15 0 -5 5 -9 10 -9 6 0 10 7 10
15 0 16 18 20 35 7 6 -4 10 -13 10 -19 0 -7 3 -13 8 -13 30 0 40 2 30 7 -24 9
-13 22 14 17 15 -3 45 -23 66 -46 32 -34 39 -48 39 -82 0 -22 -5 -53 -11 -68
-13 -34 0 -44 37 -29 76 29 112 32 190 16 42 -9 87 -21 100 -28 18 -8 28 -8
42 1 56 35 128 -1 117 -58 -5 -21 -3 -30 7 -30 7 0 12 -10 12 -22 -1 -14 6
-24 20 -27 17 -5 19 -10 13 -26 -4 -12 -8 -14 -8 -5 -1 11 -3 12 -13 1 -11
-10 -8 -16 12 -31 14 -11 31 -20 38 -20 6 0 12 -6 12 -12 -1 -28 -29 -49 -69
-53 -33 -3 -43 0 -51 15 -6 11 -14 19 -18 19 -47 -7 -67 25 -32 51 l23 18 -30
15 -30 16 -17 -39 c-21 -47 -76 -107 -112 -120 -35 -14 -157 -12 -191 2 -15 6
-73 12 -128 13 -75 1 -108 5 -133 18 -18 10 -41 15 -51 12 -26 -8 -31 13 -32
117 0 88 -1 90 -35 128 -34 38 -35 41 -29 97 4 32 18 82 32 110 21 46 25 67
25 165 1 87 5 117 16 131 24 28 35 -2 23 -65z m1964 -60 c14 -6 25 -17 25 -25
0 -7 5 -13 10 -13 14 0 2 -66 -20 -105 -11 -20 -31 -34 -66 -46 -55 -19 -93
-16 -121 11 -11 10 -29 20 -40 24 -17 5 -20 2 -21 -25 -1 -39 -35 -74 -79 -82
-27 -5 -36 -2 -57 24 -31 36 -31 37 -10 78 9 17 13 38 10 46 -6 17 12 18 87 6
26 -4 47 -4 47 1 0 4 7 8 15 8 8 0 21 13 30 29 19 39 62 68 105 74 19 2 40 5
47 5 7 1 24 -3 38 -10z m-2804 -52 c48 -20 67 -45 78 -102 5 -27 15 -62 21
-78 28 -74 -70 -206 -153 -206 -16 0 -26 4 -22 10 9 15 -17 11 -39 -5 -28 -21
-62 -19 -79 5 -8 11 -17 17 -20 13 -4 -3 -7 4 -7 16 0 12 -7 24 -16 28 -8 3
-13 12 -10 19 3 8 1 14 -4 14 -14 0 -12 42 3 61 7 9 19 18 27 22 11 4 10 7 -7
12 -27 8 -30 30 -7 39 9 3 14 13 10 21 -3 8 -1 17 3 19 5 3 11 19 14 36 5 21
12 30 27 30 11 0 20 5 20 11 0 8 4 8 13 1 6 -5 23 -13 36 -17 19 -6 23 -4 18
8 -7 20 20 57 42 57 10 0 34 -6 52 -14z m-2981 -6 c42 -23 75 -112 52 -146
-12 -20 -81 -54 -108 -54 -65 0 -153 79 -141 127 4 16 5 16 6 -2 1 -11 8 -29
17 -40 14 -19 15 -18 12 18 -4 59 38 92 135 106 5 0 17 -3 27 -9z m6026 -356
c37 -18 43 -43 23 -87 -16 -36 -51 -51 -109 -48 -36 2 -49 13 -56 47 -4 24 0
37 20 62 23 27 37 34 79 41 5 0 24 -6 43 -15z m-2960 -135 c108 4 146 -35 159
-159 5 -60 3 -70 -27 -130 -28 -56 -41 -69 -86 -93 -29 -16 -67 -30 -85 -31
-18 -2 -42 -6 -53 -10 -15 -4 -46 5 -97 30 -126 61 -172 153 -121 245 47 85
69 104 133 117 34 7 61 17 61 22 0 5 7 7 15 4 8 -4 15 -1 15 6 0 6 5 8 12 4 6
-4 40 -6 74 -5z m-510 -264 c14 -35 18 -112 8 -152 -6 -23 -8 -23 -181 -23
-205 0 -233 8 -233 65 0 20 5 35 12 35 6 0 22 9 34 21 22 21 147 50 275 65 32
4 59 11 59 15 0 19 12 7 26 -26z"/>
<path d="M5814 6970 c-5 -5 -40 -11 -78 -14 -38 -3 -70 -7 -72 -9 -2 -2 30
-14 71 -27 60 -19 77 -21 89 -11 8 7 23 11 33 9 10 -1 24 1 31 5 8 5 12 3 12
-7 0 -9 -5 -16 -11 -16 -5 0 -7 -5 -3 -11 5 -8 9 -8 14 1 10 16 29 4 40 -25 6
-17 20 -26 45 -31 19 -3 35 -11 35 -16 0 -6 6 -5 15 2 12 10 17 7 27 -16 10
-25 12 -26 15 -9 5 26 -38 124 -65 148 -13 12 -47 22 -89 28 -88 11 -97 11
-109 -1z"/>
<path d="M1334 6853 c-16 -6 -53 -17 -81 -23 -65 -14 -74 -40 -14 -40 22 0 41
-5 43 -10 4 -12 261 -33 290 -24 24 7 86 16 118 16 33 0 50 15 50 44 0 17 -7
25 -24 30 -14 3 -29 3 -34 0 -5 -3 -16 1 -23 10 -11 13 -35 15 -155 13 -82 -2
-153 -9 -170 -16z"/>
<path d="M8724 6253 c4 -7 2 -22 -5 -34 -16 -31 -19 -118 -3 -112 17 6 29 -17
14 -27 -10 -6 -9 -9 1 -13 11 -4 10 -6 -2 -11 -14 -6 -15 -13 -7 -40 8 -26 7
-41 -4 -63 -14 -28 -14 -31 4 -42 28 -17 33 -8 30 55 -2 36 1 53 8 49 5 -3 10
-2 10 3 0 6 -7 13 -16 16 -13 5 -14 9 -4 21 7 8 9 15 6 15 -4 0 2 10 13 22 11
11 18 25 15 29 -3 5 2 6 10 3 9 -4 16 -1 16 6 0 7 11 10 28 7 15 -2 22 -2 15
0 -6 2 -19 20 -28 39 -14 30 -20 34 -55 34 -37 0 -55 13 -29 22 7 2 4 10 -7
18 -10 9 -15 10 -10 3z"/>
<path d="M2670 6043 c-34 -7 -57 -29 -63 -61 -6 -31 12 -122 28 -138 5 -6 30
-50 55 -97 25 -48 51 -87 58 -87 6 0 12 -9 12 -21 0 -12 4 -17 11 -14 5 4 9
17 8 28 -3 40 1 47 25 47 17 0 38 17 73 60 26 33 60 66 76 73 27 12 36 27 17
27 -14 0 -12 37 3 43 7 3 4 6 -7 6 -10 1 -34 10 -52 22 -19 11 -34 16 -34 10
0 -6 -24 14 -53 45 -55 57 -91 71 -157 57z"/>
<path d="M7445 5590 c-4 -6 -11 -8 -16 -5 -5 4 -9 -5 -9 -19 0 -14 -4 -26 -10
-26 -5 0 -10 -7 -10 -15 0 -8 -6 -15 -14 -15 -22 0 -28 -17 -14 -40 10 -16 10
-24 0 -40 -11 -17 -10 -23 4 -37 11 -12 14 -27 10 -51 -3 -19 -2 -32 1 -28 3
3 12 -2 19 -12 12 -16 14 -16 29 3 8 11 18 33 22 48 3 16 13 31 22 35 17 6 40
32 41 45 0 4 -7 7 -15 7 -8 0 -15 9 -15 20 0 14 7 20 23 20 23 0 25 11 19 84
-2 19 -2 19 -15 1 -17 -22 -41 -11 -34 16 4 14 0 19 -13 19 -11 0 -22 -5 -25
-10z"/>
</g>
</svg>
